<svg width="88" height="88" viewBox="0 0 88 88" fill="none" xmlns="http://www.w3.org/2000/svg">
<circle opacity="0.05" cx="44" cy="44" r="44" fill="#0B82E6"/>
<path d="M15.1804 21.1459C15.4139 21.1459 15.6421 21.0767 15.8362 20.947C16.0303 20.8173 16.1816 20.6329 16.2709 20.4172C16.3603 20.2015 16.3837 19.9642 16.3381 19.7352C16.2926 19.5062 16.1801 19.2959 16.0151 19.1308C15.85 18.9658 15.6397 18.8533 15.4107 18.8078C15.1817 18.7622 14.9444 18.7856 14.7287 18.875C14.513 18.9643 14.3286 19.1156 14.1989 19.3097C14.0692 19.5038 14 19.732 14 19.9655C14.0004 20.2785 14.1248 20.5785 14.3461 20.7998C14.5674 21.0211 14.8674 21.1455 15.1804 21.1459ZM15.1804 19.3753C15.2971 19.3753 15.4112 19.4099 15.5083 19.4748C15.6053 19.5396 15.681 19.6318 15.7257 19.7396C15.7703 19.8475 15.782 19.9662 15.7593 20.0806C15.7365 20.1951 15.6803 20.3003 15.5977 20.3828C15.5152 20.4654 15.41 20.5216 15.2955 20.5444C15.1811 20.5671 15.0624 20.5554 14.9545 20.5108C14.8467 20.4661 14.7545 20.3905 14.6897 20.2934C14.6248 20.1963 14.5902 20.0822 14.5902 19.9655C14.5904 19.809 14.6526 19.659 14.7632 19.5483C14.8739 19.4377 15.0239 19.3755 15.1804 19.3753ZM73.2596 40.5052C73.1039 40.5052 72.9518 40.5514 72.8224 40.6378C72.693 40.7243 72.5921 40.8472 72.5325 40.991C72.473 41.1348 72.4574 41.293 72.4878 41.4457C72.5181 41.5983 72.5931 41.7385 72.7031 41.8486C72.8132 41.9586 72.9534 42.0336 73.106 42.064C73.2587 42.0943 73.4169 42.0787 73.5607 42.0192C73.7045 41.9596 73.8274 41.8588 73.9139 41.7293C74.0003 41.5999 74.0465 41.4478 74.0465 41.2921C74.0463 41.0835 73.9633 40.8835 73.8157 40.736C73.6682 40.5884 73.4682 40.5055 73.2596 40.5052ZM73.2596 41.6856C73.1817 41.6856 73.1057 41.6625 73.041 41.6193C72.9763 41.5761 72.9258 41.5146 72.896 41.4427C72.8663 41.3708 72.8585 41.2917 72.8737 41.2154C72.8888 41.1391 72.9263 41.069 72.9813 41.0139C73.0364 40.9589 73.1065 40.9214 73.1828 40.9062C73.2591 40.8911 73.3382 40.8989 73.4101 40.9286C73.482 40.9584 73.5435 41.0088 73.5867 41.0736C73.63 41.1383 73.653 41.2143 73.653 41.2921C73.6529 41.3965 73.6114 41.4965 73.5377 41.5703C73.4639 41.644 73.3639 41.6855 73.2596 41.6856ZM60.5487 30.2751C60.393 30.2751 60.2409 30.3213 60.1115 30.4077C59.9821 30.4942 59.8812 30.6171 59.8216 30.7609C59.7621 30.9047 59.7465 31.0629 59.7769 31.2156C59.8072 31.3682 59.8822 31.5084 59.9922 31.6185C60.1023 31.7286 60.2425 31.8035 60.3951 31.8339C60.5478 31.8642 60.706 31.8486 60.8498 31.7891C60.9936 31.7295 61.1165 31.6287 61.203 31.4992C61.2894 31.3698 61.3356 31.2177 61.3356 31.0621C61.3354 30.8534 61.2524 30.6534 61.1048 30.5059C60.9573 30.3583 60.7573 30.2754 60.5487 30.2751ZM60.5487 31.4555C60.4708 31.4555 60.3948 31.4324 60.3301 31.3892C60.2654 31.346 60.2149 31.2845 60.1852 31.2126C60.1554 31.1407 60.1476 31.0616 60.1628 30.9853C60.1779 30.909 60.2154 30.8389 60.2704 30.7838C60.3255 30.7288 60.3956 30.6913 60.4719 30.6761C60.5482 30.661 60.6273 30.6688 60.6992 30.6985C60.7711 30.7283 60.8326 30.7788 60.8758 30.8435C60.9191 30.9082 60.9421 30.9842 60.9421 31.0621C60.942 31.1664 60.9005 31.2664 60.8268 31.3402C60.753 31.4139 60.653 31.4554 60.5487 31.4555ZM73.2596 17.2908C73.1039 17.2908 72.9518 17.3369 72.8224 17.4234C72.693 17.5099 72.5921 17.6328 72.5325 17.7766C72.473 17.9203 72.4574 18.0786 72.4878 18.2312C72.5181 18.3839 72.5931 18.5241 72.7031 18.6341C72.8132 18.7442 72.9534 18.8191 73.106 18.8495C73.2587 18.8799 73.4169 18.8643 73.5607 18.8047C73.7045 18.7452 73.8274 18.6443 73.9139 18.5149C74.0003 18.3855 74.0465 18.2333 74.0465 18.0777C74.0463 17.8691 73.9633 17.669 73.8157 17.5215C73.6682 17.374 73.4682 17.291 73.2596 17.2908ZM73.2596 18.4712C73.1817 18.4712 73.1057 18.4481 73.041 18.4049C72.9763 18.3616 72.9258 18.3002 72.896 18.2283C72.8663 18.1564 72.8585 18.0773 72.8737 18.0009C72.8888 17.9246 72.9263 17.8545 72.9813 17.7995C73.0364 17.7445 73.1065 17.707 73.1828 17.6918C73.2591 17.6766 73.3382 17.6844 73.4101 17.7142C73.482 17.744 73.5435 17.7944 73.5867 17.8591C73.63 17.9238 73.653 17.9999 73.653 18.0777C73.6529 18.182 73.6114 18.282 73.5377 18.3558C73.4639 18.4296 73.3639 18.4711 73.2596 18.4712ZM25.794 28.7013C25.794 28.5456 25.7479 28.3935 25.6614 28.2641C25.5749 28.1347 25.452 28.0338 25.3082 27.9742C25.1644 27.9147 25.0062 27.8991 24.8536 27.9295C24.7009 27.9598 24.5607 28.0348 24.4506 28.1448C24.3406 28.2549 24.2656 28.3951 24.2353 28.5477C24.2049 28.7004 24.2205 28.8586 24.28 29.0024C24.3396 29.1462 24.4405 29.2691 24.5699 29.3556C24.6993 29.442 24.8514 29.4882 25.0071 29.4882C25.2157 29.488 25.4157 29.405 25.5633 29.2574C25.7108 29.1099 25.7938 28.9099 25.794 28.7013ZM24.6136 28.7013C24.6136 28.6234 24.6367 28.5474 24.6799 28.4827C24.7232 28.418 24.7846 28.3675 24.8565 28.3377C24.9284 28.308 25.0075 28.3002 25.0838 28.3154C25.1602 28.3305 25.2303 28.368 25.2853 28.423C25.3403 28.4781 25.3778 28.5482 25.393 28.6245C25.4082 28.7008 25.4004 28.7799 25.3706 28.8518C25.3408 28.9237 25.2904 28.9852 25.2257 29.0284C25.161 29.0717 25.0849 29.0947 25.0071 29.0947C24.9028 29.0946 24.8027 29.0531 24.729 28.9794C24.6552 28.9056 24.6137 28.8056 24.6136 28.7013Z" fill="#6C7B88"/>
<path d="M15.2563 38.476L15.8414 37.7064L15.472 37.4971L15.0962 38.3588H15.084L14.7023 37.5034L14.3266 37.7186L14.9054 38.4697V38.4823L14 38.3651V38.7837L14.9113 38.6668V38.679L14.3266 39.4302L14.6772 39.6517L15.0777 38.7837H15.0899L15.4594 39.6454L15.8473 39.4239L15.2563 38.6853V38.6727L16.1857 38.7837V38.3651L15.2563 38.4882V38.476Z" fill="#86EAAA"/>
<path d="M38.8477 12.7599L38.5109 13.1923L38.7132 13.3198L38.9437 12.8201H38.9508L39.1633 13.3163L39.3868 13.1888L39.0464 12.7631V12.756L39.5815 12.8201V12.5789L39.0464 12.6497V12.6427L39.3832 12.1996L39.1708 12.0792L38.9544 12.5754H38.9473L38.7277 12.0824L38.5109 12.2067L38.8446 12.6391V12.6462L38.3232 12.5789V12.8201L38.8477 12.7528V12.7599Z" fill="#86EAAA"/>
<path d="M72.0793 30.0959V29.6852L71.1676 29.806V29.7942L71.7413 29.0391L71.3789 28.8341L71.0106 29.6793H70.9984L70.6243 28.84L70.2556 29.0513L70.8234 29.7883V29.8001L69.9353 29.6852V30.0959L70.8293 29.9815V29.9933L70.2556 30.7298L70.5999 30.9474L70.9925 30.0959H71.0043L71.3667 30.9411L71.7472 30.7239L71.1676 29.9992V29.9874L72.0793 30.0959Z" fill="#86EAAA"/>
<path d="M50.9307 19.94L51.4257 19.2888L51.1132 19.1118L50.7953 19.8408H50.7851L50.4621 19.1169L50.1441 19.2994L50.634 19.9349V19.9451L49.8679 19.8464V20.2005L50.6391 20.1017V20.1119L50.1441 20.7474L50.4408 20.9351L50.78 20.2005H50.7898L51.1026 20.9296L51.4308 20.7423L50.9307 20.1171V20.1068L51.7172 20.2005V19.8464L50.9307 19.9502V19.94Z" fill="#86EAAA"/>
<g clip-path="url(#clip0_335_3676)">
<path d="M64.0667 37.6627V36.2189C64.0662 35.8255 63.9098 35.4483 63.6316 35.1701C63.3534 34.8919 62.9762 34.7355 62.5828 34.735H59.6818C59.4272 34.7354 59.1769 34.8013 58.9551 34.9264C58.7333 35.0515 58.5475 35.2317 58.4155 35.4495L56.3526 30.086C56.1471 29.5588 55.7981 29.0998 55.345 28.7609C54.892 28.422 54.3531 28.2168 53.7893 28.1685V27.7877C53.7893 27.6282 53.726 27.4752 53.6131 27.3624C53.5003 27.2495 53.3473 27.1862 53.1878 27.1862C53.0282 27.1862 52.8752 27.2495 52.7624 27.3624C52.6496 27.4752 52.5862 27.6282 52.5862 27.7877V28.158H35.0657V27.7877C35.0657 27.6282 35.0023 27.4752 34.8895 27.3624C34.7767 27.2495 34.6236 27.1862 34.4641 27.1862C34.3046 27.1862 34.1515 27.2495 34.0387 27.3624C33.9259 27.4752 33.8625 27.6282 33.8625 27.7877V28.158H33.5214C32.914 28.1604 32.3214 28.3457 31.8208 28.6895C31.3201 29.0334 30.9345 29.52 30.7141 30.086L28.6512 35.4495C28.5192 35.2317 28.3334 35.0515 28.1116 34.9264C27.8898 34.8013 27.6395 34.7354 27.3848 34.735H24.4839C24.0904 34.7355 23.7133 34.8919 23.4351 35.1701C23.1569 35.4483 23.0004 35.8255 23 36.2189V37.6627C23.0004 38.0561 23.1569 38.4332 23.4351 38.7114C23.7133 38.9896 24.0904 39.1461 24.4839 39.1465H26.5693C25.8118 40.1977 25.4049 41.4608 25.4063 42.7564V52.822C25.4066 53.3458 25.5437 53.8604 25.804 54.3149C26.0642 54.7695 26.4386 55.1482 26.8901 55.4136V59.382C26.8902 59.5451 26.9142 59.7073 26.9611 59.8635H23.6016C23.442 59.8635 23.289 59.9269 23.1762 60.0397C23.0634 60.1525 23 60.3055 23 60.4651C23 60.6246 23.0634 60.7776 23.1762 60.8904C23.289 61.0033 23.442 61.0666 23.6016 61.0666H63.4651C63.6247 61.0666 63.7777 61.0033 63.8905 60.8904C64.0033 60.7776 64.0667 60.6246 64.0667 60.4651C64.0667 60.3055 64.0033 60.1525 63.8905 60.0397C63.7777 59.9269 63.6247 59.8635 63.4651 59.8635H60.1056C60.1525 59.7073 60.1764 59.5451 60.1766 59.382V55.4136C60.6281 55.1481 61.0025 54.7694 61.2627 54.3149C61.5229 53.8604 61.66 53.3458 61.6604 52.822V42.7564C61.6618 41.4608 61.2549 40.1977 60.4974 39.1465H62.5828C62.9762 39.1461 63.3534 38.9896 63.6316 38.7114C63.9098 38.4332 64.0662 38.0561 64.0667 37.6627ZM24.4839 37.9434C24.4094 37.9433 24.3381 37.9137 24.2854 37.8611C24.2328 37.8084 24.2032 37.7371 24.2031 37.6627V36.2189C24.2032 36.1445 24.2328 36.0731 24.2854 36.0205C24.3381 35.9679 24.4094 35.9383 24.4839 35.9382H27.3848C27.4593 35.9383 27.5306 35.9679 27.5832 36.0205C27.6359 36.0731 27.6655 36.1445 27.6656 36.2189V37.6627C27.6655 37.7371 27.6359 37.8084 27.5832 37.8611C27.5306 37.9137 27.4593 37.9433 27.3848 37.9434H24.4839ZM32.5047 59.382C32.5045 59.5097 32.4538 59.6321 32.3635 59.7223C32.2732 59.8126 32.1509 59.8634 32.0232 59.8635H28.5747C28.4471 59.8634 28.3247 59.8126 28.2344 59.7223C28.1442 59.6321 28.0934 59.5097 28.0932 59.382V55.8125C28.1998 55.824 28.3069 55.8298 28.4141 55.8298H32.5047V59.382ZM33.6368 59.8635C33.6838 59.7073 33.7077 59.5451 33.7078 59.382V55.8298H53.3589V59.382C53.359 59.5451 53.3829 59.7073 53.4298 59.8635H33.6368ZM34.3579 54.6267L35.8219 53.358C36.3102 52.9347 36.9348 52.7017 37.5811 52.7017H49.4054C50.0516 52.7017 50.6762 52.9347 51.1646 53.358L52.6286 54.6267H34.3579ZM58.9734 59.382C58.9733 59.5097 58.9225 59.6321 58.8323 59.7223C58.742 59.8126 58.6196 59.8634 58.492 59.8635H55.0435C54.9158 59.8634 54.7934 59.8126 54.7032 59.7223C54.6129 59.6321 54.5621 59.5097 54.562 59.382V55.8298H58.6526C58.7598 55.8298 58.8669 55.824 58.9734 55.8125V59.382ZM60.4573 52.822C60.4568 53.3005 60.2665 53.7592 59.9281 54.0975C59.5898 54.4359 59.1311 54.6262 58.6526 54.6267H54.4656L51.9526 52.4488C51.2455 51.836 50.3411 51.4986 49.4054 51.4986H37.5811C36.6454 51.4986 35.741 51.836 35.0339 52.4488L32.521 54.6267H28.4141C27.9356 54.6262 27.4769 54.4359 27.1385 54.0975C26.8002 53.7592 26.6099 53.3005 26.6094 52.822V42.7564C26.6077 41.4912 27.0888 40.2729 27.9545 39.3502C28.4995 38.7688 28.9265 38.0873 29.2118 37.3433L31.837 30.5179C31.9692 30.1783 32.2006 29.8864 32.501 29.68C32.8014 29.4737 33.157 29.3626 33.5214 29.3611H53.5453C53.9097 29.3626 54.2652 29.4737 54.5657 29.68C54.8661 29.8864 55.0974 30.1783 55.2296 30.5179L57.8549 37.3433C58.1402 38.0873 58.5672 38.7688 59.1121 39.3502C59.9779 40.2729 60.459 41.4912 60.4573 42.7564V52.822ZM59.6818 37.9434C59.6074 37.9433 59.5361 37.9137 59.4834 37.8611C59.4308 37.8084 59.4012 37.7371 59.4011 37.6627V36.2189C59.4012 36.1445 59.4308 36.0731 59.4834 36.0205C59.5361 35.9679 59.6074 35.9383 59.6818 35.9382H62.5828C62.6572 35.9383 62.7286 35.9679 62.7812 36.0205C62.8339 36.0731 62.8635 36.1445 62.8635 36.2189V37.6627C62.8635 37.7371 62.8339 37.8084 62.7812 37.8611C62.7286 37.9137 62.6572 37.9433 62.5828 37.9434H59.6818ZM30.299 40.3269H56.7677C56.8654 40.3269 56.9617 40.3031 57.0482 40.2575C57.1346 40.212 57.2087 40.146 57.2639 40.0654C57.3192 39.9848 57.3539 39.8919 57.3652 39.7948C57.3765 39.6978 57.364 39.5994 57.3287 39.5082L54.0505 31.0398C54.0067 30.9266 53.9296 30.8293 53.8295 30.7607C53.7294 30.6921 53.6108 30.6554 53.4894 30.6554H33.5772C33.4558 30.6554 33.3373 30.6921 33.2372 30.7607C33.137 30.8293 33.06 30.9266 33.0162 31.0398L29.738 39.5082C29.7027 39.5994 29.6902 39.6977 29.7015 39.7948C29.7128 39.8919 29.7476 39.9847 29.8028 40.0653C29.858 40.146 29.9321 40.2119 30.0185 40.2575C30.105 40.303 30.2012 40.3269 30.299 40.3269ZM33.9893 31.8585H53.0773L55.8898 39.1238H31.1769L33.9893 31.8585Z" fill="#2D4356"/>
<path d="M29.2027 43.8722C29.5984 43.6078 30.0636 43.4667 30.5396 43.4667C31.1775 43.4674 31.7891 43.7211 32.2402 44.1722C32.6913 44.6234 32.9451 45.235 32.9458 45.8729C32.9458 46.3488 32.8047 46.8141 32.5403 47.2098C32.2759 47.6055 31.9001 47.9139 31.4604 48.096C31.0207 48.2781 30.5369 48.3258 30.0701 48.2329C29.6033 48.1401 29.1746 47.9109 28.8381 47.5744C28.5016 47.2379 28.2724 46.8091 28.1795 46.3424C28.0867 45.8756 28.1343 45.3918 28.3165 44.9521C28.4986 44.5124 28.807 44.1366 29.2027 43.8722Z" fill="#86EAAA"/>
<path d="M36.1176 43.4667H51.4302C51.6586 43.4667 51.8827 43.5296 52.0777 43.6486C52.2727 43.7676 52.4311 43.938 52.5357 44.1411C52.6402 44.3442 52.6867 44.5722 52.6701 44.8C52.6536 45.0278 52.5746 45.2467 52.4418 45.4326L50.9523 47.518C50.8371 47.6789 50.6852 47.81 50.5093 47.9005C50.3334 47.991 50.1384 48.0384 49.9406 48.0385H37.6073C37.4094 48.0384 37.2144 47.9911 37.0385 47.9005C36.8626 47.81 36.7107 47.6789 36.5955 47.518L35.1061 45.4326C34.9733 45.2467 34.8943 45.0278 34.8777 44.8C34.8611 44.5722 34.9077 44.3442 35.0122 44.1411C35.1167 43.938 35.2752 43.7676 35.4702 43.6486C35.6652 43.5296 35.8892 43.4667 36.1176 43.4667Z" fill="#86EAAA"/>
<path d="M55.6715 43.8722C56.0672 43.6078 56.5324 43.4667 57.0083 43.4667C57.6463 43.4674 58.2579 43.7211 58.709 44.1722C59.1601 44.6234 59.4138 45.235 59.4146 45.8729C59.4146 46.3488 59.2734 46.8141 59.009 47.2098C58.7446 47.6055 58.3688 47.9139 57.9291 48.096C57.4895 48.2781 57.0056 48.3258 56.5389 48.2329C56.0721 48.1401 55.6433 47.9109 55.3068 47.5744C54.9703 47.2379 54.7411 46.8091 54.6483 46.3424C54.5554 45.8756 54.6031 45.3918 54.7852 44.9521C54.9673 44.5124 55.2758 44.1366 55.6715 43.8722Z" fill="#86EAAA"/>
<circle cx="30.3334" cy="45.6667" r="0.733333" fill="white"/>
<circle cx="56.7333" cy="45.6667" r="0.733333" fill="white"/>
<path d="M50.5 44.9333H36.9333L37.6667 46.7667H49.7667L50.5 44.9333Z" fill="white"/>
</g>
<defs>
<clipPath id="clip0_335_3676">
<rect width="41.0667" height="41.0667" fill="white" transform="translate(23 20)"/>
</clipPath>
</defs>
</svg>
