<svg width="17" height="16" viewBox="0 0 17 16" fill="none" xmlns="http://www.w3.org/2000/svg">
<path d="M8.5 14.6668C12.1819 14.6668 15.1667 11.682 15.1667 8.00016C15.1667 4.31826 12.1819 1.3335 8.5 1.3335C5.51488 1.3335 3.01617 3.29542 2.16666 6.00016H3.83333" stroke="#1B4C31" stroke-linecap="round" stroke-linejoin="round"/>
<path d="M8.5 5.3335V8.00016L9.83333 9.3335" stroke="#1B4C31" stroke-linecap="round" stroke-linejoin="round"/>
<path d="M1.83334 8C1.83334 8.22487 1.84347 8.44727 1.8633 8.66667M6.5 14.6667C6.27227 14.5917 6.04981 14.5043 5.83334 14.4052M2.6396 11.3333C2.51104 11.0856 2.39636 10.8289 2.29665 10.5641M3.72082 12.871C3.9246 13.0905 4.14204 13.2961 4.3717 13.4861" stroke="#1B4C31" stroke-linecap="round" stroke-linejoin="round"/>
</svg>
