<svg width="19" height="20" viewBox="0 0 19 20" fill="none" xmlns="http://www.w3.org/2000/svg">
<rect x="2.29175" y="5" width="13.75" height="12.5" rx="2" stroke="#2D4356"/>
<path d="M2.29175 8.33333C2.29175 7.08718 2.29175 6.4641 2.5597 6C2.73523 5.69596 2.98771 5.44349 3.29175 5.26795C3.75585 5 4.37893 5 5.62508 5H12.7084C13.9546 5 14.5776 5 15.0417 5.26795C15.3458 5.44349 15.5983 5.69596 15.7738 6C16.0417 6.4641 16.0417 7.08718 16.0417 8.33333H2.29175Z" fill="#2D4356"/>
<path d="M5.34717 2.5L5.34717 5" stroke="#2D4356" stroke-linecap="round"/>
<path d="M12.9861 2.5L12.9861 5" stroke="#2D4356" stroke-linecap="round"/>
<rect x="5.34717" y="10" width="3.05556" height="1.66667" rx="0.5" fill="#2D4356"/>
<rect x="5.34717" y="13.3335" width="3.05556" height="1.66667" rx="0.5" fill="#2D4356"/>
<rect x="9.93066" y="10" width="3.05556" height="1.66667" rx="0.5" fill="#2D4356"/>
<rect x="9.93066" y="13.3335" width="3.05556" height="1.66667" rx="0.5" fill="#2D4356"/>
</svg>
