<svg width="16" height="16" viewBox="0 0 16 16" fill="none" xmlns="http://www.w3.org/2000/svg">
<path d="M14.6667 8.00016C14.6667 11.682 11.6819 14.6668 8 14.6668C4.3181 14.6668 1.33333 11.682 1.33333 8.00016C1.33333 4.31826 4.3181 1.3335 8 1.3335C11.6819 1.3335 14.6667 4.31826 14.6667 8.00016Z" stroke="#1B4C31"/>
<path d="M9.8068 6.70756C9.74073 6.19912 9.15693 5.37764 8.1072 5.37762C6.88747 5.3776 6.37424 6.05313 6.2701 6.3909C6.10763 6.84269 6.14013 7.77156 7.5698 7.87283C9.35693 7.99949 10.0729 8.21043 9.9818 9.30416C9.89067 10.3978 8.89447 10.6342 8.1072 10.6088C7.31987 10.5835 6.03176 10.2218 5.98177 9.24903M7.98227 4.66553V5.38004M7.98227 10.6022V11.3322" stroke="#1B4C31" stroke-linecap="round"/>
</svg>
