<svg width="52" height="34" viewBox="0 0 52 34" fill="none" xmlns="http://www.w3.org/2000/svg">
<path d="M3.00857 16.2445L9.22381 14.5112L4.94 12.0474L2.77333 14.1397L3.00857 16.2445Z" fill="#2D3134"/>
<path d="M26.8295 28.601L33.0448 26.8676L28.7486 24.4038L26.5819 26.4962L26.8295 28.601Z" fill="#2D3134"/>
<path opacity="0.29" d="M3.00857 16.2445L9.22381 14.5112L4.94 12.0474L2.77333 14.1397L3.00857 16.2445Z" fill="black"/>
<path opacity="0.29" d="M26.8295 28.601L33.0448 26.8676L28.7486 24.4038L26.5819 26.4962L26.8295 28.601Z" fill="black"/>
<path d="M31.3733 26.137C30.5438 25.7161 29.7886 25.6666 29.2314 25.9266L28.0552 26.558C27.461 26.8304 27.0771 27.437 27.0771 28.3285C27.0771 30.0494 28.4762 32.1542 30.1971 33.0085C31.0514 33.4294 31.8191 33.479 32.3886 33.2066C32.3886 33.2066 33.5524 32.5875 33.6762 32.5132C34.1838 32.2161 34.4933 31.6342 34.4933 30.8294C34.4933 29.0961 33.0943 27.0037 31.3733 26.137Z" fill="#2D3134"/>
<path opacity="0.29" d="M32.4257 33.1943C32.6486 33.0829 33.5648 32.5877 33.6762 32.5134C34.1838 32.2162 34.4933 31.6343 34.4933 30.8296C34.4933 30.1362 34.2705 29.381 33.8867 28.6753L32.7105 29.3067C33.0943 30.0124 33.3171 30.7677 33.3171 31.461C33.3295 32.3029 32.9829 32.9096 32.4257 33.1943Z" fill="black"/>
<path d="M33.3295 31.461C33.3295 33.182 31.9305 33.8877 30.2095 33.021C28.4886 32.1544 27.0895 30.062 27.0895 28.341C27.0895 26.6201 28.4886 25.9144 30.2095 26.781C31.9305 27.6353 33.3295 29.7401 33.3295 31.461Z" fill="#2D3134"/>
<path d="M32.6362 31.1143C32.6362 32.4638 31.5467 33.0086 30.1971 32.34C28.8476 31.6715 27.7581 30.0248 27.7581 28.6753C27.7581 27.3258 28.8476 26.781 30.1971 27.4496C31.5467 28.1305 32.6362 29.7648 32.6362 31.1143Z" fill="#E5E5E5"/>
<path d="M31.8067 32.2039C32.1781 31.9934 32.401 31.5848 32.401 31.0029C32.401 30.9534 32.401 30.9039 32.401 30.8667L31.0391 30.6562L31.8067 32.2039Z" fill="#2D3134"/>
<path d="M30.7172 29.5172L32.141 29.8267C31.8438 29.121 31.3114 28.4276 30.6676 27.9819L30.7172 29.5172Z" fill="#2D3134"/>
<path d="M29.6895 29.0096L29.7391 27.5239C29.0952 27.3382 28.5629 27.4867 28.2657 27.8953L29.6895 29.0096Z" fill="#2D3134"/>
<path d="M28.0057 28.6631C28.0057 28.7126 28.0057 28.7497 28.0057 28.7993C28.0057 29.3812 28.2286 30.0126 28.6 30.5945L29.38 29.8269L28.0057 28.6631Z" fill="#2D3134"/>
<path d="M30.1971 30.8296L29.3552 31.5105C29.6152 31.7458 29.9 31.9439 30.1971 32.0924C30.4943 32.241 30.779 32.3277 31.039 32.3401L30.1971 30.8296Z" fill="#2D3134"/>
<path opacity="0.11" d="M33.3295 31.461C33.3295 33.182 31.9305 33.8877 30.2095 33.021C28.4886 32.1544 27.0895 30.062 27.0895 28.341C27.0895 26.6201 28.4886 25.9144 30.2095 26.781C31.9305 27.6353 33.3295 29.7401 33.3295 31.461Z" fill="black"/>
<path d="M7.57714 14.1649C6.74761 13.7439 5.99237 13.6944 5.43523 13.9544L4.25904 14.5858C3.66475 14.8582 3.28094 15.4649 3.28094 16.3563C3.28094 18.0773 4.67999 20.182 6.40094 21.0363C7.25523 21.4573 8.02285 21.5068 8.59237 21.2344C8.59237 21.2344 9.75618 20.6154 9.87999 20.5411C10.3876 20.2439 10.6971 19.662 10.6971 18.8573C10.7095 17.1239 9.31047 15.0315 7.57714 14.1649Z" fill="#2D3134"/>
<path opacity="0.29" d="M8.64189 21.2222C8.86475 21.1107 9.78094 20.6155 9.89237 20.5412C10.4 20.2441 10.7095 19.6622 10.7095 18.8574C10.7095 18.1641 10.4867 17.4088 10.1028 16.7031L8.92665 17.3346C9.31046 18.0403 9.53332 18.7955 9.53332 19.4888C9.53332 20.3307 9.18665 20.925 8.64189 21.2222Z" fill="black"/>
<path d="M9.53332 19.4762C9.53332 21.1971 8.13427 21.9028 6.41332 21.0362C4.69237 20.1695 3.29332 18.0771 3.29332 16.3562C3.29332 14.6352 4.69237 13.9295 6.41332 14.7962C8.13427 15.6628 9.53332 17.7552 9.53332 19.4762Z" fill="#2D3134"/>
<path d="M8.85237 19.1417C8.85237 20.4912 7.76285 21.036 6.41332 20.3674C5.0638 19.6988 3.97427 18.0521 3.97427 16.7026C3.97427 15.3531 5.0638 14.8083 6.41332 15.4769C7.76285 16.1455 8.85237 17.7921 8.85237 19.1417Z" fill="#E5E5E5"/>
<path d="M8.02285 20.219C8.39428 20.0085 8.61714 19.6 8.61714 19.0181C8.61714 18.9685 8.61714 18.919 8.61714 18.8819L7.25523 18.6714L8.02285 20.219Z" fill="#2D3134"/>
<path d="M6.92094 17.5323L8.34475 17.8418C8.0476 17.1361 7.51522 16.4428 6.87141 15.9971L6.92094 17.5323Z" fill="#2D3134"/>
<path d="M5.9057 17.0247L5.95522 15.539C5.31141 15.3533 4.77903 15.5019 4.48189 15.9104L5.9057 17.0247Z" fill="#2D3134"/>
<path d="M4.22189 16.6782C4.22189 16.7277 4.22189 16.7649 4.22189 16.8144C4.22189 17.3963 4.44475 18.0277 4.81618 18.6097L5.59618 17.842L4.22189 16.6782Z" fill="#2D3134"/>
<path d="M6.41332 18.8569L5.57141 19.5379C5.83141 19.7731 6.11617 19.9712 6.41332 20.1198C6.71046 20.2684 6.99522 20.355 7.25522 20.3674L6.41332 18.8569Z" fill="#2D3134"/>
<path opacity="0.11" d="M9.53332 19.4762C9.53332 21.1971 8.13427 21.9028 6.41332 21.0362C4.69237 20.1695 3.29332 18.0771 3.29332 16.3562C3.29332 14.6352 4.69237 13.9295 6.41332 14.7962C8.13427 15.6628 9.53332 17.7552 9.53332 19.4762Z" fill="black"/>
<path d="M49.0286 19.2904C46.639 17.1609 36.3381 9.06373 34.6171 7.78849C32.8962 6.51325 26.6686 2.60087 22.4838 1.52373C18.299 0.446582 17.779 1.07801 16.9248 0.892297C16.0705 0.706582 13.5324 0.112297 9.79333 1.26373C8.19619 1.75896 6.3019 2.30373 4.75428 3.69039C2.69904 5.52277 1.11428 8.37039 0.346663 9.91801L0.185711 10.438C-0.0990508 11.3666 0.0247588 12.3818 0.519997 13.2113C0.940949 13.9171 1.47333 14.7342 1.86952 15.1799C2.21619 15.5637 2.63714 15.9723 2.99619 16.319C2.99619 16.2942 2.99619 16.2571 2.99619 16.2323C2.99619 14.9199 3.76381 14.078 4.95238 14.078C5.42285 14.078 5.93047 14.2142 6.45047 14.4742C8.24571 15.3656 9.69428 17.5571 9.69428 19.3523C9.69428 19.5875 9.66952 19.8104 9.62 20.0209L26.8171 28.6132C26.8048 28.4771 26.7924 28.3409 26.7924 28.2171C26.7924 26.9047 27.56 26.0628 28.7486 26.0628C29.219 26.0628 29.7267 26.199 30.2467 26.459C32.0419 27.3504 33.4905 29.5418 33.4905 31.3371C33.4905 31.5475 33.4657 31.7332 33.4286 31.919L34.8029 32.5999C34.8029 32.5999 37.3781 33.2685 39.0248 33.1199C40.6714 32.9713 44.0638 31.8571 46.7876 30.5075C49.5114 29.158 51.8143 26.7809 51.8638 25.5428C51.8886 25.0723 51.4181 21.4199 49.0286 19.2904Z" fill="#C2F0D5"/>
<path d="M39.4705 12.0475C39.4705 12.0475 39.3219 11.0075 39.4705 10.7351C39.619 10.4751 39.879 10.0665 40.2133 10.3637C40.5476 10.6608 40.919 11.5151 40.5848 12.3075C40.2505 13.0998 39.4705 12.0475 39.4705 12.0475Z" fill="#C2F0D5"/>
<path opacity="0.3" d="M1.70857 7.98682C1.70857 7.98682 9.6819 13.4963 18.8438 18.424C28.0057 23.3516 32.8219 26.1497 32.8219 26.1497L27.1638 21.2963L6.87143 9.46015L1.70857 7.98682Z" fill="white"/>
<path d="M7.06952 9.58352L27.1514 21.3083C27.1514 21.3083 25.2076 12.7654 18.3486 9.32352C11.4895 5.88161 7.06952 9.58352 7.06952 9.58352Z" fill="#2D3134"/>
<path d="M15.439 3.24463C18.1133 1.98177 20.2924 1.59796 20.2924 1.33796C20.2924 1.07796 13.4209 0.743679 9.17428 2.8732C4.92761 5.00273 5.13809 6.83511 6.74761 6.63701C8.35713 6.43892 10.5114 6.26558 11.1924 5.9313C11.8733 5.59701 13.1609 4.32177 15.439 3.24463Z" fill="#2D3134"/>
<path d="M6.67332 6.35221C6.51237 6.35221 6.12856 6.31507 6.06666 6.0303C5.96761 5.60935 6.53713 4.43316 9.4219 2.99697C12.579 1.42459 17.0238 1.30078 18.3114 1.30078C18.9676 1.30078 19.4628 1.32554 19.7971 1.36269C19.6238 1.42459 19.4381 1.4865 19.24 1.5484C18.3486 1.83316 16.999 2.2665 15.5009 2.98459C13.9781 3.70269 12.8638 4.53221 12.1333 5.06459C11.7495 5.33697 11.4524 5.55983 11.2419 5.67126C10.7219 5.93126 9.11237 6.10459 7.70094 6.26554C7.41618 6.30269 7.13142 6.32745 6.87142 6.35221C6.79713 6.35221 6.73523 6.35221 6.67332 6.35221Z" fill="#656565"/>
<path d="M24.6876 12.9143C24.44 13.5952 28.4143 20.3057 29.6524 20.64C30.8781 20.9743 34.58 20.8628 38.2324 18.8448C41.8848 16.8267 42.5657 15.2667 42.38 14.6971C42.1943 14.14 35.1743 8.23428 34.0229 8.12285C32.8714 8.01142 24.9848 12.0848 24.6876 12.9143Z" fill="#2D3134"/>
<path opacity="0.2" d="M34.4314 27.4617C34.4314 27.4617 34.9514 26.7683 36.3505 26.6074C37.7495 26.4588 39.4581 26.595 40.7333 27.7341C41.6867 28.5883 42.0333 28.9474 42.0333 28.9474C42.0333 28.9474 39.3343 29.8264 37.9971 29.6407C36.6724 29.455 34.4314 27.4617 34.4314 27.4617Z" fill="white"/>
<path d="M34.6914 27.2266C34.6914 27.2266 35.1743 26.5828 36.4619 26.4466C37.7495 26.3104 39.3343 26.4342 40.5105 27.4866C41.3895 28.2666 41.7114 28.6009 41.7114 28.6009C41.7114 28.6009 39.2228 29.418 37.9848 29.2447C36.7467 29.0714 34.6914 27.2266 34.6914 27.2266Z" fill="#E5E5E5"/>
<path opacity="0.2" d="M49.4495 25.0354C49.4495 25.0354 51.3314 23.2773 51.2324 22.782C51.1333 22.2744 49.6848 19.7735 49.499 20.1449C49.3133 20.5163 48.9171 21.1106 49.0657 21.6182C49.2143 22.1258 49.4867 24.5896 49.4495 25.0354Z" fill="white"/>
<path d="M49.4371 24.6887C49.4371 24.6887 51.2076 22.9306 51.121 22.4353C51.0219 21.9277 49.5733 19.4268 49.3876 19.7982C49.2019 20.1696 48.8057 20.7639 48.9543 21.2715C49.1029 21.7668 49.4743 24.2306 49.4371 24.6887Z" fill="#E5E5E5"/>
<path d="M38.22 32.1045L38.1581 32.6492C38.1581 32.6492 43.6924 31.9435 47.1714 29.8016C50.6381 27.6597 51.48 25.9883 51.48 25.9883C51.48 25.9883 48.8057 28.8854 45.5371 30.2226C42.1076 31.6092 38.22 32.1045 38.22 32.1045Z" fill="#2D3134"/>
<path d="M41.5876 14.239C40.9562 13.6323 39.7552 12.5676 38.2324 11.3419C35.7562 9.33615 34.3076 8.40757 33.9609 8.38281H33.9486C33.4409 8.38281 31.4228 9.22472 29.1695 10.3885C26.5819 11.7133 25.1952 12.6542 24.9971 12.939C25.0219 13.2857 25.7028 14.759 26.9657 16.7895C28.3647 19.0304 29.38 20.1447 29.7143 20.2438C29.9 20.2933 30.1352 20.3304 30.4076 20.3552C32.0419 20.1076 34.8647 19.4761 37.6133 17.8542C39.9409 16.48 41.0552 15.1552 41.5876 14.239Z" fill="#656565"/>
<path d="M8.76571 9.11304L8.50571 9.89304L16.2314 14.3997L17.4695 9.42257L17.4324 9.37304C15.7981 8.65495 14.1886 8.2959 12.6162 8.2959C10.9695 8.30828 9.65714 8.71685 8.76571 9.11304Z" fill="#656565"/>
<path d="M25.0467 19.5504L25.3562 17.6561C25.22 17.3713 25.0838 17.0866 24.9228 16.7894C23.759 14.5856 21.7038 11.6266 18.4476 9.88086L17.68 15.2418L25.0467 19.5504Z" fill="#656565"/>
<path opacity="0.2" d="M10.0533 12.9268C10.0533 13.2859 9.75619 13.4344 9.39714 13.2611C9.03809 13.0754 8.74095 12.642 8.74095 12.2706C8.74095 11.8992 9.03809 11.763 9.39714 11.9363C9.75619 12.122 10.0533 12.5554 10.0533 12.9268Z" fill="black"/>
<path d="M8.34476 11.8125L8.06 12.1344C8.06 12.1344 10.1276 13.4839 10.3133 13.2115C10.5114 12.9515 8.34476 11.8125 8.34476 11.8125Z" fill="#C2F0D5"/>
<path opacity="0.2" d="M18.8686 17.9407C18.8686 18.2998 18.5714 18.4484 18.2124 18.275C17.8533 18.0893 17.5562 17.656 17.5562 17.2846C17.5562 16.9255 17.8533 16.7769 18.2124 16.9503C18.5714 17.136 18.8686 17.5693 18.8686 17.9407Z" fill="#C2F0D5"/>
<path d="M17.16 16.814L16.8752 17.1359C16.8752 17.1359 18.9428 18.4854 19.1286 18.213C19.3267 17.953 17.16 16.814 17.16 16.814Z" fill="#C2F0D5"/>
<path opacity="0.2" d="M27.1019 21.2963C27.1019 21.3086 26.879 22.1629 26.6933 23.2029C26.52 24.1439 26.421 27.2639 26.3962 27.821L16.541 22.8315C16.5286 22.6334 16.3924 20.7886 16.3924 19.1048C16.3924 17.3343 16.8381 15.3658 16.8381 15.3534L16.7267 15.3286C16.7267 15.3534 16.281 17.3343 16.281 19.1048C16.281 20.6648 16.3924 22.3734 16.4295 22.7696L11.5267 20.2934C11.4152 20.1448 10.2267 18.5229 9.06286 16.0591C7.86191 13.521 8.14667 10.302 8.15905 10.2648L8.04762 10.2524C8.04762 10.2896 7.75048 13.5334 8.96381 16.1086C10.1895 18.6839 11.44 20.3553 11.4524 20.3677L11.4648 20.3801L26.4952 28.0067V27.9201C26.4952 27.8829 26.6067 24.2553 26.7924 23.2277C26.9781 22.2001 27.201 21.3334 27.201 21.3334L27.1019 21.2963Z" fill="black"/>
<path opacity="0.3" d="M38.8886 27.3628C38.8886 27.8085 38.5295 28.3409 38.0838 28.5637C37.6381 28.7866 37.2791 28.6009 37.2791 28.1676C37.2791 27.7218 37.6381 27.1895 38.0838 26.9666C38.5295 26.7437 38.8886 26.9171 38.8886 27.3628Z" fill="black"/>
<path opacity="0.3" d="M40.1267 27.6848C40.1267 27.9943 39.879 28.3658 39.5695 28.5267C39.26 28.6753 39.0124 28.5515 39.0124 28.242C39.0124 27.9324 39.26 27.561 39.5695 27.4001C39.879 27.2515 40.1267 27.3753 40.1267 27.6848Z" fill="black"/>
<path d="M37.1057 28.0932C37.1057 28.2542 36.9695 28.4647 36.8086 28.5389C36.6476 28.6256 36.5114 28.5513 36.5114 28.3904C36.5114 28.2294 36.6476 28.0189 36.8086 27.9447C36.9695 27.858 37.1057 27.9199 37.1057 28.0932Z" fill="white"/>
<path opacity="0.4" d="M38.5543 27.6973C38.5543 27.9201 38.3686 28.1925 38.1581 28.3039C37.9352 28.4154 37.7619 28.3287 37.7619 28.1058C37.7619 27.883 37.9476 27.6106 38.1581 27.4992C38.3686 27.3877 38.5543 27.4744 38.5543 27.6973Z" fill="white"/>
<path opacity="0.4" d="M39.9162 27.9073C39.9162 28.0683 39.78 28.2788 39.619 28.3531C39.4581 28.4397 39.3219 28.3654 39.3219 28.2045C39.3219 28.0435 39.4581 27.8331 39.619 27.7588C39.78 27.6721 39.9162 27.7464 39.9162 27.9073Z" fill="white"/>
<path d="M36.66 27.0905C36.66 27.2514 36.5238 27.4619 36.3629 27.5362C36.2019 27.6228 36.0657 27.5485 36.0657 27.3876C36.0657 27.2266 36.2019 27.0162 36.3629 26.9419C36.5238 26.8552 36.66 26.9295 36.66 27.0905Z" fill="white"/>
<path d="M49.8952 20.5781C49.8952 20.739 49.759 20.9495 49.5981 21.0238C49.4371 21.1105 49.3009 21.0362 49.3009 20.8752C49.3009 20.7143 49.4371 20.5038 49.5981 20.4295C49.759 20.3429 49.8952 20.4048 49.8952 20.5781Z" fill="white"/>
<path d="M50.4524 21.358C50.4524 21.519 50.3162 21.7295 50.1552 21.8037C49.9943 21.8904 49.8581 21.8161 49.8581 21.6552C49.8581 21.4942 49.9943 21.2837 50.1552 21.2095C50.3162 21.1228 50.4524 21.1971 50.4524 21.358Z" fill="white"/>
<path opacity="0.3" d="M50.6257 21.8782C50.6257 22.262 50.3162 22.7201 49.9324 22.9059C49.5486 23.0916 49.239 22.943 49.239 22.5592C49.239 22.1754 49.5486 21.7173 49.9324 21.5316C50.3162 21.3459 50.6257 21.5068 50.6257 21.8782Z" fill="black"/>
<path opacity="0.4" d="M50.2171 22.2864C50.2171 22.4844 50.0562 22.7197 49.8705 22.8187C49.6724 22.9178 49.5238 22.8311 49.5238 22.6454C49.5238 22.4597 49.6848 22.2121 49.8705 22.113C50.0562 22.014 50.2171 22.0883 50.2171 22.2864Z" fill="white"/>
<path opacity="0.3" d="M50.0686 22.9182C50.0686 22.6087 49.8209 22.4849 49.5114 22.6335C49.4124 22.683 49.3257 22.7449 49.2514 22.8316C49.3009 23.1658 49.3505 23.5125 49.3876 23.8097C49.4248 23.7973 49.4743 23.7849 49.5238 23.7601C49.8209 23.6116 50.0686 23.2277 50.0686 22.9182Z" fill="black"/>
<path opacity="0.3" d="M34.6914 27.2142C35.2981 27.1647 37.0067 27.078 38.0838 27.338C39.1609 27.598 41.0305 28.3161 41.699 28.5885C41.6248 28.5142 41.2781 28.1675 40.5105 27.4866C39.3343 26.4342 37.7495 26.3104 36.4619 26.4466C35.2857 26.5704 34.7781 27.1152 34.6914 27.2142Z" fill="black"/>
<path d="M24.3533 18.2876C24.3533 18.2876 25.2819 18.7333 25.7029 19.2905C26.1114 19.8476 26.1114 20.1447 26.1114 20.1447C26.1114 20.1447 23.5362 20.7019 22.261 19.8847C20.9114 19.0057 24.3533 18.2876 24.3533 18.2876Z" fill="#38C274"/>
<path d="M31.1257 20.4416L31.5962 20.4045L35.9295 18.2997L36.1648 17.8664L38.8019 16.6407L38.6905 16.4302L33.6514 18.6711L33.8 18.8568L35.7562 17.9902L35.6448 18.114L31.4105 20.1445L31.1257 20.4416Z" fill="#2D3134"/>
<path d="M35.7067 19.2779H36.1152L39.5695 16.7151L39.9905 15.7246L41.3152 14.0408L41.2286 13.917L38.74 16.7522L38.839 16.9008L39.5076 16.3065L39.3219 16.6408L35.8181 19.0675L35.7067 19.2779Z" fill="#2D3134"/>
<path d="M40.9314 27.4494L42.3676 28.737C42.3676 28.737 44.4476 28.3408 46.3048 27.3875C48.1619 26.4342 49.2762 25.1466 49.2762 25.1466L49.1276 23.2646C49.1276 23.2646 48.2857 24.7875 45.859 25.9885C43.7048 27.0656 40.9314 27.4494 40.9314 27.4494Z" fill="#2D3134"/>
<path opacity="0.29" d="M46.7009 30.1733C49.4124 28.8113 51.7276 26.5085 51.7771 25.2704C51.7895 25.0599 51.8019 24.7133 51.5047 23.7352C51.48 23.6485 51.3686 23.6361 51.319 23.7104C50.3657 25.0723 48.7438 26.8428 46.2181 28.0561C43.5933 29.319 40.3743 30.3961 37.8981 30.2723C37.3162 30.2475 37.2171 30.8294 37.1676 31.7456C37.1428 32.3399 37.6381 32.8352 38.2324 32.7733C40.3619 32.5628 43.779 31.6342 46.7009 30.1733Z" fill="black"/>
<path opacity="0.11" d="M35.0629 28.5512C34.1962 27.5731 29.2438 22.3731 27.9562 20.3427C26.2724 17.7055 23.5238 11.255 18.46 8.84075C13.3838 6.42646 7.63905 7.45408 5.90571 7.57789C4.85333 7.6398 3.21905 7.25599 2.08 6.93408C1.33714 8.06075 0.755238 9.15027 0.371428 9.93027L0.210476 10.4503C-0.0742858 11.3788 0.0495238 12.3941 0.544762 13.2236C0.965714 13.9293 1.49809 14.7465 1.89429 15.1922C2.24095 15.576 2.6619 15.9846 3.02095 16.3312C3.02095 16.3065 3.02095 16.2693 3.02095 16.2446C3.02095 14.9322 3.78857 14.0903 4.97714 14.0903C5.44762 14.0903 5.95524 14.2265 6.47524 14.4865C8.27048 15.3779 9.71905 17.5693 9.71905 19.3646C9.71905 19.5998 9.69429 19.8227 9.64476 20.0331L26.8419 28.6255C26.8295 28.4893 26.8171 28.3531 26.8171 28.2293C26.8171 26.9169 27.5848 26.075 28.7733 26.075C29.2438 26.075 29.7514 26.2112 30.2714 26.4712C32.0667 27.3627 33.5152 29.5541 33.5152 31.3493C33.5152 31.5598 33.4905 31.7455 33.4533 31.9312L34.8276 32.6122C34.8276 32.6122 35.5457 32.7979 36.4619 32.9588C36.239 31.1388 35.781 29.3684 35.0629 28.5512Z" fill="black"/>
<path d="M0.544754 10.3143C0.544754 10.3143 1.32475 8.32096 1.75809 7.70192C2.19142 7.08287 2.67428 6.52573 2.67428 6.52573L2.53809 6.1543C2.53809 6.1543 1.6219 6.4762 1.46094 6.74858C1.28761 7.03334 0.359039 9.91811 0.359039 9.91811L0.544754 10.3143Z" fill="#C2F0D5"/>
<path opacity="0.2" d="M41.3524 14.5981C41.439 14.4742 41.5133 14.3504 41.5752 14.239C40.9438 13.6323 39.7429 12.5676 38.22 11.3419C35.7438 9.33615 34.2952 8.40757 33.9486 8.38281H33.9362C33.4286 8.38281 31.4105 9.22472 29.1571 10.3885C26.5695 11.7133 25.1829 12.6542 24.9848 12.939C24.9971 13.0504 25.0714 13.2981 25.22 13.6323C30.5067 11.9238 36.2886 12.2581 41.3524 14.5981Z" fill="black"/>
<path d="M44.9924 29.4674V31.275L48.2486 29.6531V27.8579L44.9924 29.4674Z" fill="#E5E5E5"/>
<path opacity="0.2" d="M49.4371 24.6887C49.4371 24.6887 51.2076 22.9306 51.121 22.4353C51.0219 21.9277 49.5733 19.4268 49.3876 19.7982C49.2019 20.1696 48.8057 20.7639 48.9543 21.2715C49.1029 21.7668 49.4743 24.2306 49.4371 24.6887Z" fill="black"/>
<path d="M24.861 13.4592C24.4648 12.4811 21.7162 9.36108 18.6705 7.86299C14.8324 5.98108 11.4895 5.98108 10.8086 6.08013L10.7838 5.91918C11.4771 5.82013 14.8695 5.82013 18.7448 7.71442C20.0943 8.37061 21.5552 9.44775 22.88 10.7354C23.9324 11.7506 24.7867 12.8277 25.0219 13.3973L24.861 13.4592Z" fill="#2D3134"/>
<path d="M34.679 8.64293L34.6667 8.63054C33.4286 7.72673 30.1229 5.32483 27.0771 3.83912C23.2514 1.96959 20.2676 1.38769 19.6114 1.38769V1.21436C20.28 1.21436 23.3009 1.79626 27.1514 3.69055C30.2095 5.18864 33.5152 7.59055 34.7657 8.49436L34.7781 8.50673L34.679 8.64293Z" fill="#2D3134"/>
</svg>
