<svg width="18" height="18" viewBox="0 0 18 18" fill="none" xmlns="http://www.w3.org/2000/svg">
<mask id="mask0_543_4696" style="mask-type:alpha" maskUnits="userSpaceOnUse" x="0" y="0" width="18" height="18">
<rect width="18" height="18" fill="#D9D9D9"/>
</mask>
<g mask="url(#mask0_543_4696)">
<ellipse cx="8.8262" cy="10.0514" rx="3.4879" ry="3.4879" fill="#FDBD1F"/>
<path d="M3.52282 6.07505C4.63422 2.66992 7.72268 1.12467 8.79663 1.00644C11.3091 0.799527 14.3832 5.61756 14.1763 10.1991C13.9694 14.7807 10.2895 16.6481 6.90617 15.8022C3.59826 14.9753 2.13357 10.3315 3.52282 6.07505Z" stroke="#2D4356"/>
<path d="M8.99349 2.69165C8.74716 2.79018 8.15402 3.08182 7.75203 3.46017" stroke="#2D4356" stroke-linecap="round"/>
<path d="M6.90619 4.38342C6.43326 4.86621 5.42733 5.52345 5.21451 7.03684" stroke="#2D4356" stroke-linecap="round"/>
<path d="M8.40103 7.68665C7.71133 8.00194 6.52111 9.17048 7.27781 11.3223" stroke="white" stroke-linecap="round"/>
</g>
</svg>
