<svg width="88" height="88" viewBox="0 0 88 88" fill="none" xmlns="http://www.w3.org/2000/svg">
<circle opacity="0.05" cx="44" cy="44" r="44" fill="#0B82E6"/>
<path d="M15.1804 21.1461C15.4139 21.1461 15.6421 21.0769 15.8362 20.9472C16.0303 20.8175 16.1816 20.6332 16.2709 20.4175C16.3603 20.2018 16.3837 19.9644 16.3381 19.7355C16.2926 19.5065 16.1801 19.2962 16.0151 19.1311C15.85 18.966 15.6397 18.8536 15.4107 18.808C15.1817 18.7625 14.9444 18.7859 14.7287 18.8752C14.513 18.9645 14.3286 19.1158 14.1989 19.31C14.0692 19.5041 14 19.7323 14 19.9657C14.0004 20.2787 14.1248 20.5787 14.3461 20.8C14.5674 21.0213 14.8674 21.1458 15.1804 21.1461ZM15.1804 19.3755C15.2971 19.3755 15.4112 19.4102 15.5083 19.475C15.6053 19.5399 15.681 19.632 15.7257 19.7399C15.7703 19.8477 15.782 19.9664 15.7593 20.0809C15.7365 20.1954 15.6803 20.3005 15.5977 20.3831C15.5152 20.4656 15.41 20.5218 15.2955 20.5446C15.1811 20.5674 15.0624 20.5557 14.9545 20.511C14.8467 20.4663 14.7545 20.3907 14.6897 20.2936C14.6248 20.1966 14.5902 20.0825 14.5902 19.9657C14.5904 19.8093 14.6526 19.6592 14.7632 19.5486C14.8739 19.4379 15.0239 19.3757 15.1804 19.3755ZM73.2595 40.5055C73.1039 40.5055 72.9518 40.5516 72.8224 40.6381C72.6929 40.7245 72.5921 40.8474 72.5325 40.9912C72.473 41.135 72.4574 41.2933 72.4877 41.4459C72.5181 41.5986 72.5931 41.7388 72.7031 41.8488C72.8132 41.9589 72.9534 42.0338 73.106 42.0642C73.2587 42.0946 73.4169 42.079 73.5607 42.0194C73.7045 41.9599 73.8274 41.859 73.9139 41.7296C74.0003 41.6002 74.0465 41.448 74.0465 41.2924C74.0462 41.0838 73.9633 40.8837 73.8157 40.7362C73.6682 40.5887 73.4682 40.5057 73.2595 40.5055ZM73.2595 41.6859C73.1817 41.6859 73.1057 41.6628 73.041 41.6195C72.9763 41.5763 72.9258 41.5149 72.896 41.443C72.8663 41.3711 72.8585 41.292 72.8736 41.2156C72.8888 41.1393 72.9263 41.0692 72.9813 41.0142C73.0364 40.9591 73.1065 40.9217 73.1828 40.9065C73.2591 40.8913 73.3382 40.8991 73.4101 40.9289C73.482 40.9587 73.5435 41.0091 73.5867 41.0738C73.6299 41.1385 73.653 41.2146 73.653 41.2924C73.6529 41.3967 73.6114 41.4967 73.5377 41.5705C73.4639 41.6443 73.3639 41.6857 73.2595 41.6859ZM60.5487 30.2754C60.393 30.2754 60.2409 30.3215 60.1115 30.408C59.9821 30.4945 59.8812 30.6174 59.8216 30.7612C59.7621 30.9049 59.7465 31.0632 59.7768 31.2158C59.8072 31.3685 59.8822 31.5087 59.9922 31.6187C60.1023 31.7288 60.2425 31.8037 60.3951 31.8341C60.5478 31.8645 60.706 31.8489 60.8498 31.7893C60.9936 31.7298 61.1165 31.6289 61.203 31.4995C61.2894 31.3701 61.3356 31.2179 61.3356 31.0623C61.3353 30.8537 61.2524 30.6536 61.1048 30.5061C60.9573 30.3586 60.7573 30.2756 60.5487 30.2754ZM60.5487 31.4558C60.4708 31.4558 60.3948 31.4327 60.3301 31.3894C60.2654 31.3462 60.2149 31.2848 60.1851 31.2129C60.1554 31.141 60.1476 31.0619 60.1628 30.9855C60.1779 30.9092 60.2154 30.8391 60.2704 30.7841C60.3255 30.729 60.3956 30.6916 60.4719 30.6764C60.5482 30.6612 60.6273 30.669 60.6992 30.6988C60.7711 30.7286 60.8326 30.779 60.8758 30.8437C60.919 30.9084 60.9421 30.9845 60.9421 31.0623C60.942 31.1666 60.9005 31.2666 60.8268 31.3404C60.753 31.4142 60.653 31.4557 60.5487 31.4558ZM73.2595 17.291C73.1039 17.291 72.9518 17.3372 72.8224 17.4236C72.6929 17.5101 72.5921 17.633 72.5325 17.7768C72.473 17.9206 72.4574 18.0788 72.4877 18.2315C72.5181 18.3841 72.5931 18.5243 72.7031 18.6344C72.8132 18.7444 72.9534 18.8194 73.106 18.8498C73.2587 18.8801 73.4169 18.8645 73.5607 18.805C73.7045 18.7454 73.8274 18.6446 73.9139 18.5151C74.0003 18.3857 74.0465 18.2336 74.0465 18.0779C74.0462 17.8693 73.9633 17.6693 73.8157 17.5218C73.6682 17.3742 73.4682 17.2913 73.2595 17.291ZM73.2595 18.4714C73.1817 18.4714 73.1057 18.4483 73.041 18.4051C72.9763 18.3619 72.9258 18.3004 72.896 18.2285C72.8663 18.1566 72.8585 18.0775 72.8736 18.0012C72.8888 17.9249 72.9263 17.8548 72.9813 17.7997C73.0364 17.7447 73.1065 17.7072 73.1828 17.692C73.2591 17.6769 73.3382 17.6847 73.4101 17.7144C73.482 17.7442 73.5435 17.7946 73.5867 17.8593C73.6299 17.9241 73.653 18.0001 73.653 18.0779C73.6529 18.1823 73.6114 18.2823 73.5377 18.3561C73.4639 18.4298 73.3639 18.4713 73.2595 18.4714ZM25.794 28.7015C25.794 28.5459 25.7479 28.3937 25.6614 28.2643C25.5749 28.1349 25.452 28.034 25.3082 27.9745C25.1644 27.9149 25.0062 27.8993 24.8536 27.9297C24.7009 27.9601 24.5607 28.035 24.4506 28.1451C24.3406 28.2551 24.2656 28.3953 24.2353 28.548C24.2049 28.7006 24.2205 28.8589 24.28 29.0026C24.3396 29.1464 24.4405 29.2693 24.5699 29.3558C24.6993 29.4423 24.8514 29.4884 25.0071 29.4884C25.2157 29.4882 25.4157 29.4052 25.5633 29.2577C25.7108 29.1102 25.7938 28.9101 25.794 28.7015ZM24.6136 28.7015C24.6136 28.6237 24.6367 28.5476 24.6799 28.4829C24.7232 28.4182 24.7846 28.3678 24.8565 28.338C24.9284 28.3082 25.0075 28.3004 25.0838 28.3156C25.1602 28.3308 25.2303 28.3683 25.2853 28.4233C25.3403 28.4783 25.3778 28.5484 25.393 28.6247C25.4082 28.7011 25.4004 28.7802 25.3706 28.8521C25.3408 28.924 25.2904 28.9854 25.2257 29.0287C25.161 29.0719 25.0849 29.095 25.0071 29.095C24.9028 29.0949 24.8027 29.0534 24.729 28.9796C24.6552 28.9058 24.6137 28.8058 24.6136 28.7015Z" fill="#6C7B88"/>
<path d="M15.2563 38.4762L15.8414 37.7066L15.472 37.4973L15.0962 38.3589H15.084L14.7023 37.5036L14.3266 37.7188L14.9054 38.4699V38.4825L14 38.3652V38.7839L14.9113 38.667V38.6792L14.3266 39.4303L14.6772 39.6519L15.0777 38.7839H15.0899L15.4594 39.6456L15.8473 39.4241L15.2563 38.6855V38.6729L16.1857 38.7839V38.3652L15.2563 38.4884V38.4762Z" fill="#86EAAA"/>
<path d="M38.8477 12.7599L38.5109 13.1923L38.7132 13.3198L38.9437 12.8201H38.9508L39.1633 13.3163L39.3868 13.1888L39.0464 12.7631V12.756L39.5815 12.8201V12.5789L39.0464 12.6497V12.6427L39.3832 12.1996L39.1708 12.0792L38.9544 12.5754H38.9473L38.7277 12.0824L38.5109 12.2067L38.8446 12.6391V12.6462L38.3232 12.5789V12.8201L38.8477 12.7528V12.7599Z" fill="#86EAAA"/>
<path d="M72.0795 30.0961V29.6854L71.1679 29.8061V29.7943L71.7416 29.0393L71.3792 28.8343L71.0109 29.6795H70.9987L70.6245 28.8402L70.2558 29.0515L70.8236 29.7884V29.8002L69.9355 29.6854V30.0961L70.8295 29.9816V29.9934L70.2558 30.73L70.6001 30.9476L70.9928 30.0961H71.0046L71.367 30.9413L71.7475 30.7241L71.1679 29.9993V29.9875L72.0795 30.0961Z" fill="#86EAAA"/>
<path d="M50.9307 19.9403L51.4257 19.2891L51.1132 19.1121L50.7953 19.8412H50.7851L50.4621 19.1172L50.1441 19.2997L50.634 19.9352V19.9454L49.8679 19.8467V20.2008L50.6391 20.102V20.1122L50.1441 20.7477L50.4408 20.9354L50.78 20.2008H50.7898L51.1026 20.9299L51.4308 20.7426L50.9307 20.1174V20.1071L51.7172 20.2008V19.8467L50.9307 19.9505V19.9403Z" fill="#86EAAA"/>
<path d="M44.4446 29.9305C41.574 29.9305 38.7679 30.7818 36.3811 32.3766C33.9943 33.9714 32.134 36.2381 31.0355 38.8902C29.937 41.5423 29.6495 44.4605 30.2096 47.276C30.7696 50.0914 32.1519 52.6775 34.1817 54.7073C36.2115 56.7371 38.7976 58.1194 41.613 58.6794C44.4285 59.2395 47.3467 58.952 49.9988 57.8535C52.6509 56.755 54.9176 54.8947 56.5124 52.5079C58.1072 50.1211 58.9585 47.315 58.9585 44.4444C58.9542 40.5964 57.4237 36.9072 54.7027 34.1863C51.9818 31.4653 48.2926 29.9348 44.4446 29.9305ZM44.4446 57.4305C41.8762 57.4305 39.3654 56.6689 37.2299 55.242C35.0943 53.8151 33.4298 51.7869 32.447 49.414C31.4641 47.0411 31.2069 44.43 31.708 41.911C32.209 39.3919 33.4459 37.078 35.262 35.2619C37.0781 33.4457 39.392 32.2089 41.9111 31.7078C44.4302 31.2068 47.0412 31.4639 49.4141 32.4468C51.787 33.4297 53.8152 35.0942 55.2421 37.2297C56.6691 39.3653 57.4307 41.876 57.4307 44.4444C57.4268 47.8874 56.0574 51.1882 53.6229 53.6228C51.1884 56.0573 47.8875 57.4267 44.4446 57.4305Z" fill="#2D4356"/>
<path d="M29.9306 36.0417V28.4028H28.4028V35.2778H27.6389V28.4028H26.1112V35.2778H25.3473V28.4028H23.8195V35.2778H23.0556V28.4028H21.5278V39.8611C21.5284 40.335 21.6755 40.797 21.9491 41.1839C22.2226 41.5708 22.6091 41.8636 23.0556 42.0222V59.7222C23.0556 60.33 23.2971 60.9129 23.7268 61.3427C24.1566 61.7725 24.7395 62.0139 25.3473 62.0139H26.1112C26.719 62.0139 27.3018 61.7725 27.7316 61.3427C28.1614 60.9129 28.4028 60.33 28.4028 59.7222V42.0222C28.8493 41.8636 29.2358 41.5708 29.5094 41.1839C29.7829 40.797 29.93 40.335 29.9306 39.8611V36.0417ZM28.4028 39.8611C28.4028 40.0637 28.3224 40.258 28.1791 40.4013C28.0358 40.5445 27.8415 40.625 27.6389 40.625C27.4363 40.625 27.242 40.7055 27.0988 40.8488C26.9555 40.992 26.8751 41.1863 26.8751 41.3889V59.7222C26.8751 59.9248 26.7946 60.1191 26.6513 60.2624C26.5081 60.4057 26.3138 60.4861 26.1112 60.4861H25.3473C25.1447 60.4861 24.9504 60.4057 24.8071 60.2624C24.6639 60.1191 24.5834 59.9248 24.5834 59.7222V41.3889C24.5834 41.1863 24.5029 40.992 24.3596 40.8488C24.2164 40.7055 24.0221 40.625 23.8195 40.625C23.6169 40.625 23.4226 40.5445 23.2793 40.4013C23.1361 40.258 23.0556 40.0637 23.0556 39.8611V36.8056H28.4028V39.8611ZM66.5973 27.6389C64.7745 27.6409 63.027 28.3659 61.7382 29.6548C60.4493 30.9437 59.7243 32.6912 59.7223 34.5139V44.4445C59.7223 45.0523 59.9637 45.6352 60.3935 46.0649C60.8233 46.4947 61.4062 46.7361 62.0139 46.7361V61.25C62.0139 61.4526 62.0944 61.6469 62.2377 61.7902C62.3809 61.9334 62.5752 62.0139 62.7778 62.0139H66.5973C66.7999 62.0139 66.9942 61.9334 67.1374 61.7902C67.2807 61.6469 67.3612 61.4526 67.3612 61.25V28.4028C67.3612 28.2002 67.2807 28.0059 67.1374 27.8627C66.9942 27.7194 66.7999 27.6389 66.5973 27.6389ZM65.8334 60.4861H63.5417V45.9722C63.5417 45.7697 63.4612 45.5754 63.318 45.4321C63.1747 45.2888 62.9804 45.2084 62.7778 45.2084H62.0139C61.8113 45.2084 61.6171 45.1279 61.4738 44.9846C61.3305 44.8414 61.2501 44.6471 61.2501 44.4445V34.5139C61.2517 33.2285 61.7155 31.9865 62.557 31.0147C63.3985 30.043 64.5614 29.4063 65.8334 29.2209V60.4861Z" fill="#2D4356"/>
<path d="M63.5417 32.2222H62.0139V43.6806H63.5417V32.2222Z" fill="#2D4356"/>
<path d="M44.4446 36.8055C42.9337 36.8055 41.4568 37.2536 40.2006 38.0929C38.9444 38.9323 37.9653 40.1253 37.3871 41.5212C36.809 42.917 36.6577 44.4529 36.9524 45.9347C37.2472 47.4165 37.9747 48.7776 39.043 49.8459C40.1114 50.9143 41.4725 51.6418 42.9543 51.9365C44.4361 52.2313 45.972 52.08 47.3678 51.5018C48.7637 50.9237 49.9567 49.9446 50.7961 48.6884C51.6354 47.4322 52.0834 45.9553 52.0834 44.4444C52.0812 42.4192 51.2757 40.4775 49.8436 39.0454C48.4115 37.6133 46.4698 36.8078 44.4446 36.8055ZM44.4446 50.5555C43.2359 50.5555 42.0544 50.1971 41.0494 49.5256C40.0444 48.8541 39.2612 47.8997 38.7986 46.7831C38.3361 45.6664 38.2151 44.4377 38.4509 43.2522C38.6867 42.0668 39.2687 40.9779 40.1233 40.1232C40.978 39.2686 42.0669 38.6865 43.2523 38.4507C44.4378 38.2149 45.6665 38.336 46.7832 38.7985C47.8998 39.261 48.8543 40.0443 49.5258 41.0493C50.1973 42.0542 50.5557 43.2358 50.5557 44.4444C50.5539 46.0646 49.9094 47.618 48.7638 48.7636C47.6181 49.9093 46.0648 50.5537 44.4446 50.5555Z" fill="#86EAAA"/>
</svg>
