<svg width="88" height="88" viewBox="0 0 88 88" fill="none" xmlns="http://www.w3.org/2000/svg">
<path d="M15.1806 21.146C15.4141 21.146 15.6423 21.0767 15.8364 20.947C16.0305 20.8173 16.1818 20.633 16.2712 20.4173C16.3605 20.2016 16.3839 19.9643 16.3384 19.7353C16.2928 19.5063 16.1804 19.296 16.0153 19.1309C15.8502 18.9658 15.6399 18.8534 15.4109 18.8078C15.1819 18.7623 14.9446 18.7857 14.7289 18.875C14.5132 18.9644 14.3289 19.1157 14.1992 19.3098C14.0695 19.5039 14.0002 19.7321 14.0002 19.9656C14.0006 20.2785 14.1251 20.5785 14.3464 20.7998C14.5677 21.0211 14.8677 21.1456 15.1806 21.146ZM15.1806 19.3754C15.2974 19.3754 15.4115 19.41 15.5085 19.4748C15.6056 19.5397 15.6812 19.6319 15.7259 19.7397C15.7706 19.8475 15.7823 19.9662 15.7595 20.0807C15.7367 20.1952 15.6805 20.3004 15.598 20.3829C15.5154 20.4654 15.4103 20.5216 15.2958 20.5444C15.1813 20.5672 15.0626 20.5555 14.9548 20.5108C14.8469 20.4662 14.7548 20.3905 14.6899 20.2935C14.6251 20.1964 14.5904 20.0823 14.5904 19.9656C14.5906 19.8091 14.6528 19.659 14.7635 19.5484C14.8741 19.4377 15.0242 19.3755 15.1806 19.3754ZM73.2598 40.5053C73.1042 40.5053 72.952 40.5514 72.8226 40.6379C72.6932 40.7244 72.5923 40.8473 72.5328 40.9911C72.4732 41.1349 72.4576 41.2931 72.488 41.4457C72.5184 41.5984 72.5933 41.7386 72.7034 41.8487C72.8134 41.9587 72.9536 42.0337 73.1063 42.064C73.2589 42.0944 73.4172 42.0788 73.5609 42.0192C73.7047 41.9597 73.8276 41.8588 73.9141 41.7294C74.0006 41.6 74.0467 41.4478 74.0467 41.2922C74.0465 41.0836 73.9635 40.8836 73.816 40.736C73.6685 40.5885 73.4684 40.5055 73.2598 40.5053ZM73.2598 41.6857C73.182 41.6857 73.1059 41.6626 73.0412 41.6194C72.9765 41.5761 72.9261 41.5147 72.8963 41.4428C72.8665 41.3709 72.8587 41.2918 72.8739 41.2154C72.8891 41.1391 72.9266 41.069 72.9816 41.014C73.0366 40.959 73.1067 40.9215 73.183 40.9063C73.2594 40.8911 73.3385 40.8989 73.4104 40.9287C73.4823 40.9585 73.5437 41.0089 73.587 41.0736C73.6302 41.1383 73.6533 41.2144 73.6533 41.2922C73.6532 41.3965 73.6117 41.4965 73.5379 41.5703C73.4641 41.6441 73.3641 41.6856 73.2598 41.6857ZM60.5489 30.2752C60.3933 30.2752 60.2411 30.3213 60.1117 30.4078C59.9823 30.4943 59.8814 30.6172 59.8219 30.761C59.7623 30.9048 59.7467 31.063 59.7771 31.2156C59.8075 31.3683 59.8824 31.5085 59.9925 31.6186C60.1025 31.7286 60.2427 31.8036 60.3954 31.8339C60.548 31.8643 60.7063 31.8487 60.8501 31.7891C60.9938 31.7296 61.1167 31.6287 61.2032 31.4993C61.2897 31.3699 61.3358 31.2178 61.3358 31.0621C61.3356 30.8535 61.2526 30.6535 61.1051 30.5059C60.9576 30.3584 60.7575 30.2754 60.5489 30.2752ZM60.5489 31.4556C60.4711 31.4556 60.395 31.4325 60.3303 31.3893C60.2656 31.346 60.2152 31.2846 60.1854 31.2127C60.1556 31.1408 60.1478 31.0617 60.163 30.9854C60.1782 30.909 60.2157 30.8389 60.2707 30.7839C60.3257 30.7289 60.3958 30.6914 60.4721 30.6762C60.5485 30.661 60.6276 30.6688 60.6995 30.6986C60.7714 30.7284 60.8328 30.7788 60.8761 30.8435C60.9193 30.9082 60.9424 30.9843 60.9424 31.0621C60.9423 31.1664 60.9008 31.2665 60.827 31.3402C60.7532 31.414 60.6532 31.4555 60.5489 31.4556ZM73.2598 17.2908C73.1042 17.2908 72.952 17.337 72.8226 17.4235C72.6932 17.5099 72.5923 17.6328 72.5328 17.7766C72.4732 17.9204 72.4576 18.0786 72.488 18.2313C72.5184 18.3839 72.5933 18.5242 72.7034 18.6342C72.8134 18.7443 72.9536 18.8192 73.1063 18.8496C73.2589 18.8799 73.4172 18.8644 73.5609 18.8048C73.7047 18.7452 73.8276 18.6444 73.9141 18.515C74.0006 18.3855 74.0467 18.2334 74.0467 18.0778C74.0465 17.8691 73.9635 17.6691 73.816 17.5216C73.6685 17.3741 73.4684 17.2911 73.2598 17.2908ZM73.2598 18.4712C73.182 18.4712 73.1059 18.4482 73.0412 18.4049C72.9765 18.3617 72.9261 18.3002 72.8963 18.2283C72.8665 18.1564 72.8587 18.0773 72.8739 18.001C72.8891 17.9247 72.9266 17.8546 72.9816 17.7995C73.0366 17.7445 73.1067 17.707 73.183 17.6919C73.2594 17.6767 73.3385 17.6845 73.4104 17.7142C73.4823 17.744 73.5437 17.7945 73.587 17.8592C73.6302 17.9239 73.6533 17.9999 73.6533 18.0778C73.6532 18.1821 73.6117 18.2821 73.5379 18.3559C73.4641 18.4296 73.3641 18.4711 73.2598 18.4712ZM25.7942 28.7013C25.7942 28.5457 25.7481 28.3935 25.6616 28.2641C25.5752 28.1347 25.4523 28.0339 25.3085 27.9743C25.1647 27.9147 25.0064 27.8991 24.8538 27.9295C24.7011 27.9599 24.5609 28.0348 24.4509 28.1449C24.3408 28.2549 24.2659 28.3952 24.2355 28.5478C24.2051 28.7004 24.2207 28.8587 24.2803 29.0025C24.3399 29.1463 24.4407 29.2692 24.5701 29.3556C24.6995 29.4421 24.8517 29.4883 25.0073 29.4883C25.216 29.488 25.416 29.405 25.5635 29.2575C25.711 29.11 25.794 28.91 25.7942 28.7013ZM24.6139 28.7013C24.6139 28.6235 24.6369 28.5474 24.6802 28.4827C24.7234 28.418 24.7848 28.3676 24.8567 28.3378C24.9286 28.308 25.0078 28.3002 25.0841 28.3154C25.1604 28.3306 25.2305 28.3681 25.2855 28.4231C25.3406 28.4781 25.378 28.5482 25.3932 28.6246C25.4084 28.7009 25.4006 28.78 25.3708 28.8519C25.3411 28.9238 25.2906 28.9852 25.2259 29.0285C25.1612 29.0717 25.0851 29.0948 25.0073 29.0948C24.903 29.0947 24.803 29.0532 24.7292 28.9794C24.6554 28.9057 24.614 28.8056 24.6139 28.7013Z" fill="#6C7B88"/>
<path d="M15.2563 38.476L15.8414 37.7064L15.472 37.497L15.0962 38.3587H15.084L14.7023 37.5033L14.3266 37.7186L14.9054 38.4697V38.4823L14 38.365V38.7837L14.9113 38.6668V38.679L14.3266 39.4301L14.6772 39.6517L15.0777 38.7837H15.0899L15.4594 39.6454L15.8473 39.4238L15.2563 38.6853V38.6727L16.1857 38.7837V38.365L15.2563 38.4882V38.476Z" fill="#86EAAA"/>
<path d="M38.8477 12.7598L38.5109 13.1922L38.7132 13.3197L38.9437 12.82H38.9508L39.1633 13.3162L39.3868 13.1887L39.0464 12.763V12.7559L39.5815 12.82V12.5788L39.0464 12.6497V12.6426L39.3832 12.1995L39.1708 12.0791L38.9544 12.5753H38.9473L38.7277 12.0823L38.5109 12.2066L38.8446 12.639V12.6461L38.3232 12.5788V12.82L38.8477 12.7527V12.7598Z" fill="#86EAAA"/>
<path d="M72.0793 30.0959V29.6852L71.1676 29.806V29.7942L71.7413 29.0391L71.3789 28.8341L71.0106 29.6793H70.9984L70.6243 28.84L70.2556 29.0513L70.8234 29.7883V29.8001L69.9353 29.6852V30.0959L70.8293 29.9815V29.9933L70.2556 30.7298L70.5999 30.9474L70.9925 30.0959H71.0043L71.3667 30.9411L71.7472 30.7239L71.1676 29.9992V29.9874L72.0793 30.0959Z" fill="#86EAAA"/>
<path d="M50.9307 19.9401L51.4257 19.2889L51.1132 19.1118L50.7953 19.8409H50.7851L50.4621 19.117L50.1441 19.2995L50.634 19.935V19.9452L49.8679 19.8464V20.2006L50.6391 20.1018V20.112L50.1441 20.7475L50.4408 20.9352L50.78 20.2006H50.7898L51.1026 20.9297L51.4308 20.7424L50.9307 20.1172V20.1069L51.7172 20.2006V19.8464L50.9307 19.9503V19.9401Z" fill="#86EAAA"/>
<circle opacity="0.05" cx="44" cy="44" r="44" fill="#0B82E6"/>
<g clip-path="url(#clip0_335_3630)">
<path d="M28.3862 32.3147C26.1134 32.3147 24.2612 34.1668 24.2612 36.4397V39.2584C22.6896 39.5884 21.5112 41.0184 21.5112 42.7055V56.7718C21.5112 58.3475 22.7254 59.6387 24.2612 59.7858V61.8772C24.2612 62.0595 24.3337 62.2344 24.4626 62.3633C24.5915 62.4922 24.7664 62.5647 24.9487 62.5647H27.6987C27.8811 62.5647 28.0559 62.4922 28.1849 62.3633C28.3138 62.2344 28.3862 62.0595 28.3862 61.8772V59.8147H58.6362V61.8772C58.6362 62.0595 58.7087 62.2344 58.8376 62.3633C58.9665 62.4922 59.1414 62.5647 59.3237 62.5647H62.0737C62.2561 62.5647 62.4309 62.4922 62.5599 62.3633C62.6888 62.2344 62.7612 62.0595 62.7612 61.8772V59.7858C63.512 59.7144 64.2093 59.3664 64.7176 58.8093C65.2259 58.2522 65.5088 57.5259 65.5112 56.7718V42.7055C65.5112 41.0184 64.3329 39.5884 62.7612 39.2598V36.4397C62.7612 34.1668 60.9091 32.3147 58.6362 32.3147H53.1362C52.4544 32.3155 51.7835 32.4856 51.1835 32.8096C50.5836 33.1335 50.0734 33.6013 49.6987 34.1709C49.324 33.6013 48.8139 33.1335 48.2139 32.8096C47.614 32.4856 46.943 32.3155 46.2612 32.3147H40.7612C40.0794 32.3155 39.4085 32.4856 38.8085 32.8096C38.2086 33.1335 37.6984 33.6013 37.3237 34.1709C36.949 33.6013 36.4389 33.1335 35.8389 32.8096C35.239 32.4856 34.568 32.3155 33.8862 32.3147H28.3862ZM28.3862 33.6897H33.8862C35.4221 33.6897 36.6362 34.9038 36.6362 36.4397V47.4397H28.3615L28.3409 48.09L28.3862 48.0722V46.0647C28.5686 46.0647 28.7434 45.9922 28.8724 45.8633C29.0013 45.7344 29.0737 45.5595 29.0737 45.3772C29.9771 45.3634 29.9771 44.0159 29.0737 44.0022C29.073 43.8203 29.0002 43.6461 28.8714 43.5178C28.7425 43.3895 28.5681 43.3174 28.3862 43.3174V42.7055C28.3862 41.0184 27.2079 39.5884 25.6362 39.2598V36.4397C25.6362 34.9038 26.8504 33.6897 28.3862 33.6897ZM40.7612 33.6897H46.2612C47.7971 33.6897 49.0112 34.9038 49.0112 36.4397V47.4397H38.0112V43.9857C38.0117 43.9705 38.0117 43.9554 38.0112 43.9403V36.4397C38.0112 34.9038 39.2254 33.6897 40.7612 33.6897ZM53.1362 33.6897H58.6362C60.1721 33.6897 61.3862 34.9038 61.3862 36.4397V39.2584C59.8146 39.5884 58.6362 41.0184 58.6362 42.7055V43.3174H58.6252C58.4453 43.3203 58.2736 43.3936 58.1472 43.5216C58.0207 43.6497 57.9494 43.8222 57.9487 44.0022C57.0454 44.0159 57.0454 45.3634 57.9487 45.3772C57.9487 45.5595 58.0212 45.7344 58.1501 45.8633C58.279 45.9922 58.4539 46.0647 58.6362 46.0647V47.4397H50.3862V43.9857C50.3867 43.9705 50.3867 43.9554 50.3862 43.9403V36.4397C50.3862 34.9038 51.6004 33.6897 53.1362 33.6897ZM28.3752 35.0647C28.1948 35.0676 28.0228 35.1413 27.8962 35.2699C27.7696 35.3985 27.6987 35.5717 27.6987 35.7522C26.7954 35.7659 26.7954 37.1134 27.6987 37.1272C27.685 38.0567 29.0875 38.0567 29.0737 37.1272C29.9771 37.1134 29.9771 35.7659 29.0737 35.7522C29.0737 35.6609 29.0556 35.5706 29.0204 35.4865C28.9851 35.4024 28.9335 35.3261 28.8685 35.2621C28.8035 35.1981 28.7264 35.1477 28.6417 35.1138C28.557 35.0799 28.4664 35.0632 28.3752 35.0647ZM33.8752 35.0647C33.6948 35.0676 33.5228 35.1413 33.3962 35.2699C33.2696 35.3985 33.1987 35.5717 33.1987 35.7522C32.2954 35.7659 32.2954 37.1134 33.1987 37.1272C33.185 38.0567 34.5875 38.0567 34.5737 37.1272C35.4771 37.1134 35.4771 35.7659 34.5737 35.7522C34.5737 35.6609 34.5556 35.5706 34.5204 35.4865C34.4851 35.4024 34.4335 35.3261 34.3685 35.2621C34.3035 35.1981 34.2264 35.1477 34.1417 35.1138C34.057 35.0799 33.9664 35.0632 33.8752 35.0647ZM53.1252 35.0647C52.9448 35.0676 52.7728 35.1413 52.6462 35.2699C52.5196 35.3985 52.4487 35.5717 52.4487 35.7522C51.5454 35.7659 51.5454 37.1134 52.4487 37.1272C52.435 38.0567 53.8375 38.0567 53.8237 37.1272C54.7271 37.1134 54.7271 35.7659 53.8237 35.7522C53.8237 35.6609 53.8056 35.5706 53.7704 35.4865C53.7351 35.4024 53.6835 35.3261 53.6185 35.2621C53.5535 35.1981 53.4764 35.1477 53.3917 35.1138C53.307 35.0799 53.2164 35.0632 53.1252 35.0647ZM58.6252 35.0647C58.4448 35.0676 58.2728 35.1413 58.1462 35.2699C58.0196 35.3985 57.9487 35.5717 57.9487 35.7522C57.0454 35.7659 57.0454 37.1134 57.9487 37.1272C57.935 38.0567 59.3375 38.0567 59.3237 37.1272C60.2271 37.1134 60.2271 35.7659 59.3237 35.7522C59.3237 35.6609 59.3056 35.5706 59.2704 35.4865C59.2351 35.4024 59.1835 35.3261 59.1185 35.2621C59.0535 35.1981 58.9764 35.1477 58.8917 35.1138C58.807 35.0799 58.7164 35.0632 58.6252 35.0647ZM31.1252 39.1897C30.9448 39.1926 30.7728 39.2663 30.6462 39.3949C30.5196 39.5235 30.4487 39.6967 30.4487 39.8772C29.5454 39.8909 29.5454 41.2384 30.4487 41.2522C30.435 42.1817 31.8375 42.1817 31.8237 41.2522C32.7271 41.2384 32.7271 39.8909 31.8237 39.8772C31.8237 39.7859 31.8056 39.6956 31.7704 39.6115C31.7351 39.5274 31.6835 39.4511 31.6185 39.3871C31.5535 39.3231 31.4764 39.2727 31.3917 39.2388C31.307 39.2049 31.2164 39.1882 31.1252 39.1897ZM55.8752 39.1897C55.6948 39.1926 55.5228 39.2663 55.3962 39.3949C55.2696 39.5235 55.1987 39.6967 55.1987 39.8772C54.2954 39.8909 54.2954 41.2384 55.1987 41.2522C55.185 42.1817 56.5875 42.1817 56.5737 41.2522C57.4771 41.2384 57.4771 39.8909 56.5737 39.8772C56.5737 39.7859 56.5556 39.6956 56.5204 39.6115C56.4851 39.5274 56.4335 39.4511 56.3685 39.3871C56.3035 39.3231 56.2264 39.2727 56.1417 39.2388C56.057 39.2049 55.9664 39.1882 55.8752 39.1897ZM24.9487 40.5647C26.0927 40.5647 27.0112 41.4969 27.0112 42.7055V58.4397H24.5431C23.615 58.4397 22.8862 57.7109 22.8862 56.7718V42.7055C22.8862 41.4969 23.8047 40.5647 24.9487 40.5647ZM62.0737 40.5647C63.2177 40.5647 64.1362 41.4969 64.1362 42.7055V56.7718C64.1362 57.7109 63.4075 58.4397 62.4794 58.4397H60.0112V42.7055C60.0112 41.4969 60.9297 40.5647 62.0737 40.5647ZM33.8752 43.3174C33.6953 43.3203 33.5236 43.3936 33.3972 43.5216C33.2707 43.6497 33.1994 43.8222 33.1987 44.0022C32.2954 44.0159 32.2954 45.3634 33.1987 45.3772C33.185 46.3067 34.5875 46.3067 34.5737 45.3772C35.4771 45.3634 35.4771 44.0159 34.5737 44.0022C34.5734 43.9112 34.555 43.8212 34.5196 43.7374C34.4842 43.6535 34.4325 43.5776 34.3675 43.5139C34.3025 43.4502 34.2256 43.4 34.1411 43.3663C34.0566 43.3326 33.9662 43.316 33.8752 43.3174ZM53.1252 43.3174C52.9453 43.3203 52.7736 43.3936 52.6472 43.5216C52.5207 43.6497 52.4494 43.8222 52.4487 44.0022C51.5454 44.0159 51.5454 45.3634 52.4487 45.3772C52.435 46.3067 53.8375 46.3067 53.8237 45.3772C54.7271 45.3634 54.7271 44.0159 53.8237 44.0022C53.8234 43.9112 53.805 43.8212 53.7696 43.7374C53.7342 43.6535 53.6825 43.5776 53.6175 43.5139C53.5525 43.4502 53.4756 43.4 53.3911 43.3663C53.3066 43.3326 53.2162 43.316 53.1252 43.3174ZM28.3862 48.8147H58.6362V51.5812H28.3862V48.8147ZM28.3862 52.9562H58.6362V58.4397H28.3862V52.9562ZM25.6362 59.8147H27.0112V61.1897H25.6362V59.8147ZM60.0112 59.8147H61.3862V61.1897H60.0112V59.8147Z" fill="#283954"/>
<path d="M40.2712 35.2699C40.3978 35.1413 40.5698 35.0676 40.7503 35.0647C40.8415 35.0632 40.9321 35.0799 41.0167 35.1138C41.1014 35.1477 41.1785 35.1981 41.2435 35.2621C41.3085 35.3261 41.3602 35.4024 41.3954 35.4865C41.4306 35.5707 41.4488 35.661 41.4488 35.7522C42.3521 35.7659 42.3521 37.1134 41.4488 37.1272C41.4625 38.0567 40.06 38.0567 40.0738 37.1272C39.1704 37.1134 39.1704 35.7659 40.0738 35.7522C40.0737 35.5717 40.1447 35.3985 40.2712 35.2699Z" fill="#86EAAA"/>
<path d="M45.7712 35.2699C45.8978 35.1413 46.0698 35.0676 46.2503 35.0647C46.3415 35.0632 46.4321 35.0799 46.5167 35.1138C46.6014 35.1477 46.6785 35.1981 46.7435 35.2621C46.8085 35.3261 46.8602 35.4024 46.8954 35.4865C46.9306 35.5707 46.9488 35.661 46.9488 35.7522C47.8521 35.7659 47.8521 37.1134 46.9488 37.1272C46.9625 38.0567 45.56 38.0567 45.5738 37.1272C44.6704 37.1134 44.6704 35.7659 45.5738 35.7522C45.5737 35.5717 45.6447 35.3985 45.7712 35.2699Z" fill="#86EAAA"/>
<path d="M43.0212 39.3949C43.1478 39.2663 43.3198 39.1926 43.5003 39.1897C43.5915 39.1882 43.6821 39.2049 43.7667 39.2388C43.8514 39.2727 43.9285 39.3231 43.9935 39.3871C44.0585 39.4511 44.1102 39.5274 44.1454 39.6115C44.1806 39.6957 44.1988 39.786 44.1988 39.8772C45.1021 39.8909 45.1021 41.2384 44.1988 41.2522C44.2125 42.1817 42.81 42.1817 42.8238 41.2522C41.9204 41.2384 41.9204 39.8909 42.8238 39.8772C42.8237 39.6967 42.8947 39.5235 43.0212 39.3949Z" fill="#86EAAA"/>
<path d="M40.2722 43.5217C40.3987 43.3936 40.5703 43.3203 40.7503 43.3174C40.8412 43.316 40.9316 43.3326 41.0161 43.3663C41.1006 43.4001 41.1776 43.4502 41.2426 43.5139C41.3075 43.5776 41.3592 43.6536 41.3946 43.7374C41.43 43.8212 41.4484 43.9112 41.4488 44.0022C42.3521 44.0159 42.3521 45.3634 41.4488 45.3772C41.4625 46.3067 40.06 46.3067 40.0738 45.3772C39.1704 45.3634 39.1704 44.0159 40.0738 44.0022C40.0745 43.8222 40.1457 43.6497 40.2722 43.5217Z" fill="#86EAAA"/>
<path d="M45.7722 43.5217C45.8987 43.3936 46.0703 43.3203 46.2503 43.3174C46.3412 43.316 46.4316 43.3326 46.5161 43.3663C46.6006 43.4001 46.6776 43.4502 46.7426 43.5139C46.8075 43.5776 46.8592 43.6536 46.8946 43.7374C46.93 43.8212 46.9484 43.9112 46.9488 44.0022C47.8521 44.0159 47.8521 45.3634 46.9488 45.3772C46.9625 46.3067 45.56 46.3067 45.5738 45.3772C44.6704 45.3634 44.6704 44.0159 45.5738 44.0022C45.5745 43.8222 45.6457 43.6497 45.7722 43.5217Z" fill="#86EAAA"/>
</g>
<defs>
<clipPath id="clip0_335_3630">
<rect width="44" height="44" fill="white" transform="translate(21.5112 21.5111)"/>
</clipPath>
</defs>
</svg>
