<svg width="88" height="88" viewBox="0 0 88 88" fill="none" xmlns="http://www.w3.org/2000/svg">
<circle opacity="0.05" cx="44" cy="44" r="44" fill="#0B82E6"/>
<path d="M15.1804 21.146C15.4139 21.146 15.6421 21.0767 15.8362 20.947C16.0303 20.8173 16.1816 20.633 16.2709 20.4173C16.3603 20.2016 16.3837 19.9643 16.3381 19.7353C16.2926 19.5063 16.1801 19.296 16.0151 19.1309C15.85 18.9658 15.6397 18.8534 15.4107 18.8078C15.1817 18.7623 14.9444 18.7857 14.7287 18.875C14.513 18.9644 14.3286 19.1157 14.1989 19.3098C14.0692 19.5039 14 19.7321 14 19.9656C14.0004 20.2785 14.1248 20.5785 14.3461 20.7998C14.5674 21.0211 14.8674 21.1456 15.1804 21.146ZM15.1804 19.3754C15.2971 19.3754 15.4112 19.41 15.5083 19.4748C15.6053 19.5397 15.681 19.6319 15.7257 19.7397C15.7703 19.8475 15.782 19.9662 15.7593 20.0807C15.7365 20.1952 15.6803 20.3004 15.5977 20.3829C15.5152 20.4654 15.41 20.5216 15.2955 20.5444C15.1811 20.5672 15.0624 20.5555 14.9545 20.5108C14.8467 20.4662 14.7545 20.3905 14.6897 20.2935C14.6248 20.1964 14.5902 20.0823 14.5902 19.9656C14.5904 19.8091 14.6526 19.659 14.7632 19.5484C14.8739 19.4377 15.0239 19.3755 15.1804 19.3754ZM73.2596 40.5053C73.1039 40.5053 72.9518 40.5514 72.8224 40.6379C72.693 40.7244 72.5921 40.8473 72.5325 40.9911C72.473 41.1349 72.4574 41.2931 72.4878 41.4457C72.5181 41.5984 72.5931 41.7386 72.7031 41.8487C72.8132 41.9587 72.9534 42.0337 73.106 42.064C73.2587 42.0944 73.4169 42.0788 73.5607 42.0192C73.7045 41.9597 73.8274 41.8588 73.9139 41.7294C74.0003 41.6 74.0465 41.4478 74.0465 41.2922C74.0463 41.0836 73.9633 40.8836 73.8157 40.736C73.6682 40.5885 73.4682 40.5055 73.2596 40.5053ZM73.2596 41.6857C73.1817 41.6857 73.1057 41.6626 73.041 41.6194C72.9763 41.5761 72.9258 41.5147 72.896 41.4428C72.8663 41.3709 72.8585 41.2918 72.8737 41.2154C72.8888 41.1391 72.9263 41.069 72.9813 41.014C73.0364 40.959 73.1065 40.9215 73.1828 40.9063C73.2591 40.8911 73.3382 40.8989 73.4101 40.9287C73.482 40.9585 73.5435 41.0089 73.5867 41.0736C73.63 41.1383 73.653 41.2144 73.653 41.2922C73.6529 41.3965 73.6114 41.4965 73.5377 41.5703C73.4639 41.6441 73.3639 41.6856 73.2596 41.6857ZM60.5487 30.2752C60.393 30.2752 60.2409 30.3213 60.1115 30.4078C59.9821 30.4943 59.8812 30.6172 59.8216 30.761C59.7621 30.9048 59.7465 31.063 59.7769 31.2156C59.8072 31.3683 59.8822 31.5085 59.9922 31.6186C60.1023 31.7286 60.2425 31.8036 60.3951 31.8339C60.5478 31.8643 60.706 31.8487 60.8498 31.7891C60.9936 31.7296 61.1165 31.6287 61.203 31.4993C61.2894 31.3699 61.3356 31.2178 61.3356 31.0621C61.3354 30.8535 61.2524 30.6535 61.1048 30.5059C60.9573 30.3584 60.7573 30.2754 60.5487 30.2752ZM60.5487 31.4556C60.4708 31.4556 60.3948 31.4325 60.3301 31.3893C60.2654 31.346 60.2149 31.2846 60.1852 31.2127C60.1554 31.1408 60.1476 31.0617 60.1628 30.9854C60.1779 30.909 60.2154 30.8389 60.2704 30.7839C60.3255 30.7289 60.3956 30.6914 60.4719 30.6762C60.5482 30.661 60.6273 30.6688 60.6992 30.6986C60.7711 30.7284 60.8326 30.7788 60.8758 30.8435C60.9191 30.9082 60.9421 30.9843 60.9421 31.0621C60.942 31.1664 60.9005 31.2665 60.8268 31.3402C60.753 31.414 60.653 31.4555 60.5487 31.4556ZM73.2596 17.2908C73.1039 17.2908 72.9518 17.337 72.8224 17.4235C72.693 17.5099 72.5921 17.6328 72.5325 17.7766C72.473 17.9204 72.4574 18.0786 72.4878 18.2313C72.5181 18.3839 72.5931 18.5242 72.7031 18.6342C72.8132 18.7443 72.9534 18.8192 73.106 18.8496C73.2587 18.8799 73.4169 18.8644 73.5607 18.8048C73.7045 18.7452 73.8274 18.6444 73.9139 18.515C74.0003 18.3855 74.0465 18.2334 74.0465 18.0778C74.0463 17.8691 73.9633 17.6691 73.8157 17.5216C73.6682 17.3741 73.4682 17.2911 73.2596 17.2908ZM73.2596 18.4712C73.1817 18.4712 73.1057 18.4482 73.041 18.4049C72.9763 18.3617 72.9258 18.3002 72.896 18.2283C72.8663 18.1564 72.8585 18.0773 72.8737 18.001C72.8888 17.9247 72.9263 17.8546 72.9813 17.7995C73.0364 17.7445 73.1065 17.707 73.1828 17.6919C73.2591 17.6767 73.3382 17.6845 73.4101 17.7142C73.482 17.744 73.5435 17.7945 73.5867 17.8592C73.63 17.9239 73.653 17.9999 73.653 18.0778C73.6529 18.1821 73.6114 18.2821 73.5377 18.3559C73.4639 18.4296 73.3639 18.4711 73.2596 18.4712ZM25.794 28.7013C25.794 28.5457 25.7479 28.3935 25.6614 28.2641C25.5749 28.1347 25.452 28.0339 25.3082 27.9743C25.1644 27.9147 25.0062 27.8991 24.8536 27.9295C24.7009 27.9599 24.5607 28.0348 24.4506 28.1449C24.3406 28.2549 24.2656 28.3952 24.2353 28.5478C24.2049 28.7004 24.2205 28.8587 24.28 29.0025C24.3396 29.1463 24.4405 29.2692 24.5699 29.3556C24.6993 29.4421 24.8514 29.4883 25.0071 29.4883C25.2157 29.488 25.4157 29.405 25.5633 29.2575C25.7108 29.11 25.7938 28.91 25.794 28.7013ZM24.6136 28.7013C24.6136 28.6235 24.6367 28.5474 24.6799 28.4827C24.7232 28.418 24.7846 28.3676 24.8565 28.3378C24.9284 28.308 25.0075 28.3002 25.0838 28.3154C25.1602 28.3306 25.2303 28.3681 25.2853 28.4231C25.3403 28.4781 25.3778 28.5482 25.393 28.6246C25.4082 28.7009 25.4004 28.78 25.3706 28.8519C25.3408 28.9238 25.2904 28.9852 25.2257 29.0285C25.161 29.0717 25.0849 29.0948 25.0071 29.0948C24.9028 29.0947 24.8027 29.0532 24.729 28.9794C24.6552 28.9057 24.6137 28.8056 24.6136 28.7013Z" fill="#6C7B88"/>
<path d="M15.2563 38.476L15.8414 37.7064L15.472 37.497L15.0962 38.3587H15.084L14.7023 37.5033L14.3266 37.7186L14.9054 38.4697V38.4823L14 38.365V38.7837L14.9113 38.6668V38.679L14.3266 39.4301L14.6772 39.6517L15.0777 38.7837H15.0899L15.4594 39.6454L15.8473 39.4238L15.2563 38.6853V38.6727L16.1857 38.7837V38.365L15.2563 38.4882V38.476Z" fill="#86EAAA"/>
<path d="M38.8477 12.7598L38.5109 13.1922L38.7132 13.3197L38.9437 12.82H38.9508L39.1633 13.3162L39.3868 13.1887L39.0464 12.763V12.7559L39.5815 12.82V12.5788L39.0464 12.6497V12.6426L39.3832 12.1995L39.1708 12.0791L38.9544 12.5753H38.9473L38.7277 12.0823L38.5109 12.2066L38.8446 12.639V12.6461L38.3232 12.5788V12.82L38.8477 12.7527V12.7598Z" fill="#86EAAA"/>
<path d="M72.0793 30.0959V29.6852L71.1676 29.806V29.7942L71.7413 29.0391L71.3789 28.8341L71.0106 29.6793H70.9984L70.6243 28.84L70.2556 29.0513L70.8234 29.7883V29.8001L69.9353 29.6852V30.0959L70.8293 29.9815V29.9933L70.2556 30.7298L70.5999 30.9474L70.9925 30.0959H71.0043L71.3667 30.9411L71.7472 30.7239L71.1676 29.9992V29.9874L72.0793 30.0959Z" fill="#86EAAA"/>
<path d="M50.9307 19.9401L51.4257 19.2889L51.1132 19.1118L50.7953 19.8409H50.7851L50.4621 19.117L50.1441 19.2995L50.634 19.935V19.9452L49.8679 19.8464V20.2006L50.6391 20.1018V20.112L50.1441 20.7475L50.4408 20.9352L50.78 20.2006H50.7898L51.1026 20.9297L51.4308 20.7424L50.9307 20.1172V20.1069L51.7172 20.2006V19.8464L50.9307 19.9503V19.9401Z" fill="#86EAAA"/>
<path d="M27.695 40.8127C27.5171 40.8155 27.3477 40.8887 27.2237 41.0162C27.0997 41.1437 27.0313 41.3151 27.0335 41.493V61.0614C27.0335 62.5121 28.2569 63.6763 29.7224 63.6763H57.9557C59.4212 63.6763 60.6446 62.5121 60.6446 61.0614V41.493C60.6446 41.3147 60.5738 41.1438 60.4477 41.0177C60.3216 40.8916 60.1507 40.8208 59.9724 40.8208C59.7941 40.8208 59.6231 40.8916 59.497 41.0177C59.371 41.1438 59.3002 41.3147 59.3002 41.493V61.0614C59.3002 61.7619 58.7247 62.3319 57.9557 62.3319H29.7224C28.9534 62.3319 28.3779 61.7619 28.3779 61.0614V41.493C28.379 41.4031 28.3621 41.3139 28.3281 41.2307C28.2941 41.1475 28.2438 41.0721 28.1802 41.0087C28.1165 40.9452 28.0407 40.8951 27.9574 40.8615C27.8741 40.8278 27.7848 40.8113 27.695 40.8127Z" fill="#283954"/>
<path d="M27.7056 32.5995C26.6005 32.5995 25.689 33.5111 25.689 34.6162V39.994C25.689 41.0991 26.6005 42.0107 27.7056 42.0107H42.4058C42.5841 42.0107 42.7551 41.9399 42.8811 41.8139C43.0072 41.6878 43.078 41.5167 43.078 41.3384C43.078 41.1602 43.0072 40.9892 42.8811 40.8632C42.7551 40.7371 42.5841 40.6662 42.4058 40.6662H27.7056C27.6167 40.6684 27.5283 40.6526 27.4458 40.6196C27.3632 40.5866 27.2882 40.5372 27.2254 40.4744C27.1625 40.4115 27.1131 40.3365 27.0801 40.254C27.0471 40.1714 27.0312 40.0829 27.0334 39.994V34.6162C27.0334 34.2317 27.3211 33.944 27.7056 33.944H38.0646C38.2429 33.944 38.4138 33.8733 38.5399 33.7472C38.666 33.6212 38.7368 33.4501 38.7368 33.2718C38.7368 33.0935 38.666 32.9226 38.5399 32.7965C38.4138 32.6704 38.2429 32.5995 38.0646 32.5995H27.7056ZM48.9223 32.5995C48.744 32.5995 48.573 32.6704 48.447 32.7965C48.3209 32.9226 48.2501 33.0935 48.2501 33.2718C48.2501 33.4501 48.3209 33.6212 48.447 33.7472C48.573 33.8733 48.744 33.944 48.9223 33.944H59.9723C60.3568 33.944 60.6445 34.2317 60.6445 34.6162V39.994C60.6445 40.3785 60.3568 40.6662 59.9723 40.6662H45.2721C45.0939 40.6662 44.9229 40.7371 44.7968 40.8632C44.6707 40.9892 44.5999 41.1602 44.5999 41.3384C44.5999 41.5167 44.6707 41.6878 44.7968 41.8139C44.9229 41.9399 45.0939 42.0107 45.2721 42.0107H59.9723C61.0774 42.0107 61.989 41.0991 61.989 39.994V34.6162C61.989 33.5111 61.0774 32.5995 59.9723 32.5995H48.9223Z" fill="#283954"/>
<path fill-rule="evenodd" clip-rule="evenodd" d="M41.8223 32.7368V63.6764H45.8556V32.7368H41.8223ZM43.1667 34.0812H44.5112V62.3319H43.1667V34.0812Z" fill="#86EAAA"/>
<path d="M42.6047 32.7542C40.3366 32.7542 38.4732 34.2426 37.7889 36.2781L37.602 36.0212C37.5463 35.9448 37.475 35.8808 37.3929 35.8338C37.3108 35.7868 37.2197 35.7577 37.1255 35.7483C37.0313 35.7389 36.9362 35.7494 36.8465 35.7793C36.7567 35.8092 36.6742 35.8578 36.6044 35.9218L36.4203 36.0898C36.6488 35.3154 36.9782 34.5881 37.4609 33.9603C37.5696 33.8185 37.6176 33.6393 37.5943 33.4622C37.571 33.285 37.4782 33.1245 37.3365 33.0158C37.1948 32.907 37.0156 32.859 36.8385 32.8823C36.6614 32.9057 36.5008 32.9983 36.392 33.14C35.3424 34.5034 34.7737 36.1761 34.7747 37.8968C34.775 38.0271 34.8133 38.1544 34.8848 38.2634C34.9562 38.3724 35.0578 38.4583 35.1772 38.5106C35.2966 38.5628 35.4286 38.5792 35.5571 38.5578C35.6857 38.5364 35.8053 38.4782 35.9013 38.3901L36.9594 37.4221L37.5913 38.2906C37.6746 38.4057 37.7922 38.4914 37.9272 38.5355C38.0622 38.5796 38.2077 38.5797 38.3428 38.536C38.478 38.4922 38.5957 38.4068 38.6793 38.292C38.7629 38.1771 38.8079 38.0388 38.808 37.8968C38.8033 37.3969 38.8983 36.901 39.0875 36.4383C39.2766 35.9755 39.5561 35.5551 39.9096 35.2016C40.2631 34.8481 40.6835 34.5687 41.1463 34.3796C41.609 34.1904 42.1048 34.0954 42.6047 34.1001C42.783 34.1001 42.954 34.0292 43.08 33.9031C43.2061 33.7771 43.2769 33.6061 43.2769 33.4279C43.2769 33.2496 43.2061 33.0785 43.08 32.9524C42.954 32.8263 42.783 32.7556 42.6047 32.7556V32.7542ZM49.9857 32.5687C49.8574 32.5715 49.7325 32.6108 49.6259 32.6823C49.5193 32.7537 49.4354 32.8543 49.384 32.9719C49.3327 33.0896 49.3161 33.2194 49.3363 33.3461C49.3564 33.4729 49.4124 33.5914 49.4977 33.6873C50.0825 34.369 50.4643 35.193 50.7265 36.071L50.705 36.0521C50.6395 35.9923 50.5628 35.9461 50.4793 35.916C50.3958 35.886 50.3072 35.8728 50.2186 35.8771C50.13 35.8815 50.0431 35.9034 49.963 35.9415C49.8829 35.9796 49.8111 36.0332 49.7518 36.0992L49.4264 36.4622C48.7986 34.334 46.9096 32.7542 44.577 32.7542C44.3987 32.7542 44.2277 32.825 44.1017 32.9511C43.9756 33.0772 43.9048 33.2481 43.9048 33.4264C43.9048 33.6047 43.9756 33.7758 44.1017 33.9018C44.2277 34.0279 44.3987 34.0986 44.577 34.0986C45.0768 34.0939 45.5724 34.1891 46.035 34.3783C46.4976 34.5674 46.9179 34.847 47.2712 35.2005C47.6244 35.554 47.9037 35.9744 48.0925 36.4371C48.2814 36.8998 48.3761 37.3957 48.371 37.8954C48.3714 38.0312 48.4127 38.1635 48.4898 38.2752C48.5668 38.387 48.6758 38.4728 48.8026 38.5214C48.9293 38.57 49.0677 38.5791 49.1997 38.5475C49.3317 38.5159 49.4511 38.4452 49.542 38.3445L50.3016 37.5014L51.2804 38.3914C51.3767 38.4788 51.4963 38.5364 51.6246 38.5572C51.753 38.578 51.8846 38.5611 52.0036 38.5086C52.1225 38.4561 52.2237 38.3703 52.2949 38.2614C52.366 38.1526 52.404 38.0255 52.4044 37.8954C52.4044 35.9621 51.6918 34.1807 50.5194 32.8121C50.4548 32.7336 50.3732 32.6707 50.2807 32.6283C50.1883 32.5859 50.0874 32.5665 49.9857 32.5687Z" fill="#86EAAA"/>
<path d="M38.2137 23.53C35.3137 23.53 32.8359 25.8263 32.8359 28.7371C32.8359 31.6478 35.3137 33.944 38.2137 33.944H48.9693C51.8692 33.944 54.347 31.6478 54.347 28.7371C54.347 25.8263 51.8706 23.53 48.9693 23.53H48.5659C46.2858 23.53 44.5891 24.744 43.5915 26.2484C42.5953 24.7426 40.8959 23.53 38.617 23.53H38.2137ZM38.2137 24.8744H38.617C40.5813 24.8744 41.9849 25.9272 42.7122 27.2111C42.7969 27.3617 42.8789 27.5539 42.9825 27.7785C43.0364 27.8947 43.1225 27.9929 43.2305 28.0619C43.3385 28.1308 43.464 28.1676 43.5922 28.1676C43.7203 28.1676 43.8458 28.1308 43.9538 28.0619C44.0618 27.9929 44.1479 27.8947 44.2019 27.7785C44.3067 27.5526 44.3861 27.3617 44.4708 27.2111C45.1994 25.9272 46.6004 24.8771 48.5659 24.8771H48.9693C51.1634 24.8771 53.0026 26.5953 53.0026 28.7397C53.0026 30.8854 51.1634 32.6023 48.9693 32.6023H38.2137C36.0209 32.6023 34.1804 30.8854 34.1804 28.7397C34.1804 26.5953 36.0209 24.8771 38.2137 24.8771V24.8744ZM38.2137 26.2189C36.7173 26.2189 35.5248 27.3563 35.5248 28.7371C35.5248 30.1178 36.7173 31.2551 38.2137 31.2551H41.7375C41.8415 31.2551 41.9441 31.2311 42.0373 31.1847C42.1304 31.1383 42.2115 31.0709 42.2741 30.9879C42.3368 30.9049 42.3794 30.8086 42.3985 30.7063C42.4176 30.604 42.4127 30.4988 42.3842 30.3987C42.1462 29.5759 41.9499 28.5904 41.5439 27.8738C41.2683 27.3858 40.9712 26.9395 40.4804 26.6343C39.9897 26.3278 39.3888 26.2189 38.6157 26.2189H38.2137ZM48.5659 26.2189C47.7929 26.2189 47.1919 26.3278 46.7012 26.6343C46.2105 26.9395 45.916 27.3872 45.6391 27.8725C45.2344 28.5904 45.0381 29.5746 44.8001 30.4001C44.7719 30.4999 44.7672 30.605 44.7863 30.707C44.8055 30.8089 44.848 30.9051 44.9105 30.9879C44.973 31.0707 45.0538 31.1378 45.1466 31.1842C45.2394 31.2306 45.3417 31.2549 45.4455 31.2551H48.9693C50.4656 31.2551 51.6582 30.1178 51.6582 28.7371C51.6582 27.3563 50.467 26.2189 48.9693 26.2189H48.5659ZM38.2137 27.5633H38.617C39.2637 27.5633 39.5756 27.6547 39.7719 27.7757C39.9669 27.898 40.1295 28.1078 40.3729 28.538C40.4939 28.7531 40.6619 29.381 40.8166 29.9107H38.2137C37.356 29.9107 36.8693 29.3716 36.8693 28.7371C36.8693 28.1038 37.356 27.5633 38.2137 27.5633ZM48.5659 27.5633H48.9693C49.8284 27.5633 50.3137 28.1038 50.3137 28.7371C50.3137 29.3716 49.8284 29.9107 48.9693 29.9107H46.3678C46.5224 29.381 46.6904 28.7531 46.8114 28.538C47.0548 28.1078 47.2175 27.898 47.4124 27.7757C47.6073 27.6547 47.9179 27.5633 48.5659 27.5633Z" fill="#86EAAA"/>
</svg>
