<svg width="88" height="88" viewBox="0 0 88 88" fill="none" xmlns="http://www.w3.org/2000/svg">
<circle cx="44" cy="44" r="44" fill="#C7E3FF" fill-opacity="0.2"/>
<path d="M15.1804 21.146C15.4139 21.146 15.6421 21.0767 15.8362 20.947C16.0303 20.8173 16.1816 20.633 16.2709 20.4173C16.3603 20.2016 16.3837 19.9643 16.3381 19.7353C16.2926 19.5063 16.1801 19.296 16.0151 19.1309C15.85 18.9658 15.6397 18.8534 15.4107 18.8079C15.1817 18.7623 14.9444 18.7857 14.7287 18.875C14.513 18.9644 14.3286 19.1157 14.1989 19.3098C14.0692 19.5039 14 19.7321 14 19.9656C14.0004 20.2785 14.1248 20.5786 14.3461 20.7998C14.5674 21.0211 14.8674 21.1456 15.1804 21.146ZM15.1804 19.3754C15.2971 19.3754 15.4112 19.41 15.5083 19.4748C15.6053 19.5397 15.681 19.6319 15.7257 19.7397C15.7703 19.8476 15.782 19.9662 15.7593 20.0807C15.7365 20.1952 15.6803 20.3004 15.5977 20.3829C15.5152 20.4655 15.41 20.5217 15.2955 20.5444C15.1811 20.5672 15.0624 20.5555 14.9545 20.5108C14.8467 20.4662 14.7545 20.3905 14.6897 20.2935C14.6248 20.1964 14.5902 20.0823 14.5902 19.9656C14.5904 19.8091 14.6526 19.6591 14.7632 19.5484C14.8739 19.4378 15.0239 19.3755 15.1804 19.3754ZM73.2596 40.5053C73.1039 40.5053 72.9518 40.5514 72.8224 40.6379C72.693 40.7244 72.5921 40.8473 72.5325 40.9911C72.473 41.1349 72.4574 41.2931 72.4878 41.4457C72.5181 41.5984 72.5931 41.7386 72.7031 41.8487C72.8132 41.9587 72.9534 42.0337 73.106 42.064C73.2587 42.0944 73.4169 42.0788 73.5607 42.0193C73.7045 41.9597 73.8274 41.8588 73.9139 41.7294C74.0003 41.6 74.0465 41.4479 74.0465 41.2922C74.0463 41.0836 73.9633 40.8836 73.8157 40.736C73.6682 40.5885 73.4682 40.5055 73.2596 40.5053ZM73.2596 41.6857C73.1817 41.6857 73.1057 41.6626 73.041 41.6194C72.9763 41.5761 72.9258 41.5147 72.896 41.4428C72.8663 41.3709 72.8585 41.2918 72.8737 41.2155C72.8888 41.1391 72.9263 41.069 72.9813 41.014C73.0364 40.959 73.1065 40.9215 73.1828 40.9063C73.2591 40.8911 73.3382 40.8989 73.4101 40.9287C73.482 40.9585 73.5435 41.0089 73.5867 41.0736C73.63 41.1383 73.653 41.2144 73.653 41.2922C73.6529 41.3965 73.6114 41.4966 73.5377 41.5703C73.4639 41.6441 73.3639 41.6856 73.2596 41.6857ZM60.5487 30.2752C60.393 30.2752 60.2409 30.3214 60.1115 30.4078C59.9821 30.4943 59.8812 30.6172 59.8216 30.761C59.7621 30.9048 59.7465 31.063 59.7769 31.2157C59.8072 31.3683 59.8822 31.5085 59.9922 31.6186C60.1023 31.7286 60.2425 31.8036 60.3951 31.8339C60.5478 31.8643 60.706 31.8487 60.8498 31.7892C60.9936 31.7296 61.1165 31.6287 61.203 31.4993C61.2894 31.3699 61.3356 31.2178 61.3356 31.0621C61.3354 30.8535 61.2524 30.6535 61.1048 30.5059C60.9573 30.3584 60.7573 30.2754 60.5487 30.2752ZM60.5487 31.4556C60.4708 31.4556 60.3948 31.4325 60.3301 31.3893C60.2654 31.346 60.2149 31.2846 60.1852 31.2127C60.1554 31.1408 60.1476 31.0617 60.1628 30.9854C60.1779 30.909 60.2154 30.8389 60.2704 30.7839C60.3255 30.7289 60.3956 30.6914 60.4719 30.6762C60.5482 30.661 60.6273 30.6688 60.6992 30.6986C60.7711 30.7284 60.8326 30.7788 60.8758 30.8435C60.9191 30.9082 60.9421 30.9843 60.9421 31.0621C60.942 31.1665 60.9005 31.2665 60.8268 31.3402C60.753 31.414 60.653 31.4555 60.5487 31.4556ZM73.2596 17.2908C73.1039 17.2908 72.9518 17.337 72.8224 17.4235C72.693 17.5099 72.5921 17.6328 72.5325 17.7766C72.473 17.9204 72.4574 18.0787 72.4878 18.2313C72.5181 18.384 72.5931 18.5242 72.7031 18.6342C72.8132 18.7443 72.9534 18.8192 73.106 18.8496C73.2587 18.88 73.4169 18.8644 73.5607 18.8048C73.7045 18.7452 73.8274 18.6444 73.9139 18.515C74.0003 18.3856 74.0465 18.2334 74.0465 18.0778C74.0463 17.8691 73.9633 17.6691 73.8157 17.5216C73.6682 17.3741 73.4682 17.2911 73.2596 17.2908ZM73.2596 18.4712C73.1817 18.4712 73.1057 18.4482 73.041 18.4049C72.9763 18.3617 72.9258 18.3002 72.896 18.2284C72.8663 18.1565 72.8585 18.0773 72.8737 18.001C72.8888 17.9247 72.9263 17.8546 72.9813 17.7996C73.0364 17.7445 73.1065 17.7071 73.1828 17.6919C73.2591 17.6767 73.3382 17.6845 73.4101 17.7143C73.482 17.744 73.5435 17.7945 73.5867 17.8592C73.63 17.9239 73.653 18 73.653 18.0778C73.6529 18.1821 73.6114 18.2821 73.5377 18.3559C73.4639 18.4297 73.3639 18.4711 73.2596 18.4712ZM25.794 28.7013C25.794 28.5457 25.7479 28.3936 25.6614 28.2641C25.5749 28.1347 25.452 28.0339 25.3082 27.9743C25.1644 27.9147 25.0062 27.8992 24.8536 27.9295C24.7009 27.9599 24.5607 28.0348 24.4506 28.1449C24.3406 28.2549 24.2656 28.3952 24.2353 28.5478C24.2049 28.7005 24.2205 28.8587 24.28 29.0025C24.3396 29.1463 24.4405 29.2692 24.5699 29.3556C24.6993 29.4421 24.8514 29.4883 25.0071 29.4883C25.2157 29.488 25.4157 29.405 25.5633 29.2575C25.7108 29.11 25.7938 28.91 25.794 28.7013ZM24.6136 28.7013C24.6136 28.6235 24.6367 28.5474 24.6799 28.4827C24.7232 28.418 24.7846 28.3676 24.8565 28.3378C24.9284 28.308 25.0075 28.3003 25.0838 28.3154C25.1602 28.3306 25.2303 28.3681 25.2853 28.4231C25.3403 28.4781 25.3778 28.5483 25.393 28.6246C25.4082 28.7009 25.4004 28.78 25.3706 28.8519C25.3408 28.9238 25.2904 28.9853 25.2257 29.0285C25.161 29.0717 25.0849 29.0948 25.0071 29.0948C24.9028 29.0947 24.8027 29.0532 24.729 28.9794C24.6552 28.9057 24.6137 28.8057 24.6136 28.7013Z" fill="#6C7B88"/>
<path d="M15.2563 38.476L15.8414 37.7064L15.472 37.497L15.0962 38.3587H15.084L14.7023 37.5033L14.3266 37.7186L14.9054 38.4697V38.4823L14 38.365V38.7837L14.9113 38.6668V38.679L14.3266 39.4301L14.6772 39.6517L15.0777 38.7837H15.0899L15.4594 39.6454L15.8473 39.4238L15.2563 38.6853V38.6727L16.1857 38.7837V38.365L15.2563 38.4882V38.476Z" fill="#86EAAA"/>
<path d="M38.8477 12.7598L38.5109 13.1923L38.7132 13.3197L38.9437 12.82H38.9508L39.1633 13.3162L39.3868 13.1887L39.0464 12.763V12.7559L39.5815 12.82V12.5788L39.0464 12.6497V12.6426L39.3832 12.1995L39.1708 12.0791L38.9544 12.5753H38.9473L38.7277 12.0823L38.5109 12.2066L38.8446 12.639V12.6461L38.3232 12.5788V12.82L38.8477 12.7528V12.7598Z" fill="#86EAAA"/>
<path d="M72.0793 30.096V29.6852L71.1676 29.806V29.7942L71.7413 29.0391L71.3789 28.8341L71.0106 29.6793H70.9984L70.6243 28.84L70.2556 29.0513L70.8234 29.7883V29.8001L69.9353 29.6852V30.096L70.8293 29.9815V29.9933L70.2556 30.7298L70.5999 30.9474L70.9925 30.096H71.0043L71.3667 30.9411L71.7472 30.7239L71.1676 29.9992V29.9874L72.0793 30.096Z" fill="#86EAAA"/>
<path d="M50.9307 19.9401L51.4257 19.2889L51.1132 19.1118L50.7953 19.8409H50.7851L50.4621 19.117L50.1441 19.2995L50.634 19.935V19.9452L49.8679 19.8464V20.2006L50.6391 20.1018V20.112L50.1441 20.7475L50.4408 20.9352L50.78 20.2006H50.7898L51.1026 20.9297L51.4308 20.7424L50.9307 20.1172V20.1069L51.7172 20.2006V19.8464L50.9307 19.9503V19.9401Z" fill="#86EAAA"/>
<circle cx="4.88889" cy="4.88889" r="4.13889" transform="matrix(-1 0 0 1 41.0667 46.9333)" stroke="#86EAAA" stroke-width="1.5"/>
<path d="M32.7555 30.8L28.3555 41.0667V61.1111H43.511" stroke="#2D4356" stroke-width="1.5"/>
<path d="M30.7998 30.8H42.0442V25.9111H30.7998V30.8Z" stroke="#2D4356" stroke-width="1.5"/>
<path d="M40.0889 30.8L44.9778 41.5555V52.8" stroke="#2D4356" stroke-width="1.5"/>
<path d="M28.3555 45.4666C29.4962 44.4888 32.3644 42.7288 34.711 43.511C37.6444 44.4888 41.5555 45.4667 44.9777 42.5333" stroke="#2D4356" stroke-width="1.5"/>
<path d="M43.0222 36.6667C43.4133 36.6667 56.2222 36.6667 62.5778 36.6667C63.7185 36.6667 65.9022 37.3511 65.5111 40.0889C65.12 41.6533 63.3926 42.3704 62.5778 42.5333V61.1111H57.6889" stroke="#2D4356" stroke-width="1.5"/>
<path d="M53.2887 47.9111C51.985 47.9111 49.5732 48.9867 50.3554 55.2444" stroke="#2D4356" stroke-width="1.5"/>
<path d="M43.5111 54.7555C44.6844 52.0177 48.5629 51.9851 50.3555 52.311C54.2666 52.3111 53.6341 52.1002 55.7333 52.8C58.6666 53.7778 59.1555 61.1111 56.2222 63.0666C53.8755 64.6311 51.3333 63.3926 50.3555 62.5778C50.1926 63.0666 49.1822 63.9466 46.4444 63.5555C43.0222 63.0666 42.0444 58.1777 43.5111 54.7555Z" stroke="#2D4356" stroke-width="1.5"/>
</svg>
