<svg width="88" height="88" viewBox="0 0 88 88" fill="none" xmlns="http://www.w3.org/2000/svg">
<circle opacity="0.05" cx="44" cy="44" r="44" fill="#0B82E6"/>
<path d="M15.1804 21.146C15.4139 21.146 15.6421 21.0767 15.8362 20.947C16.0303 20.8173 16.1816 20.633 16.2709 20.4173C16.3603 20.2016 16.3837 19.9643 16.3381 19.7353C16.2926 19.5063 16.1801 19.296 16.0151 19.1309C15.85 18.9658 15.6397 18.8534 15.4107 18.8078C15.1817 18.7623 14.9444 18.7857 14.7287 18.875C14.513 18.9644 14.3286 19.1157 14.1989 19.3098C14.0692 19.5039 14 19.7321 14 19.9656C14.0004 20.2785 14.1248 20.5785 14.3461 20.7998C14.5674 21.0211 14.8674 21.1456 15.1804 21.146ZM15.1804 19.3754C15.2971 19.3754 15.4112 19.41 15.5083 19.4748C15.6053 19.5397 15.681 19.6319 15.7257 19.7397C15.7703 19.8475 15.782 19.9662 15.7593 20.0807C15.7365 20.1952 15.6803 20.3004 15.5977 20.3829C15.5152 20.4654 15.41 20.5216 15.2955 20.5444C15.1811 20.5672 15.0624 20.5555 14.9545 20.5108C14.8467 20.4662 14.7545 20.3905 14.6897 20.2935C14.6248 20.1964 14.5902 20.0823 14.5902 19.9656C14.5904 19.8091 14.6526 19.659 14.7632 19.5484C14.8739 19.4377 15.0239 19.3755 15.1804 19.3754ZM73.2596 40.5053C73.1039 40.5053 72.9518 40.5514 72.8224 40.6379C72.693 40.7244 72.5921 40.8473 72.5325 40.9911C72.473 41.1349 72.4574 41.2931 72.4877 41.4457C72.5181 41.5984 72.5931 41.7386 72.7031 41.8487C72.8132 41.9587 72.9534 42.0337 73.106 42.064C73.2587 42.0944 73.4169 42.0788 73.5607 42.0192C73.7045 41.9597 73.8274 41.8588 73.9139 41.7294C74.0003 41.6 74.0465 41.4478 74.0465 41.2922C74.0462 41.0836 73.9633 40.8836 73.8157 40.736C73.6682 40.5885 73.4682 40.5055 73.2596 40.5053ZM73.2596 41.6857C73.1817 41.6857 73.1057 41.6626 73.041 41.6194C72.9763 41.5761 72.9258 41.5147 72.896 41.4428C72.8663 41.3709 72.8585 41.2918 72.8737 41.2154C72.8888 41.1391 72.9263 41.069 72.9813 41.014C73.0364 40.959 73.1065 40.9215 73.1828 40.9063C73.2591 40.8911 73.3382 40.8989 73.4101 40.9287C73.482 40.9585 73.5435 41.0089 73.5867 41.0736C73.6299 41.1383 73.653 41.2144 73.653 41.2922C73.6529 41.3965 73.6114 41.4965 73.5377 41.5703C73.4639 41.6441 73.3639 41.6856 73.2596 41.6857ZM60.5487 30.2752C60.393 30.2752 60.2409 30.3213 60.1115 30.4078C59.9821 30.4943 59.8812 30.6172 59.8216 30.761C59.7621 30.9048 59.7465 31.063 59.7768 31.2156C59.8072 31.3683 59.8822 31.5085 59.9922 31.6186C60.1023 31.7286 60.2425 31.8036 60.3951 31.8339C60.5478 31.8643 60.706 31.8487 60.8498 31.7891C60.9936 31.7296 61.1165 31.6287 61.203 31.4993C61.2894 31.3699 61.3356 31.2178 61.3356 31.0621C61.3354 30.8535 61.2524 30.6535 61.1048 30.5059C60.9573 30.3584 60.7573 30.2754 60.5487 30.2752ZM60.5487 31.4556C60.4708 31.4556 60.3948 31.4325 60.3301 31.3893C60.2654 31.346 60.2149 31.2846 60.1851 31.2127C60.1554 31.1408 60.1476 31.0617 60.1628 30.9854C60.1779 30.909 60.2154 30.8389 60.2704 30.7839C60.3255 30.7289 60.3956 30.6914 60.4719 30.6762C60.5482 30.661 60.6273 30.6688 60.6992 30.6986C60.7711 30.7284 60.8326 30.7788 60.8758 30.8435C60.919 30.9082 60.9421 30.9843 60.9421 31.0621C60.942 31.1664 60.9005 31.2665 60.8268 31.3402C60.753 31.414 60.653 31.4555 60.5487 31.4556ZM73.2596 17.2908C73.1039 17.2908 72.9518 17.337 72.8224 17.4235C72.693 17.5099 72.5921 17.6328 72.5325 17.7766C72.473 17.9204 72.4574 18.0786 72.4877 18.2313C72.5181 18.3839 72.5931 18.5242 72.7031 18.6342C72.8132 18.7443 72.9534 18.8192 73.106 18.8496C73.2587 18.8799 73.4169 18.8644 73.5607 18.8048C73.7045 18.7452 73.8274 18.6444 73.9139 18.515C74.0003 18.3855 74.0465 18.2334 74.0465 18.0778C74.0462 17.8691 73.9633 17.6691 73.8157 17.5216C73.6682 17.3741 73.4682 17.2911 73.2596 17.2908ZM73.2596 18.4712C73.1817 18.4712 73.1057 18.4482 73.041 18.4049C72.9763 18.3617 72.9258 18.3002 72.896 18.2283C72.8663 18.1564 72.8585 18.0773 72.8737 18.001C72.8888 17.9247 72.9263 17.8546 72.9813 17.7995C73.0364 17.7445 73.1065 17.707 73.1828 17.6919C73.2591 17.6767 73.3382 17.6845 73.4101 17.7142C73.482 17.744 73.5435 17.7945 73.5867 17.8592C73.6299 17.9239 73.653 17.9999 73.653 18.0778C73.6529 18.1821 73.6114 18.2821 73.5377 18.3559C73.4639 18.4296 73.3639 18.4711 73.2596 18.4712ZM25.794 28.7013C25.794 28.5457 25.7479 28.3935 25.6614 28.2641C25.5749 28.1347 25.452 28.0339 25.3082 27.9743C25.1644 27.9147 25.0062 27.8991 24.8536 27.9295C24.7009 27.9599 24.5607 28.0348 24.4506 28.1449C24.3406 28.2549 24.2656 28.3952 24.2353 28.5478C24.2049 28.7004 24.2205 28.8587 24.28 29.0025C24.3396 29.1463 24.4405 29.2692 24.5699 29.3556C24.6993 29.4421 24.8514 29.4883 25.0071 29.4883C25.2157 29.488 25.4157 29.405 25.5633 29.2575C25.7108 29.11 25.7938 28.91 25.794 28.7013ZM24.6136 28.7013C24.6136 28.6235 24.6367 28.5474 24.6799 28.4827C24.7232 28.418 24.7846 28.3676 24.8565 28.3378C24.9284 28.308 25.0075 28.3002 25.0838 28.3154C25.1602 28.3306 25.2303 28.3681 25.2853 28.4231C25.3403 28.4781 25.3778 28.5482 25.393 28.6246C25.4082 28.7009 25.4004 28.78 25.3706 28.8519C25.3408 28.9238 25.2904 28.9852 25.2257 29.0285C25.161 29.0717 25.0849 29.0948 25.0071 29.0948C24.9028 29.0947 24.8027 29.0532 24.729 28.9794C24.6552 28.9057 24.6137 28.8056 24.6136 28.7013Z" fill="#6C7B88"/>
<path d="M15.2563 38.476L15.8414 37.7064L15.472 37.497L15.0962 38.3587H15.084L14.7023 37.5033L14.3266 37.7186L14.9054 38.4697V38.4823L14 38.365V38.7837L14.9113 38.6668V38.679L14.3266 39.4301L14.6772 39.6517L15.0777 38.7837H15.0899L15.4594 39.6454L15.8473 39.4238L15.2563 38.6853V38.6727L16.1857 38.7837V38.365L15.2563 38.4882V38.476Z" fill="#86EAAA"/>
<path d="M38.8477 12.7598L38.5109 13.1922L38.7132 13.3197L38.9437 12.82H38.9508L39.1633 13.3162L39.3868 13.1887L39.0464 12.763V12.7559L39.5815 12.82V12.5788L39.0464 12.6497V12.6426L39.3832 12.1995L39.1708 12.0791L38.9544 12.5753H38.9473L38.7277 12.0823L38.5109 12.2066L38.8446 12.639V12.6461L38.3232 12.5788V12.82L38.8477 12.7527V12.7598Z" fill="#86EAAA"/>
<path d="M72.0793 30.0959V29.6852L71.1676 29.806V29.7942L71.7413 29.0391L71.3789 28.8341L71.0106 29.6793H70.9984L70.6243 28.84L70.2556 29.0513L70.8234 29.7883V29.8001L69.9353 29.6852V30.0959L70.8293 29.9815V29.9933L70.2556 30.7298L70.5999 30.9474L70.9925 30.0959H71.0043L71.3667 30.9411L71.7472 30.7239L71.1676 29.9992V29.9874L72.0793 30.0959Z" fill="#86EAAA"/>
<path d="M50.9307 19.9401L51.4257 19.2889L51.1132 19.1118L50.7953 19.8409H50.7851L50.4621 19.117L50.1441 19.2995L50.634 19.935V19.9452L49.8679 19.8464V20.2006L50.6391 20.1018V20.112L50.1441 20.7475L50.4408 20.9352L50.78 20.2006H50.7898L51.1026 20.9297L51.4308 20.7424L50.9307 20.1172V20.1069L51.7172 20.2006V19.8464L50.9307 19.9503V19.9401Z" fill="#86EAAA"/>
<g clip-path="url(#clip0_335_3535)">
<path d="M63.5625 22.6036C62.2394 22.9235 62.1693 22.9892 57.753 27.5255C55.5537 29.7896 53.7311 31.6435 53.6873 31.6599C53.6522 31.6763 53.3543 31.586 53.0301 31.463C52.5482 31.2825 52.2502 31.2333 51.5142 31.2005C50.3663 31.1595 49.788 31.2661 48.8679 31.6927C48.0881 32.0618 46.9665 32.9806 46.6949 33.481L46.5371 33.7681L44.2239 34.3341C41.6389 34.9657 41.5864 34.9903 41.1658 35.8024C40.8328 36.4751 40.7014 37.279 40.7715 38.3208C41.008 42.1845 43.9259 46.0317 47.9304 47.7872C49.455 48.4517 51.1024 48.8208 52.5657 48.8208C53.4069 48.8208 54.0378 48.6813 54.7212 48.3614C55.5274 47.9759 55.5449 47.9431 56.2109 45.5478L56.8155 43.3903L57.1309 43.2427C57.5953 43.013 58.6293 41.9384 58.9885 41.2985C59.4617 40.4454 59.6019 39.8384 59.5581 38.772C59.5231 38.0337 59.4705 37.7712 59.2777 37.3118C59.1463 37.0083 59.0499 36.7294 59.0674 36.6884C59.0849 36.6556 61.0652 34.9493 63.4749 32.8903C68.0401 29.0103 68.2592 28.797 68.6097 27.8536C69.4421 25.6388 68.0401 23.2188 65.5779 22.6118C64.9645 22.4642 64.1671 22.4642 63.5625 22.6036ZM65.683 24.1294C66.2263 24.3427 66.866 24.9497 67.1376 25.5075C67.2866 25.8028 67.3304 26.0407 67.3216 26.5493C67.3216 27.3368 67.1113 27.7962 66.5067 28.395C66.1562 28.7396 58.6381 35.138 58.235 35.4415C58.086 35.5481 57.9458 35.4333 56.5 34.088C55.6413 33.2841 54.9315 32.595 54.9315 32.5704C54.9315 32.4884 62.1167 25.081 62.5987 24.6544C62.993 24.3099 63.4399 24.072 63.913 23.9571C64.3512 23.8505 65.2011 23.9325 65.683 24.1294ZM52.7409 32.8657C53.2404 33.0708 53.5471 33.3251 55.3521 34.9903C57.1923 36.6966 57.4288 36.9427 57.718 37.4923C58.0334 38.0911 58.0422 38.1321 58.0422 39.0099C58.0422 39.8548 58.0247 39.9614 57.7706 40.4536C57.6216 40.7571 57.2799 41.2083 57.0082 41.479L56.5175 41.9712L52.2853 38.0091L48.053 34.047L48.5613 33.5958C49.455 32.8165 50.1385 32.5704 51.3389 32.6032C52.0312 32.6278 52.2678 32.6688 52.7409 32.8657ZM51.225 38.9935C53.5033 41.1263 55.3697 42.9146 55.3697 42.9638C55.3697 43.0458 54.4058 46.5403 54.2656 46.9505C54.1517 47.3114 52.7234 47.5165 51.5054 47.3442C51.1024 47.295 50.7431 47.2294 50.7168 47.213C50.6818 47.1966 50.8307 46.5978 51.041 45.8923C51.2513 45.1786 51.4266 44.5142 51.4266 44.4157C51.4266 44.104 51.0586 43.7841 50.6905 43.7841C50.1735 43.7841 50.0509 43.981 49.6303 45.4165C49.42 46.122 49.2272 46.7208 49.2097 46.7372C49.087 46.8521 47.3082 45.9333 46.4933 45.3263L45.9763 44.9489L47.2995 43.6938C48.5525 42.5044 48.6226 42.4224 48.6226 42.1188C48.6226 41.6185 48.1494 41.2821 47.6763 41.4462C47.5448 41.4872 46.8613 42.0696 46.1604 42.7259L44.8723 43.9153L44.5043 43.4806C43.8033 42.6521 42.8219 41.0196 42.9533 40.8966C42.9796 40.872 43.6192 40.6915 44.3816 40.4946C45.9062 40.1009 46.1165 39.9778 46.1165 39.5021C46.1165 39.1575 45.7748 38.813 45.4418 38.813C45.3367 38.813 44.6795 38.9606 43.9785 39.1411C43.2775 39.3216 42.6466 39.4692 42.5678 39.4692C42.2173 39.4692 42.1296 37.279 42.4538 36.5243C42.5765 36.2372 42.6466 36.1716 42.9621 36.0978C45.1877 35.5235 46.7737 35.138 46.9139 35.1298C47.0366 35.1216 48.3948 36.3438 51.225 38.9935Z" fill="#86EAAA"/>
<path d="M29.4765 23.4321C29.0647 23.8095 29.1611 24.0556 30.0198 24.8759C30.6594 25.4911 30.8259 25.606 31.0537 25.606C31.5006 25.606 31.7985 25.3353 31.7985 24.9251C31.7985 24.6134 31.746 24.5396 31.0713 23.9079C30.4141 23.3009 30.3089 23.2271 30.011 23.2271C29.7832 23.2271 29.6255 23.2845 29.4765 23.4321Z" fill="#2D4356"/>
<path d="M33.4022 23.8997C32.9991 24.2688 32.6486 24.6626 32.6223 24.761C32.5522 24.9989 32.7363 25.4255 32.9466 25.5239C33.0342 25.5731 33.2269 25.606 33.3847 25.606C33.6125 25.606 33.7877 25.4911 34.4011 24.9333C34.8042 24.5642 35.1547 24.1704 35.181 24.072C35.2511 23.8341 35.0671 23.4075 34.8568 23.3091C34.7691 23.2599 34.5764 23.2271 34.4186 23.2271C34.1908 23.2271 34.0156 23.3419 33.4022 23.8997Z" fill="#2D4356"/>
<path d="M46.4756 23.4239C45.2664 23.9571 44.6793 25.204 45.0824 26.3935C45.2927 27.0497 46.0112 27.7306 46.6859 27.9439C47.5972 28.2228 48.6137 28.0177 49.3585 27.4024C50.1471 26.7626 50.3837 25.5157 49.9105 24.6052C49.6126 24.0474 49.0255 23.5306 48.4735 23.3583C47.8601 23.1614 47.0014 23.186 46.4756 23.4239ZM48.158 24.7856C48.5173 24.9825 48.6487 25.2286 48.64 25.6552C48.6312 26.4755 47.7287 26.9349 46.9839 26.5083C46.3354 26.1392 46.2566 25.3681 46.8174 24.8923C47.1942 24.5642 47.7111 24.5231 48.158 24.7856Z" fill="#2D4356"/>
<path d="M30.0287 27.0661C29.354 27.6978 29.2576 27.829 29.2576 28.0751C29.2663 28.3868 29.3802 28.5673 29.6782 28.715C30.0374 28.8954 30.3353 28.7478 31.0977 28.0259C31.7549 27.4107 31.8337 27.2958 31.8337 27.0333C31.8337 26.656 31.4832 26.3443 31.0802 26.3443C30.8436 26.3443 30.6683 26.4673 30.0287 27.0661Z" fill="#2D4356"/>
<path d="M32.9027 26.5247C32.7713 26.6313 32.6486 26.8364 32.6223 26.9841C32.5698 27.2302 32.6136 27.2958 33.3321 27.9767C33.7527 28.3786 34.1908 28.7313 34.3047 28.756C34.7867 28.8708 35.3036 28.395 35.181 27.9438C35.1459 27.8208 34.8568 27.4599 34.5326 27.1399C33.6738 26.3114 33.3233 26.1802 32.9027 26.5247Z" fill="#2D4356"/>
<path d="M40.0091 26.9513C39.8338 27.0087 39.5534 27.1563 39.3957 27.263C39.2467 27.3778 35.9258 29.6747 32.0177 32.3735C28.1184 35.0724 24.815 37.361 24.6836 37.4513C24.263 37.763 24.0614 38.1978 24.1053 38.6981C24.1754 39.5103 24.6573 39.904 25.6299 39.945L26.2783 39.9778V51.6755C26.2783 63.1763 26.2783 63.3731 26.4536 63.7013C26.55 63.8899 26.769 64.1278 26.953 64.2427L27.2773 64.4478L40.3858 64.4724L53.4944 64.4888L53.8887 64.3001C54.1253 64.1771 54.3444 63.9884 54.4671 63.7833L54.6686 63.4634V56.9993V50.5353L54.4495 50.3384C54.2392 50.1333 53.88 50.0759 53.5733 50.1825C53.179 50.3302 53.179 50.3302 53.179 56.9009V63.0942H52.0924H51.0059L50.9709 59.5915C50.9358 56.2692 50.9183 56.0478 50.743 55.5392C49.7178 52.6106 45.8536 51.6345 43.4615 53.7099C42.8568 54.2267 42.4801 54.7517 42.2084 55.4325C42.0157 55.9001 42.0157 56.0313 41.9806 59.5095L41.9543 63.0942H34.8568H27.7679V51.5278V39.9614H33.3321H38.905L39.1153 39.7563C39.3957 39.5021 39.3957 39.1411 39.1241 38.8376L38.9138 38.6079L32.2806 38.5669L25.6474 38.5259L27.9081 36.9591C29.1612 36.0978 32.4821 33.8009 35.2861 31.8485C38.0989 29.9044 40.4384 28.313 40.4822 28.313C40.526 28.313 41.6301 29.0595 42.9357 29.9618C44.2501 30.8724 45.4242 31.6763 45.5557 31.7419C46.2041 32.0946 46.9401 31.2415 46.4582 30.7083C46.2742 30.5114 41.5162 27.2056 41.1745 27.0415C40.8064 26.861 40.3683 26.8282 40.0091 26.9513ZM47.7901 54.3087C48.4035 54.5958 48.8504 55.0224 49.1658 55.6212C49.3673 55.9903 49.3673 56.056 49.3936 59.5423L49.4199 63.0942H46.4319H43.4439L43.4702 59.6325L43.4965 56.1626L43.7506 55.654C44.4691 54.1856 46.2391 53.595 47.7901 54.3087Z" fill="#2D4356"/>
<path d="M46.6597 57.7704C46.4494 58.0001 46.4319 58.0739 46.4319 58.8532C46.4319 59.7802 46.5195 60.0427 46.9051 60.2067C47.1855 60.338 47.5097 60.2806 47.7462 60.0591C47.904 59.9114 47.9215 59.7802 47.9215 58.9106C47.9215 57.9673 47.9127 57.9098 47.7024 57.7212C47.387 57.4177 46.9489 57.4423 46.6597 57.7704Z" fill="#2D4356"/>
<path d="M63.834 39.5595C63.6237 39.7892 63.6062 39.863 63.6062 40.6423C63.6062 41.1509 63.65 41.561 63.7201 41.6841C63.9567 42.127 64.5438 42.2009 64.9206 41.8481C65.0783 41.7005 65.0958 41.5692 65.0958 40.6997C65.0958 39.7563 65.0871 39.6989 64.8768 39.5102C64.5613 39.2067 64.1232 39.2313 63.834 39.5595Z" fill="#2D4356"/>
<path d="M30.2652 42.2993L30.0461 42.4962V46.3024V50.1087L30.2477 50.281C30.4492 50.4614 30.4667 50.4614 34.4887 50.4614C38.3354 50.4614 38.5369 50.4532 38.7297 50.3056L38.94 50.1497L38.9663 46.3599L38.9926 42.5782L38.7297 42.3403L38.4756 42.0942H34.4712H30.4755L30.2652 42.2993ZM33.7264 44.5552V45.6216H32.6311H31.5358V44.5552V43.4888H32.6311H33.7264V44.5552ZM37.4942 44.5552V45.6298L36.3814 45.6052L35.2598 45.5806L35.2335 44.5306L35.2072 43.4888H36.3551H37.4942V44.5552ZM33.7264 48.0415V49.0669H32.6311H31.5358V48.0415V47.0161H32.6311H33.7264V48.0415ZM37.4942 48.0415V49.0669H36.3551H35.216V48.0415V47.0161H36.3551H37.4942V48.0415Z" fill="#2D4356"/>
<path d="M60.8812 42.3321C60.5482 42.6439 60.5482 42.9392 60.89 43.2591L61.1528 43.5052L62.2131 43.4724C63.2033 43.4478 63.2821 43.4314 63.4398 43.2509C63.6764 42.9802 63.6589 42.5454 63.3873 42.2993C63.1857 42.1025 63.1244 42.0943 62.1605 42.0943C61.1528 42.0943 61.1353 42.0943 60.8812 42.3321Z" fill="#2D4356"/>
<path d="M65.3938 42.2911C65.052 42.5618 65.052 43.0212 65.3938 43.2919C65.6128 43.4724 65.7092 43.4888 66.638 43.4888C67.5931 43.4888 67.6545 43.4806 67.856 43.2837C68.005 43.1524 68.0751 42.9966 68.0751 42.7915C68.0751 42.5864 68.005 42.4306 67.856 42.2993C67.6545 42.1024 67.5931 42.0942 66.638 42.0942C65.7092 42.0942 65.6128 42.1106 65.3938 42.2911Z" fill="#2D4356"/>
<path d="M63.8955 43.6856C63.6501 43.8825 63.6501 43.8907 63.6501 44.8833C63.6501 45.8759 63.6501 45.8841 63.8955 46.081C64.2197 46.3352 64.6053 46.3352 64.8769 46.0727C65.0872 45.8841 65.0959 45.8267 65.0959 44.8833C65.0959 43.9399 65.0872 43.8825 64.8769 43.6938C64.6053 43.4313 64.2197 43.4313 63.8955 43.6856Z" fill="#2D4356"/>
<path d="M59.3127 47.1556C58.7343 47.3524 57.9895 48.0907 57.7968 48.6485C57.5076 49.5017 57.6828 50.363 58.2874 51.0028C58.8132 51.5606 59.3039 51.7903 60.0575 51.8395C60.8636 51.8888 61.4332 51.7165 61.9764 51.2735C63.3521 50.1333 63.0805 48.0333 61.4419 47.2622C60.9074 47.0079 59.8997 46.9587 59.3127 47.1556ZM60.8987 48.5993C61.7924 49.1653 61.328 50.4614 60.2327 50.4614C59.374 50.4614 58.857 49.5591 59.3389 48.8946C59.707 48.386 60.3554 48.2548 60.8987 48.5993Z" fill="#2D4356"/>
<path d="M30.2652 52.7993L30.0461 52.9962V56.8024V60.6087L30.2477 60.781C30.4492 60.9614 30.4667 60.9614 34.4887 60.9614C38.3354 60.9614 38.5369 60.9532 38.7297 60.8056L38.94 60.6497L38.9663 56.8599L38.9926 53.0782L38.7297 52.8403L38.4756 52.5942H34.4712H30.4755L30.2652 52.7993ZM33.7264 55.0552V56.1216H32.6311H31.5358V55.0552V53.9888H32.6311H33.7264V55.0552ZM37.4942 55.0552V56.1298L36.3814 56.1052L35.2598 56.0806L35.2335 55.0306L35.2072 53.9888H36.3551H37.4942V55.0552ZM33.7264 58.5415V59.5669H32.6311H31.5358V58.5415V57.5161H32.6311H33.7264V58.5415ZM37.4942 58.5415V59.5669H36.3551H35.216V58.5415V57.5161H36.3551H37.4942V58.5415Z" fill="#2D4356"/>
</g>
<defs>
<clipPath id="clip0_335_3535">
<rect width="44.8636" height="42" fill="white" transform="translate(24 22.4888)"/>
</clipPath>
</defs>
</svg>
