<svg width="20" height="18" viewBox="0 0 20 18" fill="none" xmlns="http://www.w3.org/2000/svg">
<path d="M3.14282 5.98215V14.5C3.14282 15.4428 3.14282 15.9142 3.43572 16.2071C3.72861 16.5 4.20001 16.5 5.14282 16.5H15.0714C16.0142 16.5 16.4856 16.5 16.7785 16.2071C17.0714 15.9142 17.0714 15.4428 17.0714 14.5V5.98215" stroke="#2D4356" stroke-width="1.3"/>
<path d="M19.2143 7.64286L10.6964 1.42984C10.3453 1.17373 9.86897 1.17373 9.51784 1.42984L1 7.64286" stroke="#2D4356" stroke-width="1.3" stroke-linecap="round"/>
<path d="M12.7856 15.9464V11.3036C12.7856 10.199 11.8902 9.30357 10.7856 9.30357H9.42847C8.3239 9.30357 7.42847 10.199 7.42847 11.3036V15.9464" stroke="#86EAAA" stroke-width="1.3" stroke-linejoin="round"/>
<path d="M16 4.875V1" stroke="#2D4356" stroke-width="1.3" stroke-linecap="round"/>
</svg>
