<svg width="55" height="55" viewBox="0 0 55 55" fill="none" xmlns="http://www.w3.org/2000/svg">
<path fill-rule="evenodd" clip-rule="evenodd" d="M27.5 55C42.6878 55 55 42.6878 55 27.5C55 12.3122 42.6878 0 27.5 0C12.3122 0 0 12.3122 0 27.5C0 42.6878 12.3122 55 27.5 55Z" fill="#4252FF"/>
<rect x="8.25" y="8.25" width="38.5" height="38.5" fill="#FF0000" fill-opacity="0.01"/>
<path fill-rule="evenodd" clip-rule="evenodd" d="M33.5194 40.6419C31.6759 41.3971 29.6398 41.8191 27.5001 41.8191C18.9931 41.8191 12.1001 35.1705 12.1001 26.9596C12.1001 18.7562 18.9931 12.1001 27.5001 12.1001C36.0071 12.1001 42.9001 18.7562 42.8853 26.9744C42.8853 29.9286 41.9894 32.6828 40.442 35.0002C40.3754 35.0816 40.3162 35.1779 40.2569 35.2741C40.0792 35.5925 39.9682 35.9627 39.9682 36.3551L41.6044 42.9001L35.3852 40.6123C35.1112 40.4939 34.8077 40.4346 34.4893 40.4346C34.2006 40.4346 33.9192 40.4864 33.6601 40.5827C33.6601 40.5901 33.6527 40.5901 33.6453 40.5901C33.6009 40.6049 33.5638 40.6197 33.5194 40.6419ZM36.977 27.5001C36.977 26.1896 35.9183 25.1309 34.6078 25.1309C33.2973 25.1309 32.2386 26.1896 32.2386 27.5001C32.2386 28.8106 33.2973 29.8693 34.6078 29.8693C35.9183 29.8693 36.977 28.8106 36.977 27.5001ZM27.5001 25.1309C28.8106 25.1309 29.8693 26.1896 29.8693 27.5001C29.8693 28.8106 28.8106 29.8693 27.5001 29.8693C26.1896 29.8693 25.1309 28.8106 25.1309 27.5001C25.1309 26.1896 26.1896 25.1309 27.5001 25.1309ZM22.7616 27.5001C22.7616 26.1896 21.7029 25.1309 20.3924 25.1309C19.0819 25.1309 18.0232 26.1896 18.0232 27.5001C18.0232 28.8106 19.0819 29.8693 20.3924 29.8693C21.7029 29.8693 22.7616 28.8106 22.7616 27.5001Z" fill="black"/>
<mask id="mask0_1313_33158" style="mask-type:luminance" maskUnits="userSpaceOnUse" x="12" y="12" width="31" height="31">
<path fill-rule="evenodd" clip-rule="evenodd" d="M33.5194 40.6419C31.6759 41.3971 29.6398 41.8191 27.5001 41.8191C18.9931 41.8191 12.1001 35.1705 12.1001 26.9596C12.1001 18.7562 18.9931 12.1001 27.5001 12.1001C36.0071 12.1001 42.9001 18.7562 42.8853 26.9744C42.8853 29.9286 41.9894 32.6828 40.442 35.0002C40.3754 35.0816 40.3162 35.1779 40.2569 35.2741C40.0792 35.5925 39.9682 35.9627 39.9682 36.3551L41.6044 42.9001L35.3852 40.6123C35.1112 40.4939 34.8077 40.4346 34.4893 40.4346C34.2006 40.4346 33.9192 40.4864 33.6601 40.5827C33.6601 40.5901 33.6527 40.5901 33.6453 40.5901C33.6009 40.6049 33.5638 40.6197 33.5194 40.6419ZM36.977 27.5001C36.977 26.1896 35.9183 25.1309 34.6078 25.1309C33.2973 25.1309 32.2386 26.1896 32.2386 27.5001C32.2386 28.8106 33.2973 29.8693 34.6078 29.8693C35.9183 29.8693 36.977 28.8106 36.977 27.5001ZM27.5001 25.1309C28.8106 25.1309 29.8693 26.1896 29.8693 27.5001C29.8693 28.8106 28.8106 29.8693 27.5001 29.8693C26.1896 29.8693 25.1309 28.8106 25.1309 27.5001C25.1309 26.1896 26.1896 25.1309 27.5001 25.1309ZM22.7616 27.5001C22.7616 26.1896 21.7029 25.1309 20.3924 25.1309C19.0819 25.1309 18.0232 26.1896 18.0232 27.5001C18.0232 28.8106 19.0819 29.8693 20.3924 29.8693C21.7029 29.8693 22.7616 28.8106 22.7616 27.5001Z" fill="white"/>
</mask>
<g mask="url(#mask0_1313_33158)">
<rect x="8.25" y="8.25" width="38.5" height="38.5" fill="white"/>
</g>
</svg>
