<svg width="52" height="34" viewBox="0 0 52 34" fill="none" xmlns="http://www.w3.org/2000/svg">
<path d="M7.5075 15.5265L12.9458 14.0098L9.1975 11.854L7.30167 13.6848L7.5075 15.5265Z" fill="#2D3134"/>
<path d="M28.3508 26.338L33.7892 24.8214L30.03 22.6655L28.1342 24.4964L28.3508 26.338Z" fill="#2D3134"/>
<path opacity="0.29" d="M7.5075 15.5265L12.9458 14.0098L9.1975 11.854L7.30167 13.6848L7.5075 15.5265Z" fill="black"/>
<path opacity="0.29" d="M28.3508 26.338L33.7892 24.8214L30.03 22.6655L28.1342 24.4964L28.3508 26.338Z" fill="black"/>
<path d="M32.3266 24.1821C31.6008 23.8138 30.94 23.7704 30.4525 23.9979L29.4233 24.5504C28.9033 24.7888 28.5675 25.3196 28.5675 26.0996C28.5675 27.6054 29.7916 29.4471 31.2975 30.1946C32.045 30.5629 32.7166 30.6063 33.215 30.3679C33.215 30.3679 34.2333 29.8263 34.3416 29.7613C34.7858 29.5013 35.0566 28.9921 35.0566 28.2879C35.0566 26.7713 33.8325 24.9404 32.3266 24.1821Z" fill="#2D3134"/>
<path opacity="0.29" d="M33.2475 30.357C33.4425 30.2595 34.2442 29.8262 34.3417 29.7612C34.7858 29.5012 35.0567 28.992 35.0567 28.2878C35.0567 27.6812 34.8617 27.0203 34.5258 26.4028L33.4967 26.9553C33.8325 27.5728 34.0275 28.2337 34.0275 28.8403C34.0383 29.577 33.735 30.1078 33.2475 30.357Z" fill="black"/>
<path d="M34.0383 28.8404C34.0383 30.3463 32.8142 30.9638 31.3083 30.2054C29.8025 29.4471 28.5783 27.6163 28.5783 26.1104C28.5783 24.6046 29.8025 23.9871 31.3083 24.7454C32.8142 25.4929 34.0383 27.3346 34.0383 28.8404Z" fill="#2D3134"/>
<path d="M33.4317 28.537C33.4317 29.7179 32.4783 30.1945 31.2975 29.6095C30.1167 29.0245 29.1633 27.5837 29.1633 26.4029C29.1633 25.222 30.1167 24.7454 31.2975 25.3304C32.4783 25.9262 33.4317 27.3562 33.4317 28.537Z" fill="#E5E5E5"/>
<path d="M32.7058 29.4904C33.0308 29.3062 33.2258 28.9487 33.2258 28.4396C33.2258 28.3962 33.2258 28.3529 33.2258 28.3204L32.0341 28.1362L32.7058 29.4904Z" fill="#2D3134"/>
<path d="M31.7525 27.1397L32.9983 27.4106C32.7383 26.7931 32.2725 26.1864 31.7092 25.7964L31.7525 27.1397Z" fill="#2D3134"/>
<path d="M30.8533 26.6953L30.8967 25.3953C30.3333 25.2328 29.8675 25.3628 29.6075 25.7203L30.8533 26.6953Z" fill="#2D3134"/>
<path d="M29.38 26.3921C29.38 26.4354 29.38 26.4679 29.38 26.5113C29.38 27.0204 29.575 27.5729 29.9 28.0821L30.5825 27.4104L29.38 26.3921Z" fill="#2D3134"/>
<path d="M31.2975 28.2881L30.5608 28.8839C30.7883 29.0898 31.0375 29.2631 31.2975 29.3931C31.5575 29.5231 31.8067 29.5989 32.0342 29.6098L31.2975 28.2881Z" fill="#2D3134"/>
<path opacity="0.11" d="M34.0383 28.8404C34.0383 30.3463 32.8142 30.9638 31.3083 30.2054C29.8025 29.4471 28.5783 27.6163 28.5783 26.1104C28.5783 24.6046 29.8025 23.9871 31.3083 24.7454C32.8142 25.4929 34.0383 27.3346 34.0383 28.8404Z" fill="black"/>
<path d="M11.505 13.7065C10.7792 13.3382 10.1183 13.2949 9.63082 13.5224L8.60165 14.0749C8.08165 14.3132 7.74582 14.844 7.74582 15.624C7.74582 17.1299 8.96999 18.9715 10.4758 19.719C11.2233 20.0874 11.895 20.1307 12.3933 19.8924C12.3933 19.8924 13.4117 19.3507 13.52 19.2857C13.9642 19.0257 14.235 18.5165 14.235 17.8124C14.2458 16.2957 13.0217 14.4649 11.505 13.7065Z" fill="#2D3134"/>
<path opacity="0.29" d="M12.4367 19.8814C12.6317 19.7839 13.4333 19.3506 13.5308 19.2856C13.975 19.0256 14.2458 18.5164 14.2458 17.8122C14.2458 17.2056 14.0508 16.5447 13.715 15.9272L12.6858 16.4797C13.0217 17.0972 13.2167 17.7581 13.2167 18.3647C13.2167 19.1014 12.9133 19.6214 12.4367 19.8814Z" fill="black"/>
<path d="M13.2167 18.3541C13.2167 19.8599 11.9925 20.4774 10.4867 19.7191C8.98082 18.9608 7.75665 17.1299 7.75665 15.6241C7.75665 14.1183 8.98082 13.5008 10.4867 14.2591C11.9925 15.0174 13.2167 16.8483 13.2167 18.3541Z" fill="#2D3134"/>
<path d="M12.6208 18.0615C12.6208 19.2423 11.6675 19.719 10.4867 19.134C9.30583 18.549 8.35249 17.1081 8.35249 15.9273C8.35249 14.7465 9.30583 14.2698 10.4867 14.8548C11.6675 15.4398 12.6208 16.8806 12.6208 18.0615Z" fill="#E5E5E5"/>
<path d="M11.895 19.0041C12.22 18.8199 12.415 18.4624 12.415 17.9532C12.415 17.9099 12.415 17.8666 12.415 17.8341L11.2233 17.6499L11.895 19.0041Z" fill="#2D3134"/>
<path d="M10.9308 16.6534L12.1766 16.9242C11.9166 16.3067 11.4508 15.7001 10.8875 15.3101L10.9308 16.6534Z" fill="#2D3134"/>
<path d="M10.0425 16.209L10.0858 14.909C9.52248 14.7465 9.05665 14.8765 8.79665 15.234L10.0425 16.209Z" fill="#2D3134"/>
<path d="M8.56915 15.9058C8.56915 15.9491 8.56915 15.9816 8.56915 16.0249C8.56915 16.5341 8.76415 17.0866 9.08915 17.5958L9.77165 16.9241L8.56915 15.9058Z" fill="#2D3134"/>
<path d="M10.4867 17.8125L9.74998 18.4083C9.97748 18.6142 10.2267 18.7875 10.4867 18.9175C10.7467 19.0475 10.9958 19.1233 11.2233 19.1342L10.4867 17.8125Z" fill="#2D3134"/>
<path opacity="0.11" d="M13.2167 18.3541C13.2167 19.8599 11.9925 20.4774 10.4867 19.7191C8.98082 18.9608 7.75665 17.1299 7.75665 15.6241C7.75665 14.1183 8.98082 13.5008 10.4867 14.2591C11.9925 15.0174 13.2167 16.8483 13.2167 18.3541Z" fill="black"/>
<path d="M47.775 18.1915C45.6841 16.3281 36.6708 9.24313 35.165 8.1273C33.6591 7.01147 28.21 3.58814 24.5483 2.64564C20.8867 1.70314 20.4317 2.25564 19.6842 2.09314C18.9367 1.93064 16.7158 1.41064 13.4442 2.41814C12.0467 2.85147 10.3892 3.32814 9.03499 4.54147C7.23666 6.1448 5.84999 8.63647 5.17833 9.99063L5.03749 10.4456C4.78833 11.2581 4.89666 12.1465 5.32999 12.8723C5.69833 13.4898 6.16416 14.2048 6.51083 14.5948C6.81416 14.9306 7.18249 15.2881 7.49666 15.5915C7.49666 15.5698 7.49666 15.5373 7.49666 15.5156C7.49666 14.3673 8.16833 13.6306 9.20832 13.6306C9.61999 13.6306 10.0642 13.7498 10.5192 13.9773C12.09 14.7573 13.3575 16.6748 13.3575 18.2456C13.3575 18.4515 13.3358 18.6465 13.2925 18.8306L28.34 26.349C28.3292 26.2298 28.3183 26.1106 28.3183 26.0023C28.3183 24.854 28.99 24.1173 30.03 24.1173C30.4417 24.1173 30.8858 24.2365 31.3408 24.464C32.9116 25.244 34.1791 27.1615 34.1791 28.7323C34.1791 28.9165 34.1575 29.079 34.125 29.2415L35.3275 29.8373C35.3275 29.8373 37.5808 30.4223 39.0216 30.2923C40.4625 30.1623 43.4308 29.1873 45.8141 28.0065C48.1975 26.8256 50.2125 24.7456 50.2558 23.6623C50.2775 23.2506 49.8658 20.0548 47.775 18.1915Z" fill="#38C274"/>
<path d="M39.4117 11.8538C39.4117 11.8538 39.2817 10.9438 39.4117 10.7055C39.5417 10.478 39.7692 10.1205 40.0617 10.3805C40.3542 10.6405 40.6792 11.388 40.3867 12.0813C40.0942 12.7746 39.4117 11.8538 39.4117 11.8538Z" fill="#2D3134"/>
<path opacity="0.3" d="M6.37 8.30078C6.37 8.30078 13.3467 13.1216 21.3633 17.4333C29.38 21.7449 33.5942 24.1933 33.5942 24.1933L28.6433 19.9466L10.8875 9.58995L6.37 8.30078Z" fill="white"/>
<path d="M11.0608 9.69796L28.6325 19.9571C28.6325 19.9571 26.9317 12.4821 20.93 9.47046C14.9283 6.45879 11.0608 9.69796 11.0608 9.69796Z" fill="#2D3134"/>
<path d="M18.3842 4.15131C20.7242 3.04631 22.6308 2.71047 22.6308 2.48297C22.6308 2.25547 16.6183 1.96297 12.9025 3.82631C9.18667 5.68964 9.37084 7.29297 10.7792 7.11964C12.1875 6.94631 14.0725 6.79464 14.6683 6.50214C15.2642 6.20964 16.3908 5.09381 18.3842 4.15131Z" fill="#2D3134"/>
<path d="M10.7142 6.87068C10.5733 6.87068 10.2375 6.83818 10.1833 6.58902C10.0967 6.22068 10.595 5.19152 13.1192 3.93485C15.8817 2.55902 19.7708 2.45068 20.8975 2.45068C21.4717 2.45068 21.905 2.47235 22.1975 2.50485C22.0458 2.55902 21.8833 2.61318 21.71 2.66735C20.93 2.91652 19.7492 3.29568 18.4383 3.92402C17.1058 4.55235 16.1308 5.27818 15.4917 5.74402C15.1558 5.98235 14.8958 6.17735 14.7117 6.27485C14.2567 6.50235 12.8483 6.65402 11.6133 6.79485C11.3642 6.82735 11.115 6.84902 10.8875 6.87068C10.8225 6.87068 10.7683 6.87068 10.7142 6.87068Z" fill="#656565"/>
<path d="M26.4767 12.6124C26.26 13.2083 29.7375 19.0799 30.8208 19.3724C31.8933 19.6649 35.1325 19.5674 38.3283 17.8016C41.5242 16.0358 42.12 14.6708 41.9575 14.1724C41.795 13.6849 35.6525 8.51743 34.645 8.41993C33.6375 8.32243 26.7367 11.8866 26.4767 12.6124Z" fill="#2D3134"/>
<path opacity="0.2" d="M35.0025 25.3414C35.0025 25.3414 35.4575 24.7347 36.6817 24.5939C37.9058 24.4639 39.4008 24.5831 40.5167 25.5797C41.3508 26.3272 41.6542 26.6414 41.6542 26.6414C41.6542 26.6414 39.2925 27.4106 38.1225 27.2481C36.9633 27.0856 35.0025 25.3414 35.0025 25.3414Z" fill="white"/>
<path d="M35.23 25.1356C35.23 25.1356 35.6525 24.5723 36.7792 24.4531C37.9058 24.334 39.2925 24.4423 40.3217 25.3631C41.0908 26.0456 41.3725 26.3381 41.3725 26.3381C41.3725 26.3381 39.195 27.0531 38.1117 26.9015C37.0283 26.7498 35.23 25.1356 35.23 25.1356Z" fill="#E5E5E5"/>
<path opacity="0.2" d="M48.1433 23.2182C48.1433 23.2182 49.79 21.6799 49.7033 21.2465C49.6167 20.8024 48.3492 18.614 48.1867 18.939C48.0242 19.264 47.6775 19.784 47.8075 20.2282C47.9375 20.6724 48.1758 22.8282 48.1433 23.2182Z" fill="white"/>
<path d="M48.1325 22.915C48.1325 22.915 49.6816 21.3766 49.6058 20.9433C49.5191 20.4991 48.2516 18.3108 48.0891 18.6358C47.9266 18.9608 47.58 19.4808 47.71 19.925C47.84 20.3583 48.165 22.5141 48.1325 22.915Z" fill="#E5E5E5"/>
<path d="M38.3175 29.4039L38.2633 29.8806C38.2633 29.8806 43.1058 29.2631 46.15 27.3889C49.1833 25.5147 49.92 24.0522 49.92 24.0522C49.92 24.0522 47.58 26.5872 44.72 27.7572C41.7191 28.9706 38.3175 29.4039 38.3175 29.4039Z" fill="#2D3134"/>
<path d="M41.2642 13.7716C40.7117 13.2408 39.6608 12.3091 38.3283 11.2366C36.1617 9.48163 34.8941 8.66913 34.5908 8.64746H34.58C34.1358 8.64746 32.37 9.38413 30.3983 10.4025C28.1342 11.5616 26.9208 12.385 26.7475 12.6341C26.7691 12.9375 27.365 14.2266 28.47 16.0033C29.6941 17.9641 30.5825 18.9391 30.875 19.0258C31.0375 19.0691 31.2433 19.1016 31.4817 19.1233C32.9117 18.9066 35.3816 18.3541 37.7867 16.935C39.8233 15.7325 40.7983 14.5733 41.2642 13.7716Z" fill="#656565"/>
<path d="M12.545 9.28629L12.3175 9.96879L19.0775 13.9121L20.1608 9.55712L20.1283 9.51379C18.6983 8.88546 17.29 8.57129 15.9142 8.57129C14.4733 8.58212 13.325 8.93962 12.545 9.28629Z" fill="#656565"/>
<path d="M26.7908 18.4188L27.0617 16.7613C26.9425 16.5122 26.8233 16.263 26.6825 16.003C25.6642 14.0747 23.8658 11.4855 21.0167 9.95801L20.345 14.6488L26.7908 18.4188Z" fill="#656565"/>
<path opacity="0.2" d="M13.6717 12.6233C13.6717 12.9374 13.4117 13.0674 13.0975 12.9158C12.7833 12.7533 12.5233 12.3741 12.5233 12.0491C12.5233 11.7241 12.7833 11.6049 13.0975 11.7566C13.4117 11.9191 13.6717 12.2983 13.6717 12.6233Z" fill="black"/>
<path d="M12.1767 11.6479L11.9275 11.9296C11.9275 11.9296 13.7367 13.1104 13.8992 12.8721C14.0725 12.6446 12.1767 11.6479 12.1767 11.6479Z" fill="#1F5C3A"/>
<path opacity="0.2" d="M21.385 17.0105C21.385 17.3247 21.125 17.4547 20.8108 17.303C20.4967 17.1405 20.2367 16.7614 20.2367 16.4364C20.2367 16.1222 20.4967 15.9922 20.8108 16.1439C21.125 16.3064 21.385 16.6855 21.385 17.0105Z" fill="black"/>
<path d="M19.89 16.0249L19.6408 16.3066C19.6408 16.3066 21.45 17.4874 21.6125 17.2491C21.7858 17.0216 19.89 16.0249 19.89 16.0249Z" fill="#1F5C3A"/>
<path opacity="0.2" d="M28.5892 19.9465C28.5892 19.9574 28.3942 20.7049 28.2317 21.6149C28.08 22.4382 27.9933 25.1682 27.9717 25.6557L19.3483 21.2899C19.3375 21.1165 19.2183 19.5024 19.2183 18.029C19.2183 16.4799 19.6083 14.7574 19.6083 14.7465L19.5108 14.7249C19.5108 14.7465 19.1208 16.4799 19.1208 18.029C19.1208 19.394 19.2183 20.889 19.2508 21.2357L14.9608 19.069C14.8633 18.939 13.8233 17.5199 12.805 15.364C11.7542 13.1432 12.0033 10.3265 12.0142 10.294L11.9167 10.2832C11.9167 10.3157 11.6567 13.154 12.7183 15.4074C13.7908 17.6607 14.885 19.1232 14.8958 19.134L14.9067 19.1449L28.0583 25.8182V25.7424C28.0583 25.7099 28.1558 22.5357 28.3183 21.6365C28.4808 20.7374 28.6758 19.979 28.6758 19.979L28.5892 19.9465Z" fill="black"/>
<path opacity="0.3" d="M38.9025 25.2548C38.9025 25.6448 38.5883 26.1106 38.1983 26.3056C37.8083 26.5006 37.4942 26.3381 37.4942 25.9589C37.4942 25.5689 37.8083 25.1031 38.1983 24.9081C38.5883 24.7131 38.9025 24.8648 38.9025 25.2548Z" fill="black"/>
<path opacity="0.3" d="M39.9858 25.5364C39.9858 25.8073 39.7692 26.1323 39.4983 26.2731C39.2275 26.4031 39.0108 26.2948 39.0108 26.0239C39.0108 25.7531 39.2275 25.4281 39.4983 25.2873C39.7692 25.1573 39.9858 25.2656 39.9858 25.5364Z" fill="black"/>
<path d="M37.3425 25.894C37.3425 26.0348 37.2233 26.219 37.0825 26.284C36.9417 26.3598 36.8225 26.2948 36.8225 26.154C36.8225 26.0132 36.9417 25.829 37.0825 25.764C37.2233 25.6882 37.3425 25.7423 37.3425 25.894Z" fill="white"/>
<path opacity="0.4" d="M38.61 25.5473C38.61 25.7423 38.4475 25.9806 38.2633 26.0781C38.0683 26.1756 37.9167 26.0998 37.9167 25.9048C37.9167 25.7098 38.0792 25.4715 38.2633 25.374C38.4475 25.2765 38.61 25.3523 38.61 25.5473Z" fill="white"/>
<path opacity="0.4" d="M39.8017 25.7314C39.8017 25.8722 39.6825 26.0564 39.5417 26.1214C39.4008 26.1972 39.2817 26.1322 39.2817 25.9914C39.2817 25.8505 39.4008 25.6664 39.5417 25.6014C39.6825 25.5255 39.8017 25.5905 39.8017 25.7314Z" fill="white"/>
<path d="M36.9525 25.0165C36.9525 25.1574 36.8333 25.3415 36.6925 25.4065C36.5517 25.4824 36.4325 25.4174 36.4325 25.2765C36.4325 25.1357 36.5517 24.9515 36.6925 24.8865C36.8333 24.8107 36.9525 24.8757 36.9525 25.0165Z" fill="white"/>
<path d="M48.5333 19.3183C48.5333 19.4592 48.4142 19.6433 48.2733 19.7083C48.1325 19.7842 48.0133 19.7192 48.0133 19.5783C48.0133 19.4375 48.1325 19.2533 48.2733 19.1883C48.4142 19.1125 48.5333 19.1667 48.5333 19.3183Z" fill="white"/>
<path d="M49.0209 20.0004C49.0209 20.1412 48.9017 20.3254 48.7609 20.3904C48.62 20.4662 48.5009 20.4012 48.5009 20.2604C48.5009 20.1196 48.62 19.9354 48.7609 19.8704C48.9017 19.7946 49.0209 19.8596 49.0209 20.0004Z" fill="white"/>
<path opacity="0.3" d="M49.1725 20.4556C49.1725 20.7914 48.9016 21.1923 48.5658 21.3548C48.23 21.5173 47.9592 21.3873 47.9592 21.0514C47.9592 20.7156 48.23 20.3148 48.5658 20.1523C48.9016 19.9898 49.1725 20.1306 49.1725 20.4556Z" fill="black"/>
<path opacity="0.4" d="M48.815 20.8129C48.815 20.9863 48.6741 21.1921 48.5116 21.2788C48.3383 21.3654 48.2083 21.2896 48.2083 21.1271C48.2083 20.9646 48.3491 20.7479 48.5116 20.6613C48.6741 20.5746 48.815 20.6396 48.815 20.8129Z" fill="white"/>
<path opacity="0.3" d="M48.685 21.3655C48.685 21.0947 48.4683 20.9864 48.1975 21.1164C48.1108 21.1597 48.035 21.2139 47.97 21.2897C48.0133 21.5822 48.0567 21.8855 48.0892 22.1455C48.1217 22.1347 48.165 22.1239 48.2083 22.1022C48.4683 21.9722 48.685 21.6364 48.685 21.3655Z" fill="black"/>
<path opacity="0.3" d="M35.23 25.1248C35.7608 25.0815 37.2558 25.0056 38.1983 25.2331C39.1408 25.4606 40.7767 26.089 41.3617 26.3273C41.2967 26.2623 40.9933 25.959 40.3217 25.3631C39.2925 24.4423 37.9058 24.334 36.7792 24.4531C35.75 24.5615 35.3058 25.0381 35.23 25.1248Z" fill="black"/>
<path d="M26.1842 17.314C26.1842 17.314 26.9967 17.704 27.365 18.1915C27.7225 18.679 27.7225 18.939 27.7225 18.939C27.7225 18.939 25.4692 19.4265 24.3533 18.7115C23.1725 17.9423 26.1842 17.314 26.1842 17.314Z" fill="#2D3134"/>
<path d="M32.11 19.199L32.5217 19.1665L36.3133 17.3248L36.5192 16.9456L38.8267 15.8731L38.7292 15.689L34.32 17.6498L34.45 17.8123L36.1617 17.054L36.0642 17.1623L32.3592 18.939L32.11 19.199Z" fill="#2D3134"/>
<path d="M36.1183 18.1806H36.4758L39.4983 15.9381L39.8666 15.0714L41.0258 13.5981L40.95 13.4897L38.7725 15.9706L38.8591 16.1006L39.4441 15.5806L39.2816 15.8731L36.2158 17.9964L36.1183 18.1806Z" fill="#2D3134"/>
<path d="M40.69 25.3306L41.9467 26.4573C41.9467 26.4573 43.7667 26.1106 45.3917 25.2764C47.0167 24.4423 47.9917 23.3156 47.9917 23.3156L47.8617 21.6689C47.8617 21.6689 47.125 23.0014 45.0017 24.0523C43.1167 24.9948 40.69 25.3306 40.69 25.3306Z" fill="#2D3134"/>
<path opacity="0.29" d="M45.7383 27.7138C48.1108 26.5221 50.1367 24.5071 50.18 23.4238C50.1908 23.2396 50.2017 22.9363 49.9417 22.0805C49.92 22.0046 49.8225 21.9938 49.7792 22.0588C48.945 23.2505 47.5258 24.7996 45.3158 25.8613C43.0191 26.9663 40.2025 27.9088 38.0358 27.8005C37.5267 27.7788 37.44 28.288 37.3967 29.0896C37.375 29.6096 37.8083 30.043 38.3283 29.9888C40.1917 29.8046 43.1817 28.9921 45.7383 27.7138Z" fill="black"/>
<path d="M5.35166 10.3373C5.35166 10.3373 6.03416 8.5931 6.41333 8.05143C6.7925 7.50977 7.215 7.02227 7.215 7.02227L7.09583 6.69727C7.09583 6.69727 6.29416 6.97893 6.15333 7.21727C6.00166 7.46643 5.18916 9.9906 5.18916 9.9906L5.35166 10.3373Z" fill="#CC291F"/>
<path opacity="0.2" d="M41.0583 14.0858C41.1342 13.9775 41.1992 13.8691 41.2533 13.7716C40.7008 13.2408 39.65 12.3091 38.3175 11.2366C36.1508 9.48163 34.8833 8.66913 34.58 8.64746H34.5692C34.125 8.64746 32.3592 9.38413 30.3875 10.4025C28.1233 11.5616 26.91 12.385 26.7367 12.6341C26.7475 12.7316 26.8125 12.9483 26.9425 13.2408C31.5683 11.7458 36.6275 12.0383 41.0583 14.0858Z" fill="black"/>
<path d="M44.2433 27.0963V28.678L47.0925 27.2588V25.688L44.2433 27.0963Z" fill="#E5E5E5"/>
<path opacity="0.2" d="M48.1325 22.915C48.1325 22.915 49.6816 21.3766 49.6058 20.9433C49.5191 20.4991 48.2516 18.3108 48.0891 18.6358C47.9266 18.9608 47.58 19.4808 47.71 19.925C47.84 20.3583 48.165 22.5141 48.1325 22.915Z" fill="black"/>
<path d="M26.6283 13.0892C26.2817 12.2333 23.8767 9.50333 21.2117 8.19249C17.8533 6.54583 14.9283 6.54583 14.3325 6.63249L14.3108 6.49166C14.9175 6.40499 17.8858 6.40499 21.2767 8.06249C22.4575 8.63666 23.7358 9.57916 24.895 10.7058C25.8158 11.5942 26.5633 12.5367 26.7692 13.035L26.6283 13.0892Z" fill="#2D3134"/>
<path d="M35.2192 8.875L35.2083 8.86417C34.125 8.07333 31.2325 5.97167 28.5675 4.67167C25.22 3.03583 22.6092 2.52667 22.035 2.52667V2.375C22.62 2.375 25.2633 2.88417 28.6325 4.54167C31.3083 5.8525 34.2008 7.95417 35.295 8.745L35.3058 8.75583L35.2192 8.875Z" fill="#2D3134"/>
<path d="M15.1667 15.9165V16.9998L16.25 17.5415V16.4582L15.1667 15.9165Z" fill="#2D3134"/>
<path d="M17.3333 15.9167L16.25 15.375V16.4583L17.3333 17V15.9167Z" fill="#2D3134"/>
<path d="M16.25 18.6248L17.3333 19.1665V18.0832L16.25 17.5415V18.6248Z" fill="#2D3134"/>
<path d="M17.3333 17V18.0833L18.4167 18.625V17.5417L17.3333 17Z" fill="#2D3134"/>
<path d="M19.5 17.0002L18.4167 16.4585V17.5418L19.5 18.0835V17.0002Z" fill="#2D3134"/>
<path d="M18.4167 19.7083L19.5 20.25V19.1667L18.4167 18.625V19.7083Z" fill="#2D3134"/>
<path d="M19.5 18.0835V19.1668L20.5833 19.7085V18.6252L19.5 18.0835Z" fill="#2D3134"/>
<path d="M21.6667 18.0832L20.5833 17.5415V18.6248L21.6667 19.1665V18.0832Z" fill="#2D3134"/>
<path d="M20.5833 20.7918L21.6667 21.3335V20.2502L20.5833 19.7085V20.7918Z" fill="#2D3134"/>
<path d="M21.6667 19.1665V20.2498L22.75 20.7915V19.7082L21.6667 19.1665Z" fill="#2D3134"/>
<path d="M26 21.3335V22.4168L27.0833 22.9585V21.8752L26 21.3335Z" fill="#2D3134"/>
<path d="M26 20.2502L24.9167 19.7085V20.7918L26 21.3335V20.2502Z" fill="#2D3134"/>
<path d="M24.9167 22.9583L26 23.5V22.4167L24.9167 21.875V22.9583Z" fill="#2D3134"/>
<path d="M23.8333 20.25V21.3333L24.9167 21.875V20.7917L23.8333 20.25Z" fill="#2D3134"/>
<path d="M23.8333 19.1667L22.75 18.625V19.7083L23.8333 20.25V19.1667Z" fill="#2D3134"/>
<path d="M22.75 21.8748L23.8333 22.4165V21.3332L22.75 20.7915V21.8748Z" fill="#2D3134"/>
<path d="M23.6167 8.2249L28.8167 5.6249L26.8667 4.6499L21.775 7.2499L23.6167 8.2249Z" fill="#2D3134"/>
<path d="M26.4442 3.60978L23.0858 5.28895C22.9342 5.36478 22.815 5.48395 22.7392 5.64645L22.0892 7.03311L23.6058 7.79145L28.3725 5.40811L27.625 4.01061C27.5492 3.85895 27.4192 3.73978 27.2567 3.67478L27.0617 3.58811C26.8775 3.51228 26.65 3.51228 26.4442 3.60978Z" fill="#E5E5E5"/>
<path opacity="0.11" d="M23.4542 5.65728L22.9125 5.41895C22.8475 5.48395 22.7933 5.54895 22.7608 5.63561L22.1108 7.02228L23.6275 7.78061V5.90645C23.6167 5.80895 23.5517 5.70061 23.4542 5.65728Z" fill="black"/>
<path opacity="0.29" d="M27.6358 4.01052C27.5925 3.93469 27.5383 3.85885 27.4733 3.80469L23.92 5.58136C23.7358 5.66802 23.6275 5.86302 23.6275 6.05802V7.79136L28.3942 5.40802L27.6358 4.01052Z" fill="black"/>
<path d="M27.5167 5.40817L24.2667 7.03317V5.94984L27.0833 4.5415L27.5167 5.40817Z" fill="#2D3134"/>
<path opacity="0.11" d="M35.555 26.2949C34.7967 25.4391 30.4633 20.8891 29.3367 19.1124C27.8633 16.8049 25.4583 11.1607 21.0275 9.04822C16.5858 6.93572 11.5592 7.83488 10.0425 7.94322C9.12166 7.99738 7.69166 7.66155 6.69499 7.37988C6.04499 8.36572 5.53583 9.31905 5.19999 10.0015L5.05916 10.4566C4.80999 11.2691 4.91833 12.1574 5.35166 12.8832C5.71999 13.5007 6.18583 14.2157 6.53249 14.6057C6.83583 14.9416 7.20416 15.2991 7.51833 15.6024C7.51833 15.5807 7.51833 15.5482 7.51833 15.5266C7.51833 14.3782 8.18999 13.6416 9.22999 13.6416C9.64166 13.6416 10.0858 13.7607 10.5408 13.9882C12.1117 14.7682 13.3792 16.6857 13.3792 18.2566C13.3792 18.4624 13.3575 18.6574 13.3142 18.8416L28.3617 26.3599C28.3508 26.2407 28.34 26.1216 28.34 26.0132C28.34 24.8649 29.0117 24.1282 30.0517 24.1282C30.4633 24.1282 30.9075 24.2474 31.3625 24.4749C32.9333 25.2549 34.2008 27.1724 34.2008 28.7432C34.2008 28.9274 34.1792 29.0899 34.1467 29.2524L35.3492 29.8482C35.3492 29.8482 35.9775 30.0107 36.7792 30.1516C36.5842 28.5591 36.1833 27.0099 35.555 26.2949Z" fill="black"/>
</svg>
