<svg width="153" height="203" viewBox="0 0 153 203" fill="none" xmlns="http://www.w3.org/2000/svg">
<path d="M47.9054 0.559987H102.207C110.196 0.392388 128.99 0.157749 140.252 0.559987C151.515 0.962225 152.878 11.9009 152.152 17.3199V128.773V184.751C151.348 196.148 142.878 198.997 138.744 198.997C111.146 198.83 54.073 198.494 46.5646 198.494C39.0561 198.494 36.0617 190.673 35.503 186.763C35.6706 132.572 35.9053 22.0462 35.503 13.4651C35.1008 4.88404 43.6037 1.28625 47.9054 0.559987Z" fill="#BCDAE6"/>
<path d="M50.2518 6.25818H66.5089C65.7044 11.8895 70.9782 13.2973 73.7157 13.2973H122.487C125.839 13.2973 128.018 9.16323 128.688 7.09617H140.42C142.968 7.09617 146 11.2027 146 14C146 69.1401 146.621 180.058 146.621 185.422C146.621 190.785 141.482 192.796 138.912 193.131H49.9166C45.7602 193.131 43.7154 188.662 43.2126 186.427V13.2973C43.2126 8.47049 47.9054 6.59338 50.2518 6.25818Z" fill="white" stroke="#384B7D" stroke-width="1.2"/>
<path d="M45.5002 192.5L98.0002 14C103.587 14 117.188 14.5 123.188 14L125.5 13C127.5 12 128.579 8.65874 129 7.5H133L76.5002 192.5H63.5002C47.5002 192.5 45.5002 193.617 45.5002 192.5Z" fill="#D4F4FF"/>
<path d="M98.5 12.5L101.872 1.06262H134.554L133.5 6.5H128.5C127.025 9.58382 125 13 123 12.5H98.5Z" fill="#A4BCD1"/>
<path d="M139.079 0.559814L137 6.5C138.76 6.5 140.311 6.1767 141.5 6.59338C143.21 7.19226 144.316 8.74785 144.778 9.27497C145.057 7.12403 146.062 2.39645 147 3C145.659 1.79329 141.09 1.06261 139.079 0.559814Z" fill="#A4BCD1"/>
<path d="M91 192.5L144.5 11C143.983 9.90812 143.309 8.57845 142 8C140.255 7.22889 137.245 7.40428 136 7.50005L81.5 192.5H91Z" fill="#D4F4FF"/>
<path d="M128.5 7.5H142.5" stroke="#384B7D" stroke-width="0.5"/>
<rect x="66.3196" y="94.7352" width="11.4167" height="13.2193" fill="#C5D6E6"/>
<rect x="95.1621" y="76.108" width="11.4167" height="31.8465" fill="#C5D6E6"/>
<rect x="80.741" y="86.9238" width="11.4167" height="21.0307" fill="#C5D6E6"/>
<rect x="109.583" y="68.2965" width="11.4167" height="39.6579" fill="#C5D6E6"/>
<path d="M93.4799 67.843C91.5816 67.8426 89.7019 68.2162 87.9481 68.9425C86.1943 69.6687 84.6007 70.7334 83.2585 72.0756C81.9162 73.4179 80.8516 75.0114 80.1253 76.7652C79.3991 78.5191 79.0255 80.3988 79.0259 82.297C79.0259 92.842 93.4799 103.936 93.4799 103.936C93.4799 103.936 97.4669 100.861 101.256 96.424C101.405 96.2778 101.507 96.0905 101.549 95.886C101.592 95.6814 101.572 95.4689 101.493 95.2757C101.413 95.0824 101.278 94.9172 101.105 94.8011C100.931 94.6851 100.727 94.6234 100.518 94.624C100.362 94.6257 100.209 94.6624 100.07 94.7315C99.931 94.8006 99.8092 94.9003 99.7139 95.023L99.7109 95.02L103.203 89.893L103.368 89.995C103.251 90.1593 103.187 90.3547 103.182 90.556C103.181 90.6942 103.208 90.831 103.261 90.9588C103.314 91.0865 103.391 91.2026 103.488 91.3004C103.586 91.3982 103.702 91.4758 103.829 91.5288C103.957 91.5818 104.094 91.609 104.232 91.609C104.451 91.6072 104.663 91.5368 104.84 91.4076C105.016 91.2784 105.148 91.097 105.216 90.889C106.806 88.144 107.931 85.207 107.931 82.3C107.932 80.4017 107.559 78.5217 106.833 76.7675C106.108 75.0134 105.043 73.4195 103.701 72.0769C102.359 70.7342 100.766 69.6693 99.0119 68.9428C97.258 68.2163 95.3782 67.8426 93.4799 67.843Z" fill="black"/>
<path d="M101.553 93.082C101.553 93.3605 101.664 93.6275 101.861 93.8244C102.057 94.0214 102.325 94.132 102.603 94.132C102.881 94.132 103.149 94.0214 103.345 93.8244C103.542 93.6275 103.653 93.3605 103.653 93.082C103.653 92.8035 103.542 92.5364 103.345 92.3395C103.149 92.1426 102.881 92.032 102.603 92.032C102.325 92.032 102.057 92.1426 101.861 92.3395C101.664 92.5364 101.553 92.8035 101.553 93.082Z" fill="black"/>
<path d="M93.48 69.943C90.2045 69.9462 87.064 71.2488 84.7479 73.5649C82.4318 75.881 81.1292 79.0215 81.126 82.297C81.126 89.938 90.087 98.32 93.48 101.218C96.873 98.32 105.834 89.938 105.834 82.297C105.83 79.0217 104.527 75.8817 102.211 73.5658C99.8952 71.2498 96.7552 69.947 93.48 69.943ZM93.48 90.22C92.421 90.22 91.3724 90.0114 90.394 89.6062C89.4156 89.2009 88.5267 88.6069 87.7779 87.8581C87.0291 87.1093 86.4351 86.2203 86.0298 85.242C85.6246 84.2636 85.416 83.215 85.416 82.156C85.416 81.097 85.6246 80.0484 86.0298 79.07C86.4351 78.0917 87.0291 77.2027 87.7779 76.4539C88.5267 75.7051 89.4156 75.1111 90.394 74.7058C91.3724 74.3006 92.421 74.092 93.48 74.092C95.6187 74.092 97.6698 74.9416 99.1821 76.4539C100.694 77.9662 101.544 80.0173 101.544 82.156C101.544 84.2947 100.694 86.3458 99.1821 87.8581C97.6698 89.3704 95.6187 90.22 93.48 90.22Z" fill="#FF6749"/>
<path d="M87.519 82.156C87.519 83.737 88.1471 85.2532 89.265 86.3711C90.3829 87.489 91.8991 88.117 93.48 88.117C95.061 88.117 96.5772 87.489 97.6951 86.3711C98.813 85.2532 99.441 83.737 99.441 82.156C99.441 80.5751 98.813 79.0588 97.6951 77.9409C96.5772 76.823 95.061 76.195 93.48 76.195C91.8991 76.195 90.3829 76.823 89.265 77.9409C88.1471 79.0588 87.519 80.5751 87.519 82.156Z" fill="white"/>
<path d="M76.6831 107.893C76.6831 108.171 76.7937 108.439 76.9906 108.635C77.1876 108.832 77.4546 108.943 77.7331 108.943C78.0116 108.943 78.2787 108.832 78.4756 108.635C78.6725 108.439 78.7831 108.171 78.7831 107.893C78.7831 107.615 78.6725 107.347 78.4756 107.151C78.2787 106.954 78.0116 106.843 77.7331 106.843C77.4546 106.843 77.1876 106.954 76.9906 107.151C76.7937 107.347 76.6831 107.615 76.6831 107.893Z" fill="black"/>
<path d="M81.33 106.843C81.0518 106.844 80.7852 106.955 80.5884 107.151C80.3917 107.348 80.2808 107.615 80.28 107.893V107.896C80.28 108.472 80.754 108.946 81.33 108.946H109.23C109.806 108.946 110.28 108.475 110.28 107.896V107.893C110.279 107.615 110.168 107.348 109.972 107.151C109.775 106.955 109.508 106.844 109.23 106.843H81.33Z" fill="black"/>
<path d="M82.725 80.845C82.6154 80.845 82.5071 80.8209 82.4078 80.7745C82.3084 80.7281 82.2205 80.6604 82.1501 80.5763C82.0798 80.4922 82.0287 80.3937 82.0005 80.2878C81.9724 80.1818 81.9678 80.071 81.987 79.963C83.187 73.213 89.172 71.356 89.424 71.281C89.6132 71.2289 89.8152 71.2529 89.9868 71.3479C90.1585 71.443 90.286 71.6015 90.3421 71.7895C90.3983 71.9775 90.3785 72.18 90.2871 72.3535C90.1956 72.5271 90.0398 72.658 89.853 72.718C89.634 72.784 84.498 74.404 83.46 80.227C83.4292 80.3997 83.3387 80.5562 83.2044 80.6691C83.0701 80.782 82.9005 80.8443 82.725 80.845Z" fill="white"/>
<path d="M122 63L68 116" stroke="#FF4B3A" stroke-width="5"/>
<path d="M140.755 0.727417H50.5871C39.5926 0.727417 35.5032 7.59898 35.5032 11.9566V184.081C35.5032 196.684 45.3357 199.053 50.2519 198.662C75.8387 198.941 129.526 199.332 139.582 198.662C149.638 197.992 152.04 188.662 151.985 184.081V11.9566C151.985 3.37548 144.498 0.895016 140.755 0.727417Z" stroke="#384B7D" stroke-width="1.2"/>
<path d="M85.1123 6.92859H104.554" stroke="#384B7D" stroke-width="1.2" stroke-linecap="round"/>
<path d="M107.236 6.92859H110.42" stroke="#384B7D" stroke-width="1.2" stroke-linecap="round"/>
<circle cx="51.5927" cy="24.3589" r="3.18718" fill="#00FFC1" stroke="#384B7D"/>
<circle cx="63.6598" cy="24.3589" r="3.18718" fill="#FF4B3A" stroke="#384B7D"/>
<circle cx="75.727" cy="24.3589" r="3.18718" fill="#FFE93E" stroke="#384B7D"/>
<circle cx="94.5" cy="89.5" r="37" stroke="#FF4B3A" stroke-width="5"/>
<circle cx="32.4862" cy="172.852" r="26.7362" fill="#FFE93E" stroke="#384B7D" stroke-width="1.5"/>
<mask id="mask0_753_8203" style="mask-type:alpha" maskUnits="userSpaceOnUse" x="6" y="147" width="50" height="51">
<ellipse cx="30.9382" cy="172.6" rx="24.8955" ry="24.8955" transform="rotate(13.923 30.9382 172.6)" fill="#FFE93E"/>
</mask>
<g mask="url(#mask0_753_8203)">
<path d="M21.2478 153.346C3.99572 162.524 9.73399 181.675 14.7596 190.104C4.78332 186.689 -3.50268 156.872 17.2869 148.709C33.9186 142.178 43.7143 149.827 46.5332 154.467C43.3377 151.714 33.8071 147.634 21.2478 153.346Z" fill="#FFF078"/>
</g>
<path d="M13.8828 168.327C15.056 170.003 18.7097 172.349 23.9388 168.327" stroke="#384B7D" stroke-width="1.2" stroke-linecap="round"/>
<path d="M39.0227 168.327C40.1959 170.003 43.8496 172.349 49.0786 168.327" stroke="#384B7D" stroke-width="1.2" stroke-linecap="round"/>
<path d="M23.7712 186.93C26.3411 184.975 33.1903 182.237 40.0283 186.93" stroke="#384B7D" stroke-width="1.2" stroke-linecap="round"/>
<ellipse cx="19.0785" cy="177.544" rx="5.02797" ry="3.35198" fill="#FFF078"/>
<ellipse cx="46.2296" cy="178.55" rx="5.02797" ry="3.35198" fill="#FFF078"/>
</svg>
