<svg width="17" height="16" viewBox="0 0 17 16" fill="none" xmlns="http://www.w3.org/2000/svg">
<path d="M15.099 5.75788V3.43888L12.767 2.27288L10.499 0.00488281L8.21997 0.573883L5.94097 0.00488281L3.67297 2.27288L1.34097 3.43888V5.75788L0.219971 7.99988L1.34097 10.2419V12.5609L3.67397 13.7269L5.94197 15.9949L8.21997 15.4249L10.499 15.9939L12.767 13.7259L15.1 12.5599V10.2409L16.22 7.99988L15.099 5.75788ZM14.041 9.99188V11.9049L12.22 12.8179L10.178 14.8179L8.21997 14.3329L6.26497 14.8219L4.35997 12.9169L2.39797 11.9049V9.99188L1.40297 7.99988L2.39897 6.00488V4.09288L4.21997 3.18088L6.26297 1.18088L8.21997 1.66588L10.175 1.17688L12.08 3.08188L14.042 4.09388V6.00488L15.036 7.99688L14.041 9.99188Z" fill="#006CE3"/>
<path d="M11.0131 4.46083L4.68097 10.793L5.42697 11.539L11.7591 5.20683L11.0131 4.46083Z" fill="#006CE3"/>
<path d="M6.10197 7.46385C6.41506 7.46385 6.72112 7.37101 6.98144 7.19707C7.24176 7.02313 7.44466 6.7759 7.56447 6.48664C7.68429 6.19738 7.71563 5.8791 7.65455 5.57202C7.59347 5.26495 7.44271 4.98289 7.22132 4.7615C6.99993 4.54012 6.71787 4.38935 6.4108 4.32827C6.10373 4.26719 5.78544 4.29854 5.49618 4.41835C5.20693 4.53816 4.9597 4.74106 4.78575 5.00138C4.61181 5.26171 4.51897 5.56776 4.51897 5.88085C4.5195 6.30053 4.68645 6.70286 4.9832 6.99962C5.27996 7.29637 5.6823 7.46332 6.10197 7.46385ZM6.10197 5.35285C6.2064 5.35285 6.30848 5.38382 6.39531 5.44184C6.48214 5.49985 6.54982 5.58232 6.58978 5.6788C6.62974 5.77527 6.6402 5.88144 6.61982 5.98386C6.59945 6.08628 6.54916 6.18036 6.47532 6.2542C6.40148 6.32805 6.3074 6.37833 6.20498 6.39871C6.10256 6.41908 5.99639 6.40862 5.89991 6.36866C5.80343 6.3287 5.72097 6.26102 5.66295 6.17419C5.60494 6.08736 5.57397 5.98528 5.57397 5.88085C5.57397 5.74082 5.6296 5.60652 5.72862 5.5075C5.82764 5.40848 5.96194 5.35285 6.10197 5.35285Z" fill="#006CE3"/>
<path d="M10.338 8.53467C10.0249 8.53467 9.71883 8.62751 9.4585 8.80145C9.19818 8.97539 8.99528 9.22262 8.87547 9.51188C8.75566 9.80114 8.72431 10.1194 8.78539 10.4265C8.84647 10.7336 8.99723 11.0156 9.21862 11.237C9.44001 11.4584 9.72207 11.6092 10.0291 11.6703C10.3362 11.7313 10.6545 11.7 10.9438 11.5802C11.233 11.4604 11.4802 11.2575 11.6542 10.9971C11.8281 10.7368 11.921 10.4308 11.921 10.1177C11.9204 9.69799 11.7535 9.29566 11.4567 8.9989C11.16 8.70215 10.7576 8.5352 10.338 8.53467ZM10.338 10.6457C10.2335 10.6457 10.1315 10.6147 10.0446 10.5567C9.9578 10.4987 9.89013 10.4162 9.85016 10.3197C9.8102 10.2232 9.79974 10.1171 9.82012 10.0147C9.84049 9.91224 9.89078 9.81816 9.96462 9.74432C10.0385 9.67047 10.1325 9.62019 10.235 9.59981C10.3374 9.57944 10.4435 9.5899 10.54 9.62986C10.6365 9.66982 10.719 9.7375 10.777 9.82433C10.835 9.91116 10.866 10.0132 10.866 10.1177C10.866 10.2577 10.8103 10.392 10.7113 10.491C10.6123 10.59 10.478 10.6457 10.338 10.6457Z" fill="#006CE3"/>
</svg>
