<svg width="17" height="17" viewBox="0 0 17 17" fill="none" xmlns="http://www.w3.org/2000/svg">
<path d="M0.53125 9.5625V15.4062C0.53125 16.3094 1.22187 17 2.125 17H14.875C15.7781 17 16.4688 16.3094 16.4688 15.4062V9.5625C16.7875 9.5625 17 9.35 17 9.03125V4.78125C17 3.87812 16.3094 3.1875 15.4062 3.1875H12.1656C11.9 1.38125 10.3594 0 8.5 0C6.64062 0 5.1 1.38125 4.83438 3.1875H1.59375C0.690625 3.1875 0 3.87812 0 4.78125V9.03125C0 9.35 0.2125 9.5625 0.53125 9.5625ZM14.875 15.9375H2.125C1.80625 15.9375 1.59375 15.725 1.59375 15.4062V9.5625H6.90625V10.0938C6.90625 10.4125 7.11875 10.625 7.4375 10.625H9.5625C9.88125 10.625 10.0938 10.4125 10.0938 10.0938V9.5625H15.4062V15.4062C15.4062 15.725 15.1938 15.9375 14.875 15.9375ZM7.96875 9.5625V8.5H9.03125V9.5625H7.96875ZM8.5 1.0625C9.775 1.0625 10.8375 1.96563 11.1031 3.1875H5.89688C6.1625 1.96563 7.225 1.0625 8.5 1.0625ZM1.0625 4.78125C1.0625 4.4625 1.275 4.25 1.59375 4.25H15.4062C15.725 4.25 15.9375 4.4625 15.9375 4.78125V8.5H10.0938V7.96875C10.0938 7.65 9.88125 7.4375 9.5625 7.4375H7.4375C7.11875 7.4375 6.90625 7.65 6.90625 7.96875V8.5H1.0625V4.78125Z" fill="#2D4356"/>
</svg>
