<svg width="88" height="88" viewBox="0 0 88 88" fill="none" xmlns="http://www.w3.org/2000/svg">
<circle cx="44" cy="44" r="44" fill="#C7E3FF" fill-opacity="0.2"/>
<path d="M15.1806 21.146C15.4141 21.146 15.6423 21.0767 15.8364 20.947C16.0305 20.8173 16.1818 20.633 16.2712 20.4173C16.3605 20.2016 16.3839 19.9643 16.3384 19.7353C16.2928 19.5063 16.1804 19.296 16.0153 19.1309C15.8502 18.9658 15.6399 18.8534 15.4109 18.8079C15.1819 18.7623 14.9446 18.7857 14.7289 18.875C14.5132 18.9644 14.3289 19.1157 14.1992 19.3098C14.0695 19.5039 14.0002 19.7321 14.0002 19.9656C14.0006 20.2785 14.1251 20.5786 14.3464 20.7998C14.5677 21.0211 14.8677 21.1456 15.1806 21.146ZM15.1806 19.3754C15.2974 19.3754 15.4115 19.41 15.5085 19.4748C15.6056 19.5397 15.6812 19.6319 15.7259 19.7397C15.7706 19.8476 15.7823 19.9662 15.7595 20.0807C15.7367 20.1952 15.6805 20.3004 15.598 20.3829C15.5154 20.4655 15.4103 20.5217 15.2958 20.5444C15.1813 20.5672 15.0626 20.5555 14.9548 20.5108C14.8469 20.4662 14.7548 20.3905 14.6899 20.2935C14.6251 20.1964 14.5904 20.0823 14.5904 19.9656C14.5906 19.8091 14.6528 19.6591 14.7635 19.5484C14.8741 19.4378 15.0242 19.3755 15.1806 19.3754ZM73.2598 40.5053C73.1042 40.5053 72.952 40.5514 72.8226 40.6379C72.6932 40.7244 72.5923 40.8473 72.5328 40.9911C72.4732 41.1349 72.4576 41.2931 72.488 41.4457C72.5184 41.5984 72.5933 41.7386 72.7034 41.8487C72.8134 41.9587 72.9536 42.0337 73.1063 42.064C73.2589 42.0944 73.4172 42.0788 73.561 42.0193C73.7047 41.9597 73.8276 41.8588 73.9141 41.7294C74.0006 41.6 74.0467 41.4479 74.0467 41.2922C74.0465 41.0836 73.9635 40.8836 73.816 40.736C73.6685 40.5885 73.4684 40.5055 73.2598 40.5053ZM73.2598 41.6857C73.182 41.6857 73.1059 41.6626 73.0412 41.6194C72.9765 41.5761 72.9261 41.5147 72.8963 41.4428C72.8665 41.3709 72.8587 41.2918 72.8739 41.2155C72.8891 41.1391 72.9266 41.069 72.9816 41.014C73.0366 40.959 73.1067 40.9215 73.183 40.9063C73.2594 40.8911 73.3385 40.8989 73.4104 40.9287C73.4823 40.9585 73.5437 41.0089 73.587 41.0736C73.6302 41.1383 73.6533 41.2144 73.6533 41.2922C73.6532 41.3965 73.6117 41.4966 73.5379 41.5703C73.4641 41.6441 73.3641 41.6856 73.2598 41.6857ZM60.5489 30.2752C60.3933 30.2752 60.2411 30.3214 60.1117 30.4078C59.9823 30.4943 59.8814 30.6172 59.8219 30.761C59.7623 30.9048 59.7467 31.063 59.7771 31.2157C59.8075 31.3683 59.8824 31.5085 59.9925 31.6186C60.1025 31.7286 60.2427 31.8036 60.3954 31.8339C60.548 31.8643 60.7063 31.8487 60.8501 31.7892C60.9938 31.7296 61.1167 31.6287 61.2032 31.4993C61.2897 31.3699 61.3358 31.2178 61.3358 31.0621C61.3356 30.8535 61.2526 30.6535 61.1051 30.5059C60.9576 30.3584 60.7575 30.2754 60.5489 30.2752ZM60.5489 31.4556C60.4711 31.4556 60.395 31.4325 60.3303 31.3893C60.2656 31.346 60.2152 31.2846 60.1854 31.2127C60.1556 31.1408 60.1478 31.0617 60.163 30.9854C60.1782 30.909 60.2157 30.8389 60.2707 30.7839C60.3257 30.7289 60.3958 30.6914 60.4721 30.6762C60.5485 30.661 60.6276 30.6688 60.6995 30.6986C60.7714 30.7284 60.8328 30.7788 60.8761 30.8435C60.9193 30.9082 60.9424 30.9843 60.9424 31.0621C60.9423 31.1665 60.9008 31.2665 60.827 31.3402C60.7532 31.414 60.6532 31.4555 60.5489 31.4556ZM73.2598 17.2908C73.1042 17.2908 72.952 17.337 72.8226 17.4235C72.6932 17.5099 72.5923 17.6328 72.5328 17.7766C72.4732 17.9204 72.4576 18.0787 72.488 18.2313C72.5184 18.384 72.5933 18.5242 72.7034 18.6342C72.8134 18.7443 72.9536 18.8192 73.1063 18.8496C73.2589 18.88 73.4172 18.8644 73.561 18.8048C73.7047 18.7452 73.8276 18.6444 73.9141 18.515C74.0006 18.3856 74.0467 18.2334 74.0467 18.0778C74.0465 17.8691 73.9635 17.6691 73.816 17.5216C73.6685 17.3741 73.4684 17.2911 73.2598 17.2908ZM73.2598 18.4712C73.182 18.4712 73.1059 18.4482 73.0412 18.4049C72.9765 18.3617 72.9261 18.3002 72.8963 18.2284C72.8665 18.1565 72.8587 18.0773 72.8739 18.001C72.8891 17.9247 72.9266 17.8546 72.9816 17.7996C73.0366 17.7445 73.1067 17.7071 73.183 17.6919C73.2594 17.6767 73.3385 17.6845 73.4104 17.7143C73.4823 17.744 73.5437 17.7945 73.587 17.8592C73.6302 17.9239 73.6533 18 73.6533 18.0778C73.6532 18.1821 73.6117 18.2821 73.5379 18.3559C73.4641 18.4297 73.3641 18.4711 73.2598 18.4712ZM25.7942 28.7013C25.7942 28.5457 25.7481 28.3936 25.6616 28.2641C25.5752 28.1347 25.4523 28.0339 25.3085 27.9743C25.1647 27.9147 25.0064 27.8992 24.8538 27.9295C24.7011 27.9599 24.5609 28.0348 24.4509 28.1449C24.3408 28.2549 24.2659 28.3952 24.2355 28.5478C24.2051 28.7005 24.2207 28.8587 24.2803 29.0025C24.3399 29.1463 24.4407 29.2692 24.5701 29.3556C24.6995 29.4421 24.8517 29.4883 25.0073 29.4883C25.216 29.488 25.416 29.405 25.5635 29.2575C25.711 29.11 25.794 28.91 25.7942 28.7013ZM24.6139 28.7013C24.6139 28.6235 24.6369 28.5474 24.6802 28.4827C24.7234 28.418 24.7848 28.3676 24.8567 28.3378C24.9286 28.308 25.0078 28.3003 25.0841 28.3154C25.1604 28.3306 25.2305 28.3681 25.2855 28.4231C25.3406 28.4781 25.378 28.5483 25.3932 28.6246C25.4084 28.7009 25.4006 28.78 25.3708 28.8519C25.3411 28.9238 25.2906 28.9853 25.2259 29.0285C25.1612 29.0717 25.0851 29.0948 25.0073 29.0948C24.903 29.0947 24.803 29.0532 24.7292 28.9794C24.6554 28.9057 24.614 28.8057 24.6139 28.7013Z" fill="#6C7B88"/>
<path d="M15.2563 38.476L15.8414 37.7064L15.472 37.497L15.0962 38.3587H15.084L14.7023 37.5033L14.3266 37.7186L14.9054 38.4697V38.4823L14 38.365V38.7837L14.9113 38.6668V38.679L14.3266 39.4301L14.6772 39.6517L15.0777 38.7837H15.0899L15.4594 39.6454L15.8473 39.4238L15.2563 38.6853V38.6727L16.1857 38.7837V38.365L15.2563 38.4882V38.476Z" fill="#86EAAA"/>
<path d="M38.8477 12.7598L38.5109 13.1923L38.7132 13.3197L38.9437 12.82H38.9508L39.1633 13.3162L39.3868 13.1887L39.0464 12.763V12.7559L39.5815 12.82V12.5788L39.0464 12.6497V12.6426L39.3832 12.1995L39.1708 12.0791L38.9544 12.5753H38.9473L38.7277 12.0823L38.5109 12.2066L38.8446 12.639V12.6461L38.3232 12.5788V12.82L38.8477 12.7528V12.7598Z" fill="#86EAAA"/>
<path d="M72.0793 30.096V29.6852L71.1676 29.806V29.7942L71.7413 29.0391L71.3789 28.8341L71.0106 29.6793H70.9984L70.6243 28.84L70.2556 29.0513L70.8234 29.7883V29.8001L69.9353 29.6852V30.096L70.8293 29.9815V29.9933L70.2556 30.7298L70.5999 30.9474L70.9925 30.096H71.0043L71.3667 30.9411L71.7472 30.7239L71.1676 29.9992V29.9874L72.0793 30.096Z" fill="#86EAAA"/>
<path d="M50.9307 19.9401L51.4257 19.2889L51.1132 19.1118L50.7953 19.8409H50.7851L50.4621 19.117L50.1441 19.2995L50.634 19.935V19.9452L49.8679 19.8464V20.2006L50.6391 20.1018V20.112L50.1441 20.7475L50.4408 20.9352L50.78 20.2006H50.7898L51.1026 20.9297L51.4308 20.7424L50.9307 20.1172V20.1069L51.7172 20.2006V19.8464L50.9307 19.9503V19.9401Z" fill="#86EAAA"/>
<path d="M32.5813 40.7457C32.9931 40.4286 33.5913 40.5028 33.8434 40.9574C34.449 42.0497 34.7185 43.3051 34.6051 44.5632C34.4634 46.1358 33.734 47.5971 32.5625 48.6557C31.391 49.7143 29.8634 50.2923 28.2846 50.2744C26.7057 50.2566 25.1917 49.6441 24.0444 48.5592C22.8972 47.4744 22.2011 45.9969 22.095 44.4215C21.989 42.8461 22.4808 41.2887 23.4723 40.0598C24.4638 38.831 25.8821 38.0212 27.4443 37.7918C28.6942 37.6084 29.9626 37.8073 31.087 38.351C31.555 38.5772 31.6625 39.1703 31.3688 39.5992C31.0752 40.0281 30.4912 40.1268 30.0096 39.931C29.2892 39.6382 28.4983 39.5397 27.7177 39.6543C26.6242 39.8148 25.6313 40.3817 24.9373 41.2419C24.2432 42.1021 23.899 43.1923 23.9732 44.2951C24.0475 45.3978 24.5347 46.4321 25.3378 47.1915C26.1409 47.9509 27.2007 48.3796 28.3059 48.3921C29.4111 48.4046 30.4804 48 31.3004 47.259C32.1205 46.518 32.6311 45.4951 32.7303 44.3943C32.8011 43.6085 32.6586 42.8243 32.3259 42.1214C32.1036 41.6515 32.1695 41.0629 32.5813 40.7457Z" fill="#2D4356"/>
<path d="M48.7198 40.1715C50.8343 42.9171 50.3227 46.857 47.5771 48.9714C44.8315 51.0859 40.8916 50.5743 38.7771 47.8287C36.6626 45.0831 37.1742 41.1432 39.9199 39.0287C42.6655 36.9142 46.6054 37.4258 48.7198 40.1715ZM40.2685 46.6801C41.7486 48.602 44.5066 48.9602 46.4285 47.48C48.3504 45.9999 48.7086 43.242 47.2284 41.32C45.7483 39.3981 42.9904 39.04 41.0684 40.5201C39.1465 42.0003 38.7884 44.7582 40.2685 46.6801Z" fill="#86EAAA"/>
<path d="M54.3901 46.4164C53.9267 46.6519 53.3526 46.4684 53.189 45.975C52.848 44.9467 52.7774 43.8422 52.9919 42.7694C53.2684 41.3874 54.002 40.1386 55.0747 39.2244C56.1474 38.3101 57.4967 37.7837 58.9051 37.7298C60.3135 37.676 61.699 38.0978 62.8384 38.9275C63.9778 39.7571 64.8047 40.9462 65.1858 42.3031C65.567 43.66 65.4802 45.1057 64.9395 46.4073C64.3988 47.7089 63.4356 48.7905 62.2051 49.4779C61.2501 50.0115 60.1772 50.2834 59.0939 50.2746C58.5741 50.2704 58.2232 49.7804 58.305 49.267C58.3869 48.7537 58.8724 48.4146 59.3914 48.3854C60.0529 48.3482 60.7016 48.1616 61.287 47.8346C62.1484 47.3534 62.8226 46.5962 63.2011 45.6851C63.5796 44.774 63.6403 43.762 63.3735 42.8122C63.1067 41.8623 62.5279 41.03 61.7303 40.4492C60.9328 39.8685 59.9629 39.5732 58.977 39.6109C57.9911 39.6486 57.0466 40.0171 56.2958 40.6571C55.5449 41.297 55.0313 42.1712 54.8378 43.1386C54.7063 43.7962 54.7279 44.4709 54.8956 45.1118C55.0271 45.6147 54.8535 46.1809 54.3901 46.4164Z" fill="#2D4356"/>
<path d="M57.5582 49.0921C57.4035 49.5884 56.8715 49.8716 56.4039 49.6445C55.7848 49.3439 55.2193 48.9434 54.7302 48.4593C54.3608 48.0936 54.4513 47.4977 54.8681 47.1871C55.2849 46.8764 55.8693 46.9723 56.2615 47.3135C56.4823 47.5057 56.7217 47.6752 56.9763 47.8197C57.4283 48.0764 57.7128 48.5958 57.5582 49.0921Z" fill="#2D4356"/>
</svg>
