<svg width="88" height="88" viewBox="0 0 88 88" fill="none" xmlns="http://www.w3.org/2000/svg">
<path d="M15.1806 21.146C15.4141 21.146 15.6423 21.0767 15.8364 20.947C16.0305 20.8173 16.1818 20.633 16.2712 20.4173C16.3605 20.2016 16.3839 19.9643 16.3384 19.7353C16.2928 19.5063 16.1804 19.296 16.0153 19.1309C15.8502 18.9658 15.6399 18.8534 15.4109 18.8078C15.1819 18.7623 14.9446 18.7857 14.7289 18.875C14.5132 18.9644 14.3289 19.1157 14.1992 19.3098C14.0695 19.5039 14.0002 19.7321 14.0002 19.9656C14.0006 20.2785 14.1251 20.5785 14.3464 20.7998C14.5677 21.0211 14.8677 21.1456 15.1806 21.146ZM15.1806 19.3754C15.2974 19.3754 15.4115 19.41 15.5085 19.4748C15.6056 19.5397 15.6812 19.6319 15.7259 19.7397C15.7706 19.8475 15.7823 19.9662 15.7595 20.0807C15.7367 20.1952 15.6805 20.3004 15.598 20.3829C15.5154 20.4654 15.4103 20.5216 15.2958 20.5444C15.1813 20.5672 15.0626 20.5555 14.9548 20.5108C14.8469 20.4662 14.7548 20.3905 14.6899 20.2935C14.6251 20.1964 14.5904 20.0823 14.5904 19.9656C14.5906 19.8091 14.6528 19.659 14.7635 19.5484C14.8741 19.4377 15.0242 19.3755 15.1806 19.3754ZM73.2598 40.5053C73.1042 40.5053 72.952 40.5514 72.8226 40.6379C72.6932 40.7244 72.5923 40.8473 72.5328 40.9911C72.4732 41.1349 72.4576 41.2931 72.488 41.4457C72.5184 41.5984 72.5933 41.7386 72.7034 41.8487C72.8134 41.9587 72.9536 42.0337 73.1063 42.064C73.2589 42.0944 73.4172 42.0788 73.5609 42.0192C73.7047 41.9597 73.8276 41.8588 73.9141 41.7294C74.0006 41.6 74.0467 41.4478 74.0467 41.2922C74.0465 41.0836 73.9635 40.8836 73.816 40.736C73.6685 40.5885 73.4684 40.5055 73.2598 40.5053ZM73.2598 41.6857C73.182 41.6857 73.1059 41.6626 73.0412 41.6194C72.9765 41.5761 72.9261 41.5147 72.8963 41.4428C72.8665 41.3709 72.8587 41.2918 72.8739 41.2154C72.8891 41.1391 72.9266 41.069 72.9816 41.014C73.0366 40.959 73.1067 40.9215 73.183 40.9063C73.2594 40.8911 73.3385 40.8989 73.4104 40.9287C73.4823 40.9585 73.5437 41.0089 73.587 41.0736C73.6302 41.1383 73.6533 41.2144 73.6533 41.2922C73.6532 41.3965 73.6117 41.4965 73.5379 41.5703C73.4641 41.6441 73.3641 41.6856 73.2598 41.6857ZM60.5489 30.2752C60.3933 30.2752 60.2411 30.3213 60.1117 30.4078C59.9823 30.4943 59.8814 30.6172 59.8219 30.761C59.7623 30.9048 59.7467 31.063 59.7771 31.2156C59.8075 31.3683 59.8824 31.5085 59.9925 31.6186C60.1025 31.7286 60.2427 31.8036 60.3954 31.8339C60.548 31.8643 60.7063 31.8487 60.8501 31.7891C60.9938 31.7296 61.1167 31.6287 61.2032 31.4993C61.2897 31.3699 61.3358 31.2178 61.3358 31.0621C61.3356 30.8535 61.2526 30.6535 61.1051 30.5059C60.9576 30.3584 60.7575 30.2754 60.5489 30.2752ZM60.5489 31.4556C60.4711 31.4556 60.395 31.4325 60.3303 31.3893C60.2656 31.346 60.2152 31.2846 60.1854 31.2127C60.1556 31.1408 60.1478 31.0617 60.163 30.9854C60.1782 30.909 60.2157 30.8389 60.2707 30.7839C60.3257 30.7289 60.3958 30.6914 60.4721 30.6762C60.5485 30.661 60.6276 30.6688 60.6995 30.6986C60.7714 30.7284 60.8328 30.7788 60.8761 30.8435C60.9193 30.9082 60.9424 30.9843 60.9424 31.0621C60.9423 31.1664 60.9008 31.2665 60.827 31.3402C60.7532 31.414 60.6532 31.4555 60.5489 31.4556ZM73.2598 17.2908C73.1042 17.2908 72.952 17.337 72.8226 17.4235C72.6932 17.5099 72.5923 17.6328 72.5328 17.7766C72.4732 17.9204 72.4576 18.0786 72.488 18.2313C72.5184 18.3839 72.5933 18.5242 72.7034 18.6342C72.8134 18.7443 72.9536 18.8192 73.1063 18.8496C73.2589 18.8799 73.4172 18.8644 73.5609 18.8048C73.7047 18.7452 73.8276 18.6444 73.9141 18.515C74.0006 18.3855 74.0467 18.2334 74.0467 18.0778C74.0465 17.8691 73.9635 17.6691 73.816 17.5216C73.6685 17.3741 73.4684 17.2911 73.2598 17.2908ZM73.2598 18.4712C73.182 18.4712 73.1059 18.4482 73.0412 18.4049C72.9765 18.3617 72.9261 18.3002 72.8963 18.2283C72.8665 18.1564 72.8587 18.0773 72.8739 18.001C72.8891 17.9247 72.9266 17.8546 72.9816 17.7995C73.0366 17.7445 73.1067 17.707 73.183 17.6919C73.2594 17.6767 73.3385 17.6845 73.4104 17.7142C73.4823 17.744 73.5437 17.7945 73.587 17.8592C73.6302 17.9239 73.6533 17.9999 73.6533 18.0778C73.6532 18.1821 73.6117 18.2821 73.5379 18.3559C73.4641 18.4296 73.3641 18.4711 73.2598 18.4712ZM25.7942 28.7013C25.7942 28.5457 25.7481 28.3935 25.6616 28.2641C25.5752 28.1347 25.4523 28.0339 25.3085 27.9743C25.1647 27.9147 25.0064 27.8991 24.8538 27.9295C24.7011 27.9599 24.5609 28.0348 24.4509 28.1449C24.3408 28.2549 24.2659 28.3952 24.2355 28.5478C24.2051 28.7004 24.2207 28.8587 24.2803 29.0025C24.3399 29.1463 24.4407 29.2692 24.5701 29.3556C24.6995 29.4421 24.8517 29.4883 25.0073 29.4883C25.216 29.488 25.416 29.405 25.5635 29.2575C25.711 29.11 25.794 28.91 25.7942 28.7013ZM24.6139 28.7013C24.6139 28.6235 24.6369 28.5474 24.6802 28.4827C24.7234 28.418 24.7848 28.3676 24.8567 28.3378C24.9286 28.308 25.0078 28.3002 25.0841 28.3154C25.1604 28.3306 25.2305 28.3681 25.2855 28.4231C25.3406 28.4781 25.378 28.5482 25.3932 28.6246C25.4084 28.7009 25.4006 28.78 25.3708 28.8519C25.3411 28.9238 25.2906 28.9852 25.2259 29.0285C25.1612 29.0717 25.0851 29.0948 25.0073 29.0948C24.903 29.0947 24.803 29.0532 24.7292 28.9794C24.6554 28.9057 24.614 28.8056 24.6139 28.7013Z" fill="#6C7B88"/>
<path d="M15.2563 38.476L15.8414 37.7063L15.472 37.497L15.0962 38.3587H15.084L14.7023 37.5033L14.3266 37.7185L14.9054 38.4697V38.4822L14 38.365V38.7836L14.9113 38.6668V38.679L14.3266 39.4301L14.6772 39.6516L15.0777 38.7836H15.0899L15.4594 39.6453L15.8473 39.4238L15.2563 38.6853V38.6727L16.1857 38.7836V38.365L15.2563 38.4882V38.476Z" fill="#86EAAA"/>
<path d="M38.8477 12.7598L38.5109 13.1922L38.7132 13.3197L38.9437 12.82H38.9508L39.1633 13.3162L39.3868 13.1887L39.0464 12.7629V12.7559L39.5815 12.82V12.5788L39.0464 12.6496V12.6425L39.3832 12.1995L39.1708 12.0791L38.9544 12.5753H38.9473L38.7277 12.0822L38.5109 12.2066L38.8446 12.639V12.6461L38.3232 12.5788V12.82L38.8477 12.7527V12.7598Z" fill="#86EAAA"/>
<path d="M72.0793 30.0959V29.6852L71.1676 29.806V29.7942L71.7413 29.0391L71.3789 28.8341L71.0106 29.6793H70.9984L70.6243 28.84L70.2556 29.0513L70.8234 29.7883V29.8001L69.9353 29.6852V30.0959L70.8293 29.9815V29.9933L70.2556 30.7298L70.5999 30.9474L70.9925 30.0959H71.0043L71.3667 30.9411L71.7472 30.7239L71.1676 29.9992V29.9874L72.0793 30.0959Z" fill="#86EAAA"/>
<path d="M50.9307 19.9401L51.4257 19.2889L51.1132 19.1118L50.7953 19.8409H50.7851L50.4621 19.1169L50.1441 19.2995L50.634 19.9349V19.9452L49.8679 19.8464V20.2005L50.6391 20.1018V20.112L50.1441 20.7475L50.4408 20.9351L50.78 20.2005H50.7898L51.1026 20.9296L51.4308 20.7423L50.9307 20.1171V20.1069L51.7172 20.2005V19.8464L50.9307 19.9503V19.9401Z" fill="#86EAAA"/>
<circle opacity="0.05" cx="44" cy="44" r="44" fill="#0B82E6"/>
<g clip-path="url(#clip0_335_3604)">
<path d="M51.1125 52.5855C47.7816 52.5855 45.0717 55.2954 45.0717 58.6263V59.1926C45.0717 61.7949 42.9547 63.9119 40.3524 63.9119C37.7501 63.9119 35.6331 61.7949 35.6331 59.1926V58.2487C35.6331 57.8318 35.295 57.4936 34.878 57.4936C34.461 57.4936 34.1229 57.8318 34.1229 58.2487V59.1926C34.1229 62.6275 36.9175 65.4221 40.3524 65.4221C43.7873 65.4221 46.5819 62.6275 46.5819 59.1926V58.6263C46.5819 56.1281 48.6143 54.0957 51.1125 54.0957C53.6106 54.0957 55.643 56.1281 55.643 58.6263C55.643 59.0432 55.9811 59.3814 56.3981 59.3814C56.8151 59.3814 57.1532 59.0432 57.1532 58.6263C57.1532 55.2954 54.4434 52.5855 51.1125 52.5855ZM40.5412 37.4837C40.5412 34.1675 37.8429 31.443 34.5004 31.443C31.1581 31.443 28.4597 34.1674 28.4597 37.4837C28.4597 40.7998 31.1578 43.5245 34.5004 43.5245C37.8429 43.5245 40.5412 40.8001 40.5412 37.4837ZM34.5004 32.9532C36.1737 32.9532 37.6369 33.8657 38.4215 35.2184H30.5795C31.364 33.8657 32.8272 32.9532 34.5004 32.9532ZM30.0341 38.2388C29.9487 37.7321 29.9485 37.2362 30.0341 36.7286H38.9669C39.0523 37.2354 39.0524 37.7312 38.9669 38.2388H30.0341ZM30.5795 39.749H38.4216C37.6369 41.1017 36.1737 42.0143 34.5005 42.0143C32.8272 42.0143 31.364 41.1018 30.5795 39.749Z" fill="#86EAAA"/>
<path d="M62.9136 28.4766L55.5497 31.4222L50.5805 30.7158C50.1676 30.6568 49.7853 30.9442 49.7267 31.3571C49.668 31.77 49.9551 32.1522 50.368 32.2109L54.8879 32.8534V42.114C50.5351 42.7329 35.6154 44.8541 35.607 44.8554C32.3522 45.3567 29.0979 43.6712 27.6937 40.7571C26.7063 38.7077 26.7063 36.2604 27.6937 34.2105C29.1018 31.2882 32.3702 29.606 35.6156 30.1134L47.3776 31.7858C47.7915 31.8447 48.1728 31.5575 48.2316 31.1446C48.2902 30.7316 48.0032 30.3494 47.5903 30.2907L35.8328 28.6189C31.9661 28.0253 28.0653 29.9604 26.3332 33.555C25.148 36.0155 25.148 38.9529 26.3332 41.4126C27.2214 43.2558 28.7236 44.7649 30.7248 45.6618V50.1943C30.7248 50.6112 31.0629 50.9494 31.4799 50.9494C31.8968 50.9494 32.235 50.6112 32.235 50.1943V46.1853C33.4226 46.4828 34.6366 46.5323 35.8324 46.3488L37.5206 46.1088V54.8509C37.5206 56.3082 36.335 57.4937 34.8778 57.4937C33.4205 57.4937 32.235 56.3082 32.235 54.8509V53.2131C32.235 52.7962 31.8968 52.458 31.4799 52.458C31.0629 52.458 30.7248 52.7962 30.7248 53.2131V54.8509C30.7248 57.1409 32.5878 59.0039 34.8778 59.0039C37.1677 59.0039 39.0308 57.1409 39.0308 54.8509V50.2563C41.1707 49.8956 42.8065 48.0307 42.8065 45.7898V45.3572L55.585 43.5403L62.977 45.758C63.4599 45.9029 63.949 45.5412 63.949 45.0347V29.1778C63.949 28.6444 63.4097 28.2787 62.9136 28.4766ZM41.2963 45.7897C41.2963 47.1946 40.3323 48.3784 39.031 48.7145V45.8939L41.2963 45.5718V45.7897ZM62.4388 44.0198L56.3981 42.2076V32.7094L62.4388 30.2931V44.0198Z" fill="#283954"/>
</g>
<defs>
<clipPath id="clip0_335_3604">
<rect width="38.5047" height="37" fill="white" transform="translate(25.4443 28.4221)"/>
</clipPath>
</defs>
</svg>
