<svg width="17" height="16" viewBox="0 0 17 16" fill="none" xmlns="http://www.w3.org/2000/svg">
<path d="M1.13414 6.83884L2.94774 1.20508H14.331C14.6397 2.22121 15.3266 4.43099 15.6044 5.141C15.9517 6.02851 16.7621 8.84539 14.6783 9.1155C13.0114 9.33159 12.466 7.94502 12.4017 7.22472C12.2473 7.94502 11.6454 9.35474 10.4723 9.23126C9.29924 9.10778 8.8259 7.84212 8.73586 7.22472C8.56865 7.89357 7.9564 9.23126 6.84508 9.23126C5.73376 9.23126 5.07006 7.89357 4.87712 7.22472C4.69705 7.86784 4.08222 9.16952 3.06351 9.23126C1.30392 9.16952 1.0441 7.61059 1.13414 6.83884Z" stroke="#213443"/>
<path d="M8.73584 7.22461C8.82588 7.84201 9.29922 9.10768 10.4723 9.23116C11.6453 9.35464 12.2473 7.94491 12.4016 7.22461" stroke="#86EAAA"/>
<path d="M2.06009 10.6975V13.3142C2.04722 13.9445 2.34563 15.205 3.64217 15.205C4.93871 15.205 10.5671 15.205 11.2745 15.205" stroke="#213443"/>
<path d="M15.0228 10.6975V13.3142C15.0357 13.9445 14.7373 15.205 13.4407 15.205C12.1442 15.205 10.4052 15.205 9.69773 15.205" stroke="#213443"/>
</svg>
