<svg width="95" height="95" viewBox="0 0 95 95" fill="none" xmlns="http://www.w3.org/2000/svg">
<circle cx="47.5" cy="47.5" r="30.5" fill="#FFB935"/>
<path opacity="0.35" d="M47.5 95C73.7335 95 95 73.7335 95 47.5C95 21.2665 73.7335 0 47.5 0C21.2665 0 0 21.2665 0 47.5C0 73.7335 21.2665 95 47.5 95Z" fill="#FFB935"/>
<path d="M35.184 53.16C34.2773 53.16 33.44 53.048 32.672 52.824C31.9147 52.5893 31.264 52.2693 30.72 51.864L31.36 50.248C31.7227 50.504 32.1013 50.7227 32.496 50.904C32.8907 51.0747 33.312 51.208 33.76 51.304C34.208 51.3893 34.6827 51.432 35.184 51.432C36.0267 51.432 36.6347 51.2933 37.008 51.016C37.3813 50.7387 37.568 50.376 37.568 49.928C37.568 49.5333 37.44 49.2347 37.184 49.032C36.928 48.8187 36.4693 48.6427 35.808 48.504L34 48.136C32.9653 47.9227 32.192 47.5653 31.68 47.064C31.168 46.5627 30.912 45.8907 30.912 45.048C30.912 44.344 31.0987 43.7307 31.472 43.208C31.8453 42.6853 32.368 42.28 33.04 41.992C33.712 41.704 34.496 41.56 35.392 41.56C36.192 41.56 36.9333 41.6773 37.616 41.912C38.2987 42.136 38.8693 42.4613 39.328 42.888L38.688 44.424C38.2293 44.04 37.728 43.7573 37.184 43.576C36.64 43.384 36.032 43.288 35.36 43.288C34.6027 43.288 34.0107 43.4373 33.584 43.736C33.168 44.024 32.96 44.424 32.96 44.936C32.96 45.3307 33.088 45.6453 33.344 45.88C33.6107 46.1147 34.0587 46.296 34.688 46.424L36.48 46.776C37.5467 46.9893 38.336 47.3413 38.848 47.832C39.36 48.312 39.616 48.9627 39.616 49.784C39.616 50.456 39.4347 51.048 39.072 51.56C38.7093 52.0613 38.1973 52.456 37.536 52.744C36.8747 53.0213 36.0907 53.16 35.184 53.16ZM41.1925 47.352C41.1925 46.168 41.4058 45.144 41.8325 44.28C42.2698 43.416 42.8938 42.7493 43.7045 42.28C44.5152 41.8 45.4805 41.56 46.6005 41.56C47.7098 41.56 48.6698 41.8 49.4805 42.28C50.2912 42.7493 50.9152 43.416 51.3525 44.28C51.8005 45.144 52.0245 46.1627 52.0245 47.336C52.0245 48.52 51.8005 49.5493 51.3525 50.424C50.9152 51.288 50.2912 51.96 49.4805 52.44C48.6698 52.92 47.7098 53.16 46.6005 53.16C45.4805 53.16 44.5152 52.92 43.7045 52.44C42.9045 51.96 42.2858 51.288 41.8485 50.424C41.4112 49.5493 41.1925 48.5253 41.1925 47.352ZM43.3525 47.352C43.3525 48.6213 43.6245 49.6133 44.1685 50.328C44.7125 51.0427 45.5232 51.4 46.6005 51.4C47.6458 51.4 48.4512 51.0427 49.0165 50.328C49.5818 49.6133 49.8645 48.6213 49.8645 47.352C49.8645 46.072 49.5818 45.08 49.0165 44.376C48.4618 43.672 47.6565 43.32 46.6005 43.32C45.5232 43.32 44.7125 43.672 44.1685 44.376C43.6245 45.08 43.3525 46.072 43.3525 47.352ZM58.0903 53.16C57.1836 53.16 56.3463 53.048 55.5783 52.824C54.8209 52.5893 54.1703 52.2693 53.6263 51.864L54.2663 50.248C54.6289 50.504 55.0076 50.7227 55.4023 50.904C55.7969 51.0747 56.2183 51.208 56.6663 51.304C57.1143 51.3893 57.5889 51.432 58.0903 51.432C58.9329 51.432 59.5409 51.2933 59.9143 51.016C60.2876 50.7387 60.4743 50.376 60.4743 49.928C60.4743 49.5333 60.3463 49.2347 60.0903 49.032C59.8343 48.8187 59.3756 48.6427 58.7143 48.504L56.9062 48.136C55.8716 47.9227 55.0983 47.5653 54.5863 47.064C54.0743 46.5627 53.8183 45.8907 53.8183 45.048C53.8183 44.344 54.0049 43.7307 54.3783 43.208C54.7516 42.6853 55.2743 42.28 55.9463 41.992C56.6183 41.704 57.4023 41.56 58.2983 41.56C59.0983 41.56 59.8396 41.6773 60.5223 41.912C61.2049 42.136 61.7756 42.4613 62.2343 42.888L61.5943 44.424C61.1356 44.04 60.6343 43.7573 60.0903 43.576C59.5463 43.384 58.9383 43.288 58.2663 43.288C57.5089 43.288 56.9169 43.4373 56.4903 43.736C56.0743 44.024 55.8663 44.424 55.8663 44.936C55.8663 45.3307 55.9943 45.6453 56.2503 45.88C56.5169 46.1147 56.9649 46.296 57.5943 46.424L59.3863 46.776C60.4529 46.9893 61.2423 47.3413 61.7543 47.832C62.2663 48.312 62.5223 48.9627 62.5223 49.784C62.5223 50.456 62.3409 51.048 61.9783 51.56C61.6156 52.0613 61.1036 52.456 60.4423 52.744C59.7809 53.0213 58.9969 53.16 58.0903 53.16Z" fill="white"/>
</svg>
