<svg width="735" height="735" viewBox="0 0 735 735" fill="none" xmlns="http://www.w3.org/2000/svg">
<path d="M534.335 379.135V545.731L195.435 597.675V431.079L188.644 432.12V605.507L541.126 551.482V378.094L534.335 379.135Z" fill="#C7E3FF" fill-opacity="0.2"/>
<path d="M195.435 295.589V204.409L534.335 152.465V243.645L541.126 242.604V144.633L188.644 198.659V296.63L195.435 295.589Z" fill="#C7E3FF" fill-opacity="0.2"/>
<path d="M528.802 385.517V552.113L189.901 604.057V437.46L183.11 438.501V611.889L535.593 557.863V384.476L528.802 385.517Z" fill="#C7E3FF" fill-opacity="0.2"/>
<path d="M189.901 301.97V210.791L528.802 158.847V250.027L535.593 248.986V151.015L183.11 205.041V303.011L189.901 301.97Z" fill="#C7E3FF" fill-opacity="0.2"/>
<path d="M543.746 368.281V534.877L204.846 586.821V420.225L198.055 421.266V594.653L550.537 540.628V367.24L543.746 368.281Z" fill="#1A1A1A"/>
<path d="M204.846 284.735V193.556L543.746 141.612V232.791L550.537 231.75V133.78L198.055 187.805V285.776L204.846 284.735Z" fill="#1A1A1A"/>
<path d="M552.172 353.039L195.682 407.679V301.198L552.172 246.558V353.039Z" fill="#C7E3FF" fill-opacity="0.2"/>
<path d="M241.131 347.68C241.131 353.884 241.735 358.209 242.948 360.651C244.159 363.095 246.151 364.104 248.923 363.678C251.692 363.254 255.605 361.988 260.663 359.881L263.362 374.291C257.891 377.164 252.385 379.025 246.844 379.872C238.532 381.148 232.489 379.287 228.715 374.294C224.94 369.298 223.053 361.281 223.053 350.241C223.053 339.201 225.027 330.451 228.975 323.993C232.923 317.535 239.363 313.621 248.299 312.251C253.561 311.443 258.583 311.797 263.362 313.307L260.558 330.035C255.155 329.041 251.38 328.707 249.234 329.036C246.186 329.504 244.073 331.179 242.896 334.056C241.718 336.937 241.131 341.476 241.131 347.68Z" fill="white"/>
<path d="M271.622 316.564C275.604 310.694 282.132 307.066 291.205 305.674C300.279 304.283 306.772 305.883 310.685 310.47C314.597 315.059 316.555 323.186 316.555 334.859C316.555 346.529 314.546 355.478 310.53 361.702C306.512 367.926 300.001 371.725 290.998 373.105C281.994 374.485 275.519 372.712 271.571 367.776C267.623 362.845 265.648 354.544 265.648 342.871C265.648 331.202 267.638 322.431 271.622 316.564ZM297.179 324.788C296.175 322.668 294.131 321.839 291.05 322.312C287.967 322.785 285.975 324.23 285.077 326.645C284.175 329.061 283.726 333.461 283.726 339.839V342.361C283.726 349.162 284.227 353.552 285.231 355.535C286.235 357.521 288.28 358.276 291.361 357.803C294.442 357.332 296.434 356.011 297.334 353.839C298.235 351.669 298.685 347.393 298.685 341.015V337.649C298.685 331.202 298.183 326.916 297.179 324.788Z" fill="white"/>
<path d="M386.057 357.484L369.747 359.985V325.917L368.811 326.062L362.681 361.067L345.955 363.631L340.139 330.457L339.1 330.616V364.682L322.995 367.151L325.177 301.521L348.553 297.938L354.371 332.375L355.203 332.246L360.813 296.057L383.876 292.524L386.057 357.484Z" fill="white"/>
<path d="M413.278 353.313L395.617 356.019V290.722L413.278 288.017V353.313Z" fill="white"/>
<path d="M470.524 344.538L453.484 347.15L440.083 318.816L439.252 318.943V349.332L423.46 351.751V286.455L441.017 283.764L453.796 313.141L454.628 313.011V281.678L470.524 279.242V344.538Z" fill="white"/>
<path d="M518.52 291.338C511.87 290.324 507.003 290.055 503.921 290.526C500.839 290.999 498.728 292.689 497.586 295.598C496.442 298.508 495.87 302.923 495.87 308.846C495.87 314.77 496.406 319.001 497.481 321.532C498.554 324.068 500.753 325.08 504.078 324.569C505.048 324.422 506.918 323.857 509.688 322.87V314.877L505.013 315.595V303.187L524.856 300.145V336.211L512.596 338.09L510.935 334.98L510.52 335.043C509.342 336.206 508.405 337.086 507.715 337.681C505.774 339.45 503.039 340.606 499.506 341.147C485.03 343.367 477.793 333.401 477.793 311.249C477.793 300.175 479.697 291.418 483.507 284.979C487.316 278.544 493.723 274.635 502.728 273.254C509.929 272.151 516.129 272.323 521.324 273.768L518.52 291.338Z" fill="white"/>
<path d="M256.571 259.22C257.957 257.551 259.855 256.535 262.268 256.163C264.678 255.795 267.15 255.657 269.683 255.755L268.883 262.35C266.244 262.135 264.432 262.103 263.448 262.252C262.193 262.444 261.568 263.054 261.568 264.078C261.568 264.482 261.868 264.829 262.467 265.112C263.066 265.401 263.793 265.685 264.646 265.972C265.498 266.261 266.35 266.63 267.203 267.078C268.055 267.527 268.783 268.244 269.382 269.233C269.981 270.22 270.283 271.413 270.283 272.816C270.283 275.377 269.602 277.465 268.243 279.075C266.883 280.687 264.96 281.683 262.467 282.064C259.976 282.445 257.544 282.428 255.172 282.01L255.612 275.913C258.463 276.314 260.449 276.426 261.567 276.254C262.688 276.082 263.247 275.499 263.247 274.5C263.247 273.989 262.946 273.561 262.347 273.222C261.748 272.883 261.021 272.562 260.169 272.263C259.315 271.961 258.456 271.595 257.591 271.159C256.726 270.728 255.993 270.016 255.393 269.029C254.793 268.045 254.493 266.807 254.493 265.324C254.493 262.925 255.186 260.89 256.571 259.22Z" fill="#1A1A1A"/>
<path d="M291.906 258.134L287.268 258.844V277.859L280.433 278.905V259.893L275.519 260.645L275.917 254.476L292.305 251.965L291.906 258.134Z" fill="#1A1A1A"/>
<path d="M316.487 273.379L309.812 274.404L309.052 270.557L304.336 271.279L303.577 275.358L297.222 276.332L301.777 250.513L311.93 248.956L316.487 273.379ZM308.293 265.937L306.893 257.172L306.614 257.215L305.215 266.411L308.293 265.937Z" fill="#1A1A1A"/>
<path d="M340.151 244.631L334.235 262.893V270.659L327.44 271.7V263.935L321.604 247.473L329.119 246.322L330.918 254.217L331.237 254.168L332.956 245.734L340.151 244.631Z" fill="#1A1A1A"/>
<path d="M374.325 245.502L369.688 246.212V265.225L362.853 266.274V247.259L357.938 248.014L358.336 241.845L374.725 239.331L374.325 245.502Z" fill="#1A1A1A"/>
<path d="M388.595 255.937C388.94 256.288 389.507 256.402 390.294 256.283C391.079 256.161 391.625 255.881 391.932 255.443C392.237 255.007 392.392 254.342 392.392 253.453V236.625L399.266 235.571V252.805C399.266 255.69 398.487 257.912 396.927 259.474C395.369 261.032 393.077 262.046 390.054 262.509C387.028 262.972 384.777 262.663 383.298 261.582C381.819 260.501 381.079 258.533 381.079 255.672V238.359L388.074 237.285V254.155C388.074 254.992 388.249 255.585 388.595 255.937Z" fill="#1A1A1A"/>
<path d="M425.688 256.642L419.133 257.648L413.977 246.746L413.657 246.795V258.486L407.581 259.418V234.296L414.336 233.262L419.252 244.563L419.572 244.514V232.457L425.688 231.521V256.642Z" fill="#1A1A1A"/>
<path d="M447.431 253.311L434.001 255.369V230.247L447.831 228.127L447.431 234.378L440.837 235.387V239.149L446.552 238.274V243.613L440.837 244.49V248.656L447.832 247.585L447.431 253.311Z" fill="#1A1A1A"/>
<path d="M473.412 236.219C473.412 244.959 470.001 249.85 463.18 250.896L454.947 252.157V227.036L463.34 225.75C466.992 225.189 469.582 225.825 471.115 227.654C472.647 229.48 473.412 232.338 473.412 236.219ZM465.8 243.153C466.212 242.076 466.419 240.348 466.419 237.961C466.419 235.574 466.198 233.915 465.758 232.985C465.319 232.053 464.379 231.699 462.941 231.919L461.742 232.103V245.291L463.06 245.089C464.473 244.872 465.386 244.227 465.8 243.153Z" fill="#1A1A1A"/>
<path d="M482.126 245.241C482.126 244.162 482.405 243.317 482.966 242.707C483.525 242.094 484.417 241.693 485.644 241.506C486.868 241.319 487.761 241.444 488.322 241.885C488.88 242.325 489.16 243.11 489.16 244.244C489.16 246.322 487.988 247.538 485.644 247.897C483.298 248.258 482.126 247.371 482.126 245.241ZM482.646 240.225L482.206 222.857L489 221.816L488.442 239.338L482.646 240.225Z" fill="#1A1A1A"/>
<path d="M225.419 422.611C230.862 416.056 238.321 412.05 247.797 410.597C257.274 409.145 266.983 408.611 276.93 408.995L273.79 434.907C263.425 434.06 256.304 433.933 252.431 434.525C247.508 435.28 245.049 437.67 245.049 441.696C245.049 443.285 246.228 444.641 248.583 445.764C250.939 446.888 253.791 448.014 257.143 449.14C260.492 450.271 263.841 451.716 267.193 453.48C270.543 455.247 273.396 458.07 275.752 461.944C278.108 465.823 279.286 470.517 279.286 476.026C279.286 486.094 276.616 494.291 271.277 500.617C265.936 506.947 258.371 510.862 248.583 512.361C238.793 513.861 229.239 513.789 219.922 512.145L221.65 488.197C232.852 489.767 240.651 490.213 245.049 489.537C249.446 488.865 251.645 486.567 251.645 482.646C251.645 480.636 250.466 478.961 248.111 477.626C245.756 476.293 242.902 475.032 239.553 473.851C236.2 472.67 232.824 471.225 229.424 469.524C226.02 467.819 223.142 465.029 220.786 461.152C218.43 457.276 217.253 452.422 217.253 446.592C217.253 437.161 219.974 429.169 225.419 422.611Z" fill="#1A1A1A"/>
<path d="M294.597 415.346C300.615 406.476 310.482 400.99 324.199 398.887C337.915 396.784 347.73 399.204 353.646 406.138C359.56 413.074 362.519 425.359 362.519 443.004C362.519 460.646 359.481 474.172 353.41 483.58C347.337 492.988 337.495 498.733 323.886 500.821C310.275 502.906 300.485 500.223 294.517 492.764C288.549 485.309 285.565 472.757 285.565 455.115C285.565 437.473 288.574 424.215 294.597 415.346ZM333.23 427.783C331.711 424.574 328.622 423.324 323.964 424.039C319.304 424.751 316.293 426.936 314.934 430.586C313.572 434.241 312.892 440.888 312.892 450.531V454.345C312.892 464.625 313.651 471.262 315.169 474.262C316.687 477.261 319.776 478.402 324.435 477.688C329.093 476.975 332.104 474.977 333.465 471.696C334.826 468.414 335.507 461.951 335.507 452.309V447.222C335.507 437.475 334.746 430.995 333.23 427.783Z" fill="#1A1A1A"/>
<path d="M379.088 402.398C385.106 393.526 394.973 388.039 408.69 385.937C422.406 383.837 432.221 386.253 438.137 393.187C444.05 400.123 447.01 412.411 447.01 430.053C447.01 447.695 443.972 461.221 437.9 470.629C431.827 480.039 421.986 485.785 408.377 487.87C394.766 489.956 384.975 487.272 379.008 479.813C373.04 472.361 370.056 459.809 370.056 442.166C370.056 424.522 373.064 411.267 379.088 402.398ZM417.719 414.833C416.202 411.623 413.113 410.373 408.455 411.088C403.794 411.803 400.783 413.985 399.424 417.635C398.063 421.29 397.382 427.94 397.382 437.58V441.394C397.382 451.674 398.141 458.311 399.659 461.311C401.177 464.311 404.266 465.452 408.926 464.739C413.584 464.024 416.594 462.028 417.956 458.745C419.316 455.464 419.998 449.001 419.998 439.359V434.271C419.998 424.524 419.237 418.047 417.719 414.833Z" fill="#1A1A1A"/>
<path d="M528.831 467.819L503.074 471.765L482.815 428.934L481.559 429.129V475.064L457.689 478.722V380.017L484.229 375.949L503.547 420.354L504.803 420.162V372.797L528.832 369.114L528.831 467.819Z" fill="#1A1A1A"/>
<path d="M561.227 102L498.848 196.074L596.441 127.792L561.227 102Z" fill="#C7E3FF" fill-opacity="0.2"/>
<path d="M175.214 632.989L237.593 538.915L140 607.197L175.214 632.989Z" fill="#C7E3FF" fill-opacity="0.2"/>
<path d="M215.892 232.251C215.752 222.194 217.106 214.342 219.958 208.693C222.807 203.046 227.597 199.601 234.329 198.354L238.051 205.081C234.244 206.018 231.601 208.215 230.121 211.668C228.64 215.124 227.951 220.452 228.05 227.651L238.151 226.155L238.44 247.014L216.141 250.317L215.892 232.251Z" fill="#1A1A1A"/>
<path d="M246.063 227.783C245.925 217.726 247.278 209.873 250.13 204.225C252.979 198.577 257.769 195.133 264.502 193.885L268.224 200.612C264.417 201.55 261.773 203.746 260.293 207.199C258.813 210.655 258.123 215.983 258.223 223.182L268.324 221.686L268.613 242.545L246.313 245.848L246.063 227.783Z" fill="#1A1A1A"/>
<path d="M532.876 497.622C533.015 507.679 531.662 515.531 528.81 521.179C525.961 526.827 521.171 530.271 514.438 531.519L510.716 524.792C514.523 523.855 517.167 521.658 518.647 518.205C520.127 514.749 520.817 509.421 520.717 502.222L510.616 503.718L510.327 482.859L532.626 479.556L532.876 497.622Z" fill="#1A1A1A"/>
<path d="M502.704 502.09C502.843 512.147 501.489 520 498.637 525.648C495.788 531.295 490.998 534.74 484.265 535.988L480.543 529.261C484.35 528.323 486.994 526.127 488.474 522.674C489.954 519.217 490.644 513.89 490.545 506.691L480.443 508.187L480.154 487.327L502.454 484.024L502.704 502.09Z" fill="#1A1A1A"/>
</svg>
