<svg width="100" height="100" viewBox="0 0 100 100" fill="none" xmlns="http://www.w3.org/2000/svg">
<path d="M71.6797 41.6992H86.1328C87.6868 41.6992 89.1772 42.3165 90.276 43.4154C91.3749 44.5142 91.9922 46.0046 91.9922 47.5586V92.6758C91.9922 94.2298 91.3749 95.7201 90.276 96.819C89.1772 97.9178 87.6868 98.5352 86.1328 98.5352H19.7266C16.6186 98.5352 13.6378 97.3005 11.4402 95.1028C9.24246 92.9051 8.00781 89.9244 8.00781 86.8164V32.9102" fill="#DE9C64"/>
<path d="M62.8906 41.6992H71.6797L8.00781 32.9102V34.1234L62.8906 41.6992Z" fill="#B28B6A"/>
<path d="M86.1328 41.6992H77.3438C78.8978 41.6992 80.3881 42.3165 81.487 43.4154C82.5858 44.5142 83.2031 46.0046 83.2031 47.5586V92.6758C83.2031 94.2298 82.5858 95.7201 81.487 96.819C80.3881 97.9178 78.8978 98.5352 77.3438 98.5352H86.1328C87.6868 98.5352 89.1772 97.9178 90.276 96.819C91.3749 95.7201 91.9922 94.2298 91.9922 92.6758V47.5586C91.9922 46.0046 91.3749 44.5142 90.276 43.4154C89.1772 42.3165 87.6868 41.6992 86.1328 41.6992Z" fill="#A17855"/>
<path d="M74.5117 61.4258H91.9922V78.8086H74.5117C72.2066 78.8086 69.9959 77.8929 68.366 76.2629C66.736 74.633 65.8203 72.4223 65.8203 70.1172C65.8203 67.8121 66.736 65.6014 68.366 63.9714C69.9959 62.3415 72.2066 61.4258 74.5117 61.4258Z" fill="#A17855"/>
<path d="M83.2031 61.4258H91.9922V78.8086H83.2031V61.4258Z" fill="#896848"/>
<path d="M16.7969 24.1211H74.4141C75.9681 24.1211 77.4584 24.7384 78.5573 25.8373C79.6561 26.9361 80.2734 28.4265 80.2734 29.9805V41.6992H16.7969C14.4659 41.6992 12.2303 40.7732 10.5821 39.125C8.9338 37.4767 8.00781 35.2412 8.00781 32.9102C8.00781 30.5792 8.9338 28.3436 10.5821 26.6953C12.2303 25.0471 14.4659 24.1211 16.7969 24.1211Z" fill="#C58855"/>
<path d="M58.2188 32.9102C61.5612 31.2353 64.2404 28.4813 65.8227 25.0941C67.4049 21.7068 67.7976 17.8847 66.937 14.2465C66.0765 10.6083 64.0131 7.3671 61.0811 5.04765C58.149 2.72819 54.5198 1.46631 50.7813 1.46631C47.0427 1.46631 43.4136 2.72819 40.4815 5.04765C37.5494 7.3671 35.486 10.6083 34.6255 14.2465C33.7649 17.8847 34.1576 21.7068 35.7398 25.0941C37.3221 28.4813 40.0014 31.2353 43.3438 32.9102" fill="#28D28C"/>
<path d="M42.3828 19.5314H49.3164V26.465C49.3164 26.8535 49.4707 27.226 49.7454 27.5008C50.0202 27.7755 50.3927 27.9298 50.7812 27.9298C51.1698 27.9298 51.5423 27.7755 51.8171 27.5008C52.0918 27.226 52.2461 26.8535 52.2461 26.465V19.5314H58.9844C59.3729 19.5314 59.7455 19.377 60.0202 19.1023C60.2949 18.8276 60.4492 18.455 60.4492 18.0665C60.4492 17.678 60.2949 17.3054 60.0202 17.0307C59.7455 16.756 59.3729 16.6017 58.9844 16.6017H52.2461V9.86339C52.2461 9.47489 52.0918 9.1023 51.8171 8.82759C51.5423 8.55288 51.1698 8.39855 50.7812 8.39855C50.3927 8.39855 50.0202 8.55288 49.7454 8.82759C49.4707 9.1023 49.3164 9.47489 49.3164 9.86339V16.6017H42.3828C41.9943 16.6017 41.6217 16.756 41.347 17.0307C41.0723 17.3054 40.918 17.678 40.918 18.0665C40.918 18.455 41.0723 18.8276 41.347 19.1023C41.6217 19.377 41.9943 19.5314 42.3828 19.5314ZM86.1328 40.2345H81.7383V29.9806C81.7361 28.0387 80.9638 26.1771 79.5907 24.804C78.2176 23.4309 76.3559 22.6585 74.4141 22.6564H68.2613C68.9591 19.9845 69.0352 17.1882 68.4836 14.4823C67.932 11.7765 66.7674 9.2331 65.0794 7.04759C63.3914 4.86208 61.2248 3.09262 58.7461 1.87516C56.2675 0.657706 53.5428 0.0246582 50.7812 0.0246582C48.0197 0.0246582 45.295 0.657706 42.8164 1.87516C40.3377 3.09262 38.1711 4.86208 36.4831 7.04759C34.7951 9.2331 33.6305 11.7765 33.0789 14.4823C32.5273 17.1882 32.6034 19.9845 33.3012 22.6564H16.7969C14.0774 22.6564 11.4692 23.7367 9.54627 25.6597C7.62329 27.5826 6.54297 30.1908 6.54297 32.9103V86.8165C6.5469 90.3118 7.93714 93.6628 10.4087 96.1344C12.8802 98.6059 16.2313 99.9962 19.7266 100H86.1328C88.0746 99.9979 89.9363 99.2256 91.3094 97.8525C92.6825 96.4794 93.4549 94.6177 93.457 92.6759V47.5587C93.4549 45.6169 92.6825 43.7552 91.3094 42.3821C89.9363 41.009 88.0746 40.2367 86.1328 40.2345ZM50.7812 2.9298C53.2358 2.93304 55.6529 3.53237 57.8246 4.67625C59.9963 5.82014 61.8578 7.47434 63.2489 9.49666C64.64 11.519 65.5191 13.8489 65.8107 16.2861C66.1023 18.7232 65.7976 21.1948 64.9229 23.4882C64.8867 23.5631 64.857 23.641 64.8342 23.721C63.5 27.0425 61.0274 29.7807 57.8588 31.4456H43.7037C40.5351 29.7807 38.0625 27.0425 36.7283 23.721C36.7055 23.641 36.6758 23.5631 36.6396 23.4882C35.7649 21.1948 35.4602 18.7232 35.7518 16.2861C36.0434 13.8489 36.9225 11.519 38.3136 9.49666C39.7047 7.47434 41.5662 5.82014 43.7379 4.67625C45.9096 3.53237 48.3267 2.93304 50.7812 2.9298ZM11.618 27.7314C12.2965 27.0491 13.1035 26.5081 13.9925 26.1399C14.8815 25.7716 15.8347 25.5834 16.7969 25.586H34.3406C35.3552 27.8115 36.8148 29.8056 38.6295 31.4454H28.5156C28.1271 31.4454 27.7545 31.5998 27.4798 31.8745C27.2051 32.1492 27.0508 32.5218 27.0508 32.9103C27.0508 33.2988 27.2051 33.6714 27.4798 33.9461C27.7545 34.2208 28.1271 34.3751 28.5156 34.3751H58.2158L58.2197 34.3755L58.225 34.3751H72.8516C73.2401 34.3751 73.6127 34.2208 73.8874 33.9461C74.1621 33.6714 74.3164 33.2988 74.3164 32.9103C74.3164 32.5218 74.1621 32.1492 73.8874 31.8745C73.6127 31.5998 73.2401 31.4454 72.8516 31.4454H62.933C64.7477 29.8056 66.2073 27.8115 67.2219 25.586H74.4141C75.5792 25.5873 76.6962 26.0507 77.52 26.8746C78.3439 27.6985 78.8073 28.8155 78.8086 29.9806V40.2345H16.7969C15.3483 40.2344 13.9323 39.8049 12.7279 39.0001C11.5234 38.1953 10.5847 37.0514 10.0304 35.7131C9.47603 34.3748 9.33098 32.9022 9.61357 31.4814C9.89617 30.0607 10.5937 28.7557 11.618 27.7314ZM90.5273 77.3439H74.5117C72.5951 77.3439 70.757 76.5825 69.4018 75.2272C68.0465 73.872 67.2852 72.0339 67.2852 70.1173C67.2852 68.2007 68.0465 66.3626 69.4018 65.0073C70.757 63.6521 72.5951 62.8907 74.5117 62.8907H90.5273V77.3439ZM90.5273 59.961H74.5117C71.8181 59.961 69.2348 61.0311 67.3302 62.9357C65.4255 64.8404 64.3555 67.4237 64.3555 70.1173C64.3555 72.8109 65.4255 75.3942 67.3302 77.2989C69.2348 79.2035 71.8181 80.2735 74.5117 80.2735H90.5273V92.6759C90.5261 93.841 90.0626 94.958 89.2388 95.7819C88.4149 96.6057 87.2979 97.0691 86.1328 97.0704H19.7266C17.008 97.0673 14.4017 95.986 12.4794 94.0637C10.5571 92.1414 9.47576 89.5351 9.47266 86.8165V40.0769C10.4255 41.0545 11.5645 41.8313 12.8224 42.3616C14.0803 42.8918 15.4317 43.1647 16.7969 43.1642H86.1328C87.2979 43.1655 88.4149 43.6289 89.2388 44.4527C90.0626 45.2766 90.5261 46.3936 90.5273 47.5587V59.961ZM73.1445 70.1173C73.1445 70.407 73.2304 70.6902 73.3914 70.9311C73.5524 71.172 73.7811 71.3598 74.0488 71.4706C74.3165 71.5815 74.611 71.6105 74.8951 71.554C75.1793 71.4975 75.4403 71.358 75.6452 71.1531C75.85 70.9482 75.9896 70.6872 76.0461 70.4031C76.1026 70.1189 76.0736 69.8244 75.9627 69.5567C75.8518 69.2891 75.6641 69.0603 75.4232 68.8993C75.1823 68.7384 74.8991 68.6525 74.6094 68.6525C74.2209 68.6525 73.8483 68.8068 73.5736 69.0815C73.2989 69.3562 73.1445 69.7288 73.1445 70.1173Z" fill="#3C3B41"/>
</svg>
